<?xml version="1.0" standalone="no"?>
<!DOCTYPE svg PUBLIC "-//W3C//DTD SVG 1.1//EN" "http://www.w3.org/Graphics/SVG/1.1/DTD/svg11.dtd" >
<svg xmlns="http://www.w3.org/2000/svg" xmlns:xlink="http://www.w3.org/1999/xlink" version="1.1">
<metadata></metadata>
<defs>
<font id="mirai-regularuploaded_file" horiz-adv-x="1183" vert-adv-y="2048" >
<font-face units-per-em="2048" ascent="1612" descent="-436" />
<missing-glyph horiz-adv-x="440" />
<glyph unicode="&#xfb01;" horiz-adv-x="1126" d="M80 883v125h147v92q0 88 16.5 162.5t51.5 130t90 86t133 30.5q51 0 100.5 -12t90.5 -29l-35 -125q-35 16 -72 27.5t-76 11.5q-47 0 -78.5 -21.5t-50 -60t-27 -90t-8.5 -110.5v-92h592v-1008h-135v883h-457v-883h-135v883h-147zM803 1309q0 39 25.5 65.5t64.5 26.5 t64.5 -26.5t25.5 -65.5t-25.5 -65.5t-64.5 -26.5t-64.5 26.5t-25.5 65.5z" />
<glyph unicode="&#xfb02;" horiz-adv-x="1126" d="M80 883v125h147v69q0 84 16.5 162t57.5 138.5t108 96t169 35.5q98 0 190 -16t186 -49v-1444h-135v1350q-53 16 -111.5 24t-123.5 8q-66 0 -108 -24.5t-67.5 -65.5t-36 -96t-10.5 -117v-71h318v-125h-318v-883h-135v883h-147z" />
<glyph unicode="&#xfb03;" horiz-adv-x="1699" d="M80 883v125h147v63q0 96 16.5 177t51.5 139.5t92 90t137 31.5q102 0 207 -36l-35 -125q-45 16 -85 25t-83 9q-51 0 -82.5 -25.5t-50 -68.5t-26 -98t-7.5 -117v-65h437v92q0 88 16 162.5t52 130t90.5 86t132.5 30.5q53 0 102 -12t90 -29l-37 -125q-35 16 -71.5 27.5 t-75.5 11.5q-47 0 -78 -21.5t-50.5 -60t-27.5 -90t-8 -110.5v-92h594v-1008h-135v883h-459v-883h-135v883h-437v-883h-135v883h-147zM1374 1309q0 39 25.5 65.5t64.5 26.5t64.5 -26.5t25.5 -65.5t-25.5 -65.5t-64.5 -26.5t-64.5 26.5t-25.5 65.5z" />
<glyph unicode="&#xfb04;" horiz-adv-x="1699" d="M80 883v125h147v63q0 96 16.5 177t51.5 139.5t92 90t137 31.5q102 0 207 -36l-35 -125q-45 16 -85 25t-83 9q-51 0 -82.5 -25.5t-50 -68.5t-26 -98t-7.5 -117v-65h437v69q0 84 17.5 162t57 138.5t107.5 96t168 35.5t191.5 -16t187.5 -49v-1444h-135v1350 q-53 16 -111.5 24t-124.5 8t-107.5 -24.5t-68.5 -65.5t-37 -96t-10 -117v-71h319v-125h-319v-883h-135v883h-437v-883h-135v883h-147z" />
<glyph horiz-adv-x="0" vert-adv-y="0" />
<glyph unicode="&#xd;" horiz-adv-x="0" vert-adv-y="0" />
<glyph horiz-adv-x="0" vert-adv-y="0" />
<glyph horiz-adv-x="0" vert-adv-y="0" />
<glyph unicode=" "  horiz-adv-x="440" />
<glyph unicode="&#x09;" horiz-adv-x="440" />
<glyph unicode="&#xa0;" horiz-adv-x="440" />
<glyph unicode="!" horiz-adv-x="462" d="M141 66q0 -39 24.5 -66t65.5 -27t66 27t25 66t-25 65.5t-66 26.5t-65.5 -26.5t-24.5 -65.5zM156 1397h151l-26 -1037h-99z" />
<glyph unicode="&#x22;" horiz-adv-x="585" d="M111 1485h135l-19 -428h-96zM338 1485h135l-19 -428h-96z" />
<glyph unicode="#" horiz-adv-x="1443" d="M111 369l20 112h250l78 434h-252l20 113h250l66 369h121l-64 -369h371l65 369h121l-65 -369h251l-20 -113h-250l-78 -434h252l-20 -112h-250l-66 -369h-120l63 369h-371l-65 -369h-121l65 369h-251zM504 481h370l76 434h-370z" />
<glyph unicode="$" d="M127 180l78 109q66 -51 151.5 -88t178.5 -47v510q-211 53 -300.5 148t-89.5 214q0 68 25 126t73 104.5t120.5 76t171.5 35.5v115h114v-115q111 -8 216.5 -46t191.5 -97l-78 -107q-66 47 -152 82t-178 45v-481q219 -57 311.5 -153.5t92.5 -227.5q0 -12 -1 -25.5t-3 -25.5 q-8 -59 -37 -111.5t-78 -93.5t-120 -67.5t-165 -32.5v-113h-114v115q-111 10 -218.5 49t-189.5 102zM274 1032q0 -78 59.5 -137t201.5 -102v452q-131 -12 -196 -70.5t-65 -142.5zM649 152q139 10 207 72.5t68 154.5q0 88 -61.5 150.5t-213.5 105.5v-483z" />
<glyph unicode="%" horiz-adv-x="1685" d="M98 1016q0 -76 15.5 -148.5t51.5 -130t95 -92.5t148 -35q88 0 147 35t95 92.5t51.5 130t15.5 148.5t-15.5 148.5t-51.5 130t-95 92t-147 34.5t-147.5 -34.5t-95.5 -92t-51.5 -130t-15.5 -148.5zM129 1016q0 49 18.5 92t51 74.5t74.5 50t92 18.5q49 0 92 -18.5t74.5 -50 t50 -74.5t18.5 -92t-18.5 -92t-50 -75t-74.5 -50.5t-92 -18.5t-91.5 18.5t-75 50.5t-51 75t-18.5 92zM489 16l609 1434l98 -41l-608 -1436zM969 381q0 -76 15 -148.5t51 -130t95.5 -93.5t147.5 -36t147.5 36t95 93.5t51 130t15.5 148.5q0 74 -15.5 146.5t-51 130t-95 93 t-147.5 35.5t-147.5 -35.5t-95.5 -93t-51 -130t-15 -146.5zM999 381q0 49 18.5 92t51.5 75t75 50t91 18t92 -18t75 -50t50 -75t18 -92t-18 -92t-50 -75t-75 -50.5t-92 -18.5t-91 18.5t-75 50.5t-51.5 75t-18.5 92z" />
<glyph unicode="&#x26;" horiz-adv-x="1331" d="M111 354q0 51 12 102.5t44 102.5t85 103.5t135 107.5q-61 82 -104 166t-43 170q0 141 88 228t243 87q78 0 139.5 -23.5t104.5 -64.5t65.5 -95t22.5 -116q0 -111 -77.5 -204t-235.5 -185q104 -123 182 -210t156 -165h4q31 63 53.5 146.5t34.5 187.5l133 -20 q-33 -242 -131 -406q47 -45 97 -92t112 -102l-96 -97q-53 51 -101.5 95.5t-91.5 85.5q-157 -181 -403 -181q-92 0 -170 27t-135.5 76t-90 119.5t-32.5 156.5zM246 350q0 -59 23.5 -105t63.5 -78t93.5 -49.5t114.5 -17.5q88 0 167.5 33t145.5 109q-49 49 -94 95t-91 96 t-94.5 106.5t-103.5 124.5q-117 -76 -171 -149t-54 -165zM375 1104q0 -66 35.5 -130.5t91.5 -133.5q129 76 197.5 136t68.5 142q0 72 -49.5 125t-147.5 53q-92 0 -144 -53t-52 -139z" />
<glyph unicode="'" horiz-adv-x="356" d="M111 1485h135l-19 -428h-96z" />
<glyph unicode="(" horiz-adv-x="624" d="M162 602q0 246 66.5 478.5t203.5 437.5l103 -58q-129 -188 -190.5 -409.5t-61.5 -448.5t61.5 -448.5t190.5 -411.5l-103 -55q-137 205 -203.5 437t-66.5 478z" />
<glyph unicode=")" horiz-adv-x="624" d="M90 -258q129 190 189.5 411.5t60.5 448.5t-60.5 448.5t-189.5 409.5l100 58q137 -205 205 -437.5t68 -478.5t-67.5 -478.5t-205.5 -436.5z" />
<glyph unicode="*" horiz-adv-x="952" d="M90 924l287 149v4q-41 20 -91 47t-93 50q-53 27 -103 53l62 106q49 -33 98 -63q41 -27 88 -56.5t86 -54.5h4q-4 45 -6 102.5t-4 106.5q-2 57 -4 117h125q-4 -59 -7 -117q-4 -49 -5 -106.5t-3 -102.5h4q37 25 84 54.5t88 56.5q49 31 99 63l63 -106q-51 -27 -104 -53 q-45 -23 -94.5 -49.5t-90.5 -47.5v-4l289 -149l-63 -107l-273 174h-4q2 -47 4 -103.5t6 -105.5q4 -57 7 -116h-125q2 59 6 116q2 49 4 105.5t4 103.5h-4l-272 -174z" />
<glyph unicode="+" d="M137 496v120h391v396h127v-396h392v-120h-392v-396h-127v396h-391z" />
<glyph unicode="," horiz-adv-x="317" d="M9 -297q33 104 59.5 210.5t44.5 217.5h135q-27 -111 -62.5 -217.5t-80.5 -210.5h-96z" />
<glyph unicode="-" horiz-adv-x="702" d="M100 496v120h502v-120h-502z" />
<glyph unicode="." horiz-adv-x="350" d="M100 66q0 39 26 65.5t64 26.5q39 0 65 -27t26 -65q0 -39 -26 -66t-65 -27t-64.5 27t-25.5 66z" />
<glyph unicode="/" horiz-adv-x="794" d="M45 -82l614 1602l107 -41l-614 -1602z" />
<glyph unicode="0" d="M80 698q0 125 23.5 254t82 233.5t156.5 170t250 65.5q150 0 249 -65.5t157.5 -170t82 -233.5t23.5 -254t-23.5 -254t-82 -233.5t-158 -171t-248.5 -66.5q-152 0 -250 66.5t-156.5 171t-82 233.5t-23.5 254zM215 698q0 -94 13.5 -199.5t54.5 -193.5t114.5 -145.5 t194.5 -57.5t194.5 57.5t114.5 145.5t54.5 193.5t13.5 199.5t-13.5 198.5t-54.5 193t-114.5 145.5t-194.5 57t-194.5 -57t-114.5 -145.5t-54.5 -192.5t-13.5 -199z" />
<glyph unicode="1" d="M215 1243l387 164h111v-1407h-135v1262l-322 -136z" />
<glyph unicode="2" d="M164 1038q27 172 137.5 277.5t300.5 105.5q102 0 180 -31.5t130.5 -86t78 -127t25.5 -152.5q0 -68 -20.5 -127t-57.5 -116.5t-85 -115t-103 -116.5l-390 -420v-4h660v-125h-852v109l467 507q55 57 100 109.5t77 102t50.5 98.5t18.5 102q0 115 -72 189.5t-207 74.5 q-133 0 -205.5 -77.5t-95.5 -213.5z" />
<glyph unicode="3" d="M133 141l96 92q27 -31 64 -55t80 -40.5t88 -26t90 -9.5q84 0 148.5 20.5t108.5 57.5t66.5 87t22.5 108q0 55 -19.5 106t-61.5 90t-107.5 61.5t-157.5 22.5h-166v117h158q78 0 139 21.5t103 57.5t64.5 84t22.5 103q0 109 -81.5 181.5t-239.5 72.5q-199 0 -313 -118l-97 98 q74 70 177.5 109.5t232.5 39.5q111 0 195.5 -28.5t142 -78.5t87.5 -119t30 -148q0 -109 -56.5 -194t-161.5 -132v-4q123 -53 182.5 -147.5t59.5 -194.5q0 -180 -124 -291t-355 -111q-59 0 -119.5 12.5t-116 34t-102.5 53t-80 68.5z" />
<glyph unicode="4" d="M68 430l706 967h119v-953h186v-122h-186v-322h-135v322h-680zM250 444h508v697h-4l-504 -692v-5z" />
<glyph unicode="5" d="M129 154l100 96q49 -63 127 -105.5t172 -42.5q82 0 147.5 26t112 71t70 106.5t23.5 134.5q0 145 -92.5 231.5t-260.5 86.5q-147 0 -264 -53l-80 71l99 621h659v-125h-543l-65 -420h4q41 16 93.5 25.5t111.5 9.5q109 0 195.5 -32t148 -90t95.5 -141t34 -186 q0 -98 -33 -182t-95.5 -147.5t-153.5 -99.5t-208 -36q-131 0 -233.5 51.5t-163.5 129.5z" />
<glyph unicode="6" d="M98 434q0 76 22.5 146.5t76 173t141.5 254t221 389.5h158q-98 -176 -175 -306t-132 -229v-4q43 16 93 26.5t103 10.5q104 0 192.5 -36t152 -97.5t99 -145.5t35.5 -182t-34.5 -182t-99 -145.5t-155.5 -97.5t-204 -36t-204 36t-155.5 97.5t-99.5 145.5t-35 182zM233 434 q0 -66 24 -125t69 -105t112.5 -73t153.5 -27t153.5 27t112.5 73t68.5 105.5t23.5 124.5q0 66 -23.5 125t-68.5 105.5t-112.5 73t-153.5 26.5t-153.5 -26.5t-112.5 -73t-69 -105.5t-24 -125z" />
<glyph unicode="7" d="M147 1272v125h871v-109l-504 -1288h-145l503 1272h-725z" />
<glyph unicode="8" d="M80 379q0 115 58.5 201t168.5 135v4q-86 51 -133 130t-47 179q0 84 34 155.5t95 125t147 83t189 29.5q102 0 188 -29.5t147.5 -83t95.5 -125t34 -155.5q0 -100 -47 -179t-133 -130v-4q111 -49 169 -135t58 -201q0 -88 -36 -162t-102.5 -128t-160.5 -85t-213 -31t-213 31 t-160.5 85t-102.5 128t-36 162zM215 375q0 -57 23.5 -106.5t71.5 -86.5t119 -57.5t163 -20.5t162.5 20.5t118 57.5t72 86t24.5 107q0 55 -24.5 104t-72 86t-118 58.5t-162.5 21.5t-163 -21.5t-119 -58.5t-71.5 -86t-23.5 -104zM260 1032q0 -113 89 -186.5t243 -73.5t243 74 t89 186q0 115 -89.5 187.5t-242.5 72.5q-154 0 -243 -72.5t-89 -187.5z" />
<glyph unicode="9" horiz-adv-x="1224" d="M119 963q0 98 34.5 182t99 145.5t156 96t203.5 34.5q113 0 204 -34.5t155.5 -96t99.5 -145.5t35 -182q0 -76 -22.5 -147t-76 -173t-142.5 -253.5t-220 -389.5h-158q98 176 175 306t133 229v4q-43 -16 -93.5 -26.5t-103.5 -10.5q-104 0 -192.5 35.5t-152 97t-99 145.5 t-35.5 183zM254 963q0 -66 23.5 -125.5t68.5 -105.5t112.5 -72.5t153.5 -26.5t154 26.5t113 72.5t68.5 105.5t23.5 125.5t-23.5 125t-68.5 105t-113 72.5t-154 26.5t-153.5 -26.5t-112.5 -72.5t-68.5 -105.5t-23.5 -124.5z" />
<glyph unicode=":" horiz-adv-x="421" d="M120 66q0 39 26 65.5t64 26.5q39 0 65 -27t26 -65q0 -39 -26 -66t-65 -27t-64.5 27t-25.5 66zM120 943q0 39 26 65.5t64 26.5q39 0 65 -27t26 -65q0 -39 -26 -66t-65 -27t-64.5 27t-25.5 66z" />
<glyph unicode=";" horiz-adv-x="423" d="M41 -297h96q45 104 81 210.5t63 217.5h-136q-18 -111 -44.5 -217.5t-59.5 -210.5zM121 942q0 39 25.5 64.5t66.5 25.5q39 0 64.5 -25.5t25.5 -64.5t-25.5 -65.5t-64.5 -26.5q-41 0 -66.5 26.5t-25.5 65.5z" />
<glyph unicode="&#x3c;" d="M127 494v124l877 418l53 -108l-776 -371v-4l776 -369l-53 -108z" />
<glyph unicode="=" d="M137 240v120h910v-120h-910zM137 752v120h910v-120h-910z" />
<glyph unicode="&#x3e;" d="M127 184l776 369v4l-776 371l53 108l877 -418v-124l-877 -418z" />
<glyph unicode="?" horiz-adv-x="1138" d="M141 1092q41 147 153 239t292 92q104 0 184 -26.5t135.5 -72.5t84 -107.5t28.5 -131.5q0 -55 -17.5 -102t-50 -91t-80 -89t-104.5 -96q-37 -33 -59.5 -67t-35 -75t-17.5 -91t-7 -114h-123q0 82 6.5 141.5t22.5 106.5t46 87t75 83q51 49 90 88t65.5 74t40 69.5t13.5 75.5 q0 92 -77 152.5t-220 60.5q-131 0 -209 -66.5t-107 -176.5zM496 66q0 39 25.5 65.5t64.5 26.5t64.5 -27t25.5 -65q0 -39 -25.5 -66t-64.5 -27t-64.5 27t-25.5 66z" />
<glyph unicode="@" horiz-adv-x="1859" d="M121 600q0 180 58.5 337t165 271.5t256 180t329.5 65.5q176 0 324.5 -56.5t256 -157.5t168 -243.5t60.5 -314.5q0 -127 -26.5 -225.5t-76 -164t-116 -99t-146.5 -33.5q-66 0 -124 35.5t-87 101.5h-4q-55 -63 -129 -100t-160 -37q-84 0 -152.5 32.5t-116.5 91t-73 138.5 q-20 66 -20 139q0 20 2 39q6 96 39 177t88 139.5t127 91t156 32.5q102 0 178 -44t123 -122h4l32 146h117q-35 -184 -54.5 -296t-29.5 -171q-12 -70 -16 -96q-4 -25 -4 -45q0 -49 22 -84q33 -47 103 -47q43 0 82 22.5t69.5 71.5t49 124.5t18.5 182.5q0 147 -47 268 t-136.5 207t-216.5 133t-284 47q-164 0 -291 -57t-214 -156.5t-133 -234.5t-46 -289t46 -288t133 -234.5t214 -157.5t291 -57q143 0 277 51t245 149l74 -100q-106 -96 -266 -155.5t-330 -59.5q-180 0 -329.5 65.5t-256 180.5t-165 270.5t-58.5 335.5zM641 561 q0 -123 57 -194q66 -82 181 -82t195.5 82t92.5 233q2 20 2 41q0 123 -57 195q-66 80 -180 79q-115 0 -196 -80.5t-93 -234.5q-2 -20 -2 -39z" />
<glyph unicode="A" horiz-adv-x="1439" d="M39 0l616 1397h131l615 -1397h-158l-162 373h-723l-161 -373h-158zM416 506h608q-76 180 -150.5 359t-150.5 362h-4q-76 -183 -150.5 -362t-152.5 -359z" />
<glyph unicode="B" horiz-adv-x="1320" d="M182 0v1397h514q88 0 172 -19.5t148.5 -62.5t103.5 -112.5t39 -170.5q0 -104 -43 -185t-139 -128v-4q117 -41 175 -131t58 -213q0 -100 -37.5 -171t-102 -115t-147.5 -64.5t-173 -20.5h-568zM322 131l2 2h430q61 0 117.5 13.5t100.5 43t70.5 77.5t26.5 118 q0 74 -24.5 122t-67.5 77.5t-100.5 41t-122.5 11.5h-432v-506zM322 770h374q61 0 119.5 12.5t103 41t72 75.5t27.5 119t-26.5 120t-72 75.5t-102.5 39t-121 11.5h-370l-4 4v-498z" />
<glyph unicode="C" horiz-adv-x="1476" d="M117 698q0 158 55 291t150.5 229.5t224.5 149.5t278 53q164 0 303.5 -62.5t237.5 -176.5l-104 -95q-78 96 -191 149.5t-246 53.5q-121 0 -224 -43t-180 -121.5t-121 -187.5t-44 -240t44 -239.5t121 -187t180.5 -122t223.5 -43.5q135 0 249 55.5t192 155.5l106 -92 q-98 -119 -239.5 -185.5t-307.5 -66.5q-150 0 -278.5 54.5t-224 150.5t-150.5 229.5t-55 290.5z" />
<glyph unicode="D" horiz-adv-x="1425" d="M182 0v1397h422q162 0 292 -48.5t222 -139.5t141.5 -220t49.5 -291t-49.5 -290.5t-141.5 -220t-222 -139.5t-292 -48h-422zM322 133h276q268 0 418.5 147.5t150.5 417.5t-150.5 418t-418.5 148h-276v-1131z" />
<glyph unicode="E" horiz-adv-x="1222" d="M182 0v1397h881v-133h-741v-486h684v-133h-684v-512h759v-133h-899z" />
<glyph unicode="F" horiz-adv-x="1161" d="M182 0v1397h869v-133h-729v-506h671v-133h-671v-625h-140z" />
<glyph unicode="G" horiz-adv-x="1536" d="M117 698q0 154 52 286t146.5 229.5t224.5 152.5t285 55q156 0 297.5 -59t243.5 -180l-104 -95q-82 100 -196 151.5t-241 51.5t-231.5 -46t-180 -126t-116.5 -188.5t-41 -231.5t41 -231.5t116.5 -188t180 -126t231.5 -46.5q106 0 210 24t200 71v407h-375v133h514v-610v-2 q-117 -76 -263 -116t-286 -40q-156 0 -285.5 56.5t-224 154t-146.5 229.5t-52 285z" />
<glyph unicode="H" horiz-adv-x="1449" d="M182 0v1397h140v-598h806v598h140v-1397h-140v666h-806v-666h-140z" />
<glyph unicode="I" horiz-adv-x="503" d="M182 0v1397h140v-1397h-140z" />
<glyph unicode="J" horiz-adv-x="1101" d="M49 246l115 80q47 -96 129 -156.5t203 -60.5q141 0 223 91t82 244v953h139v-948q0 -109 -30.5 -196t-88 -148.5t-139.5 -95.5t-186 -34q-80 0 -151 22.5t-127 59.5t-99 86.5t-70 102.5z" />
<glyph unicode="K" horiz-adv-x="1347" d="M182 0v1397h140v-705h4l755 705h195l-680 -631l702 -766h-190l-612 676l-174 -156v-520h-140z" />
<glyph unicode="L" horiz-adv-x="1122" d="M182 0v1397h140v-1264h731v-133h-871z" />
<glyph unicode="M" horiz-adv-x="1804" d="M162 0l86 1397h139l514 -836h4l512 836h139l86 -1397h-141l-49 840q-4 63 -6 107t-4 79t-4 66.5t-4 68.5h-4q-29 -53 -64 -110.5t-68 -110.5l-387 -627h-18l-387 627q-33 53 -68 110.5t-63 110.5h-4q-2 -37 -4 -68.5t-4.5 -66.5t-4.5 -79t-6 -107l-49 -840h-141z" />
<glyph unicode="N" horiz-adv-x="1470" d="M182 0v1397h131l836 -1159h4q0 39 -1 87t-2 98t-1 99v90v785h139v-1397h-133l-833 1159h-5q0 -41 1 -88t2.5 -97t1.5 -100v-90v-784h-140z" />
<glyph unicode="O" horiz-adv-x="1648" d="M117 698q0 152 52 284t146.5 229.5t224 153.5t285.5 56q154 0 284 -56t224 -153.5t146.5 -229.5t52.5 -284t-52.5 -283.5t-146.5 -230t-224 -155t-284 -56.5q-156 0 -285.5 56.5t-224 155t-146.5 230.5t-52 283zM256 698q0 -123 41 -231.5t116.5 -188t180 -126 t231.5 -46.5q125 0 229.5 46.5t180.5 126t117 188t41 231.5t-41 231.5t-117 188.5t-180.5 126t-229.5 46q-127 0 -231.5 -46t-180 -126t-116.5 -188.5t-41 -231.5z" />
<glyph unicode="P" horiz-adv-x="1308" d="M182 0v1397h561q98 0 181.5 -27t143.5 -79t95 -130t35 -180q0 -100 -36 -177t-97 -129t-145 -80t-179 -28h-419v-567h-140zM322 700h419q70 0 127.5 16.5t99.5 51.5t65.5 87t23.5 126q0 147 -88 215t-228 68h-419v-564z" />
<glyph unicode="Q" horiz-adv-x="1648" d="M117 698q0 154 52 286t146.5 229.5t224.5 152.5t283 55q156 0 286 -55t224 -152.5t146.5 -229.5t52.5 -286q0 -109 -27.5 -209t-81 -187t-130 -156.5t-177.5 -112.5l303 -328l-106 -88l-328 375q-80 -18 -162 -19q-154 0 -283.5 56.5t-224 154t-146.5 229.5t-52 285z M256 698q0 -123 41 -231.5t116.5 -188t179 -126t230.5 -46.5t231.5 46.5t180.5 126t117 188t41 231.5t-41 231.5t-117 188.5t-180.5 126t-231.5 46t-230.5 -46t-179 -126t-116.5 -188.5t-41 -231.5z" />
<glyph unicode="R" horiz-adv-x="1359" d="M182 0v1397h590q109 0 193 -29t142 -82t89 -127t31 -166q0 -147 -83 -248.5t-226 -136.5l348 -608h-168l-332 592h-444v-592h-140zM322 725h448q154 0 234.5 69.5t80.5 198.5t-80.5 200t-234.5 71h-448v-539z" />
<glyph unicode="S" horiz-adv-x="1220" d="M111 141l84 115q84 -61 194.5 -105.5t226.5 -44.5q178 0 264.5 71t86.5 177q0 53 -19.5 97.5t-64.5 81t-119 66.5t-180 54q-242 53 -348.5 154.5t-106.5 243.5q0 78 29.5 145.5t90 117.5t150.5 78.5t213 28.5q135 0 264.5 -42t233.5 -115l-84 -115q-82 59 -189.5 100 t-224.5 41q-172 0 -258 -67.5t-86 -163.5q0 -98 82 -166t279 -113q258 -59 367.5 -163.5t109.5 -256.5q0 -76 -28.5 -145.5t-89 -122.5t-153 -85t-219.5 -32q-137 0 -271 44t-234 122z" />
<glyph unicode="T" horiz-adv-x="1157" d="M59 1264v133h1039v-133h-449v-1264h-139v1264h-451z" />
<glyph unicode="U" horiz-adv-x="1396" d="M162 512v885h139v-877q0 -188 102.5 -301t294.5 -113q193 0 295.5 113t102.5 301v877h139v-885q0 -125 -38 -224.5t-107.5 -169t-169 -107.5t-222.5 -38t-222 38t-168.5 107.5t-107.5 169t-38 224.5z" />
<glyph unicode="V" horiz-adv-x="1460" d="M49 1397h158l203 -469q18 -41 45.5 -105.5t59.5 -140.5t65.5 -156t62.5 -150.5t52.5 -125.5t33.5 -80h4q10 25 34 80t52.5 125.5t62 150.5t65.5 156t58.5 140.5t45.5 105.5l202 469h158l-614 -1397h-131z" />
<glyph unicode="W" horiz-adv-x="1935" vert-adv-y="2019" d="M39 1397h151l207 -699q41 -135 76 -268t59 -231h5q14 51 30.5 111.5t33.5 122t33.5 120.5t33.5 106l233 738h133l234 -738q14 -47 31.5 -106t35 -120.5t33.5 -122t31 -111.5h4q25 98 59.5 231t75.5 268l207 699h151l-428 -1397h-131l-245 772q-16 51 -34 110.5t-34 117 t-30.5 109.5t-24.5 93h-4q-10 -41 -23.5 -93t-30 -109.5t-34 -117t-33.5 -110.5l-246 -772h-131z" />
<glyph unicode="X" horiz-adv-x="1492" d="M59 0l603 717l-574 680h180l480 -580l477 580h182l-576 -680l603 -717h-187l-499 614l-502 -614h-187z" />
<glyph unicode="Y" horiz-adv-x="1353" d="M49 1397h172l455 -647h4l455 647h170l-557 -779v-618h-140v618z" />
<glyph unicode="Z" horiz-adv-x="1259" d="M121 0v131l801 1129v4h-768v133h944v-131l-801 -1129v-4h831v-133h-1007z" />
<glyph unicode="[" horiz-adv-x="585" d="M162 -283v1768h334v-113h-213v-1542h213v-113h-334z" />
<glyph unicode="\" horiz-adv-x="811" d="M45 1479l107 41l614 -1602l-107 -41z" />
<glyph unicode="]" horiz-adv-x="585" d="M90 -170h211v1542h-211v113h334v-1768h-334v113z" />
<glyph unicode="^" d="M121 698l405 699h131l406 -699l-121 -57q-88 158 -175 312.5t-173 314.5h-4q-86 -160 -173 -314.5t-175 -312.5z" />
<glyph unicode="_" horiz-adv-x="1384" d="M121 -115h1143v-112h-1143v112z" />
<glyph unicode="`" horiz-adv-x="671" d="M82 1419l106 76l246 -285l-78 -53z" />
<glyph unicode="a" horiz-adv-x="1118" d="M111 311q0 92 33.5 155.5t92 103.5t133 58.5t158.5 18.5q76 0 152 -8t151 -18v32q0 135 -78.5 194.5t-207.5 59.5q-90 0 -175 -27.5t-161 -74.5l-68 121q94 47 195 77.5t207 30.5q201 0 312.5 -98t111.5 -303v-633h-111l-8 158h-4q-61 -94 -157.5 -139.5t-207.5 -45.5 q-78 0 -144.5 22.5t-116.5 65.5t-78.5 105.5t-28.5 144.5zM246 311q0 -55 22.5 -95t58 -66.5t83 -39t96.5 -12.5q70 0 129 22.5t103 63.5t68.5 98.5t24.5 129.5v86q-72 14 -143.5 22t-142.5 8q-53 0 -106.5 -10t-96.5 -34.5t-69.5 -66.5t-26.5 -106z" />
<glyph unicode="b" horiz-adv-x="1306" d="M172 0v1485h135v-633h4q68 86 167 133t218 47q104 0 195.5 -39t159 -109.5t106.5 -168t39 -211.5q0 -115 -39 -212t-106.5 -168t-158.5 -111t-196 -40q-125 0 -229.5 54.5t-171.5 148.5h-4l-8 -176h-111zM305 504q0 -90 28.5 -163t79 -126t120 -82t151.5 -29 q80 0 149.5 29t120 82t79 126t28.5 163q0 88 -28.5 161.5t-79 127t-120 82t-149.5 28.5q-82 0 -151.5 -28.5t-120 -82t-79 -127t-28.5 -161.5z" />
<glyph unicode="c" horiz-adv-x="1112" d="M111 504q0 115 39.5 212t108.5 167.5t162 109.5t202 39q123 0 223 -47t166 -125l-99 -92q-53 63 -125.5 99t-164.5 36q-80 0 -150 -28.5t-120 -82t-78.5 -127t-28.5 -161.5q0 -90 28.5 -163t78.5 -126t120 -82t150 -29q92 0 165.5 36t126.5 102l97 -90 q-72 -86 -170.5 -131.5t-218.5 -45.5q-109 0 -202 39t-163 110t-108.5 168t-38.5 212z" />
<glyph unicode="d" horiz-adv-x="1306" d="M111 504q0 115 38.5 212t106.5 167.5t159 109.5t197 39q117 0 216.5 -47t166.5 -133h4v633h136v-1485h-111l-8 176h-4q-68 -94 -171.5 -148.5t-228.5 -54.5q-106 0 -197 40t-159 111t-106.5 168t-38.5 212zM246 504q0 -90 28.5 -163t78.5 -126t120 -82t150 -29 q82 0 150.5 29t119.5 82t79.5 126t28.5 163q0 88 -28.5 161.5t-79.5 127t-119.5 82t-150.5 28.5q-80 0 -150 -28.5t-120 -82t-78.5 -127t-28.5 -161.5z" />
<glyph unicode="e" horiz-adv-x="1173" d="M111 504q0 106 32.5 202.5t95 169t152.5 114.5t203 42q109 0 194.5 -37t146 -101.5t92.5 -153.5t32 -195q0 -23 -1 -47.5t-3 -46.5h-807q8 -74 36.5 -138.5t77 -110.5t112 -73t140.5 -27q82 0 167 39t139 103l96 -92q-78 -88 -185.5 -133.5t-224.5 -45.5q-113 0 -205 42 t-156.5 115t-99 169t-34.5 205zM250 573h672q-6 72 -29 132.5t-64 105.5t-99 69.5t-134 24.5q-78 0 -138.5 -24.5t-104.5 -68.5t-69.5 -104.5t-33.5 -134.5z" />
<glyph unicode="f" horiz-adv-x="757" d="M80 883v125h147v127q0 176 72 275t219 99q51 0 103.5 -8t97.5 -20l-27 -127q-87 28 -159 28h-5q-90 0 -128 -64.5t-38 -182.5v-127h334v-125h-334v-883h-135v883h-147z" />
<glyph unicode="g" horiz-adv-x="1193" d="M111 -96q0 72 36.5 135t120.5 104v4q-37 25 -59.5 63t-22.5 89q0 41 22.5 83t70.5 75v4q-98 92 -99 229q0 72 29 134.5t84 108.5t134 72.5t179 26.5q145 0 246 -53l152 149l88 -90l-140 -135q82 -88 82 -213q0 -72 -28.5 -134t-84 -108.5t-135 -73t-180.5 -26.5 q-70 0 -129 13.5t-108 35.5q-29 -10 -45.5 -32.5t-16.5 -51.5q0 -41 31 -62.5t76 -25.5q16 -2 68.5 -4t123.5 -6q242 -14 370 -90t128 -217t-128 -228.5t-370 -87.5q-236 0 -365.5 85t-129.5 227zM246 -92q0 -96 99 -147.5t261 -51.5q164 0 263.5 51.5t99.5 147.5 q0 47 -27 81t-74 56.5t-113.5 34.5t-148.5 16l-211 13q-68 -27 -108.5 -76t-40.5 -125zM315 690q0 -94 80 -156.5t211 -62.5q133 0 213 62.5t80 156.5q0 96 -80 157.5t-213 61.5q-131 0 -211 -61.5t-80 -157.5z" />
<glyph unicode="h" horiz-adv-x="1214" d="M172 0v1485h135v-619h4q68 84 164.5 125t202.5 41q96 0 169 -34.5t121 -94t71.5 -139.5t23.5 -170v-594h-135v551q0 72 -14.5 136.5t-48.5 112.5t-88 76.5t-134 28.5t-142.5 -30.5t-105.5 -82t-65.5 -119t-22.5 -141.5v-532h-135z" />
<glyph unicode="i" horiz-adv-x="481" d="M156 1309q0 35 23.5 60.5t60.5 25.5q39 0 62.5 -25.5t23.5 -60.5t-23.5 -59.5t-62.5 -24.5q-37 0 -60.5 24.5t-23.5 59.5zM172 0h135v1008h-135v-1008z" />
<glyph unicode="j" horiz-adv-x="585" d="M-84 -381q49 -12 99.5 -20.5t101.5 -8.5q82 0 138 32t90 84t48.5 120t14.5 139v1043h-136v-1043q0 -43 -6 -87t-23.5 -80t-50 -58.5t-86.5 -22.5q-43 0 -84.5 7.5t-82.5 17.5zM254 1309q0 37 24.5 61.5t61.5 24.5q35 0 59.5 -24.5t24.5 -61.5q0 -35 -24.5 -59.5 t-59.5 -24.5q-37 0 -61.5 24.5t-24.5 59.5z" />
<glyph unicode="k" horiz-adv-x="1112" d="M172 0v1485h135v-1004h4l561 527h172l-475 -443l504 -565h-176l-422 479l-168 -147v-332h-135z" />
<glyph unicode="l" horiz-adv-x="479" d="M172 0v1485h135v-1485h-135z" />
<glyph unicode="m" horiz-adv-x="1771" d="M172 0v1008h111l6 -129h4q59 76 143 114.5t180 38.5q98 0 177 -48t125 -146h4q59 96 151.5 145t198.5 49q72 0 135 -27.5t110.5 -81t75 -134t27.5 -187.5v-602h-135v559q0 182 -64.5 264t-181.5 82q-70 0 -121 -27.5t-86 -76.5t-52 -116t-17 -142v-543h-136v559 q0 182 -64.5 264t-180.5 82q-68 0 -120 -27.5t-86 -76.5t-51.5 -116t-17.5 -142v-4v-539h-135z" />
<glyph unicode="n" horiz-adv-x="1214" d="M172 0v1008h111l8 -164h4q66 92 165 140t218 48q76 0 146.5 -26.5t122.5 -80t84 -136t32 -195.5v-594h-135v551q0 184 -79 269t-206 85q-80 0 -142.5 -30.5t-105.5 -83t-65.5 -120t-22.5 -139.5v-532h-135z" />
<glyph unicode="o" horiz-adv-x="1247" d="M111 504q0 111 37.5 207t105.5 167.5t162 112.5t207 41t207 -41t162.5 -112.5t106.5 -168t38 -206.5q0 -111 -38 -207t-106.5 -168t-163 -113t-206.5 -41q-113 0 -207 41t-162 113t-105.5 168t-37.5 207zM246 504q0 -84 26.5 -157t75.5 -127t119 -85t156 -31t156.5 31 t119.5 85t75.5 127t26.5 157t-26.5 156.5t-75.5 127t-119.5 85t-156.5 30.5t-156 -30.5t-119 -85t-75.5 -127t-26.5 -156.5z" />
<glyph unicode="p" horiz-adv-x="1306" d="M172 -410v1418h111l8 -177h4q68 94 172 148.5t229 54.5q104 0 195.5 -40t159 -110.5t106.5 -168t39 -211.5q0 -115 -39 -212t-106.5 -168t-158.5 -110t-196 -39q-119 0 -218 47.5t-167 133.5h-4v-566h-135zM305 504q0 -90 28.5 -163t79 -126t120 -82t151.5 -29 q80 0 149.5 29t120 82t79 126t28.5 163q0 88 -28.5 161.5t-79 127t-120 82t-149.5 28.5q-82 0 -151.5 -28.5t-120 -82t-79 -127t-28.5 -161.5z" />
<glyph unicode="q" horiz-adv-x="1306" d="M111 504q0 115 38.5 212t106.5 167.5t159 110.5t197 40q125 0 228.5 -54t171.5 -149h4l8 177h111v-1418h-136v566h-4q-68 -86 -167 -133.5t-216 -47.5q-106 0 -197 39t-159 110t-106.5 168t-38.5 212zM246 504q0 -90 28.5 -163t78.5 -126t120 -82t150 -29q82 0 150.5 29 t119.5 82t79.5 126t28.5 163q0 88 -28.5 161.5t-79.5 127t-119.5 82t-150.5 28.5q-80 0 -150 -28.5t-120 -82t-78.5 -127t-28.5 -161.5z" />
<glyph unicode="r" horiz-adv-x="765" d="M172 0v1008h111l8 -138h4q95 162 283 162q35 0 71.5 -6t67.5 -14l-27 -140q-37 10 -74.5 18.5t-78.5 8.5q-59 0 -103.5 -29.5t-72 -82t-41 -124t-13.5 -153.5v-510h-135z" />
<glyph unicode="s" horiz-adv-x="976" d="M100 102l78 111q59 -53 142 -84t163 -31q39 0 82 6.5t80 24.5t61.5 49t24.5 80q0 51 -28.5 86t-69.5 58.5t-90 38t-88 24.5q-57 14 -115.5 36.5t-105 56.5t-76 83t-29.5 119q0 74 32 126t83 83.5t114.5 47t126.5 15.5q96 0 196.5 -27.5t178.5 -82.5l-78 -111 q-63 45 -140 70.5t-155 25.5q-33 0 -71.5 -7t-72.5 -23.5t-56.5 -44t-22.5 -70.5q0 -45 25.5 -76t62.5 -51.5t79 -33.5t77 -21q61 -16 124.5 -40t116 -61t85 -90t32.5 -127q0 -80 -33.5 -135t-88 -89t-122 -49.5t-137.5 -15.5q-45 0 -98 8.5t-105.5 25t-100.5 41t-81 54.5z " />
<glyph unicode="t" horiz-adv-x="792" d="M74 883v125h168v340h135v-340h313v-125h-313v-633q0 -59 23.5 -104.5t91.5 -45.5q49 0 100 9.5t98 23.5l23 -127q-51 -16 -118 -24.5t-120 -8.5q-123 0 -178 68t-55 186v656h-168z" />
<glyph unicode="u" horiz-adv-x="1214" d="M152 414v594h135v-551q0 -186 77.5 -271.5t206.5 -85.5q80 0 142.5 32t105.5 84t65.5 119.5t22.5 139.5v533h135v-1008h-110l-8 164h-4q-66 -92 -165.5 -141.5t-217.5 -49.5q-78 0 -148 27t-123 81t-83.5 137t-30.5 196z" />
<glyph unicode="v" horiz-adv-x="1107" d="M49 1008h154l196 -459q23 -53 46.5 -109.5t44 -107.5t37 -93t26.5 -67h4q8 25 25.5 67t38.5 93l43 106q23 57 45 111l196 459h154l-441 -1008h-129z" />
<glyph unicode="w" horiz-adv-x="1529" d="M59 1008h148l151 -512q25 -82 45.5 -163t32.5 -134h4q18 66 41 143.5t45 142.5l174 523h129l175 -523q23 -66 45 -143.5t43 -142.5h4q12 53 31.5 134t43.5 163l152 512h147l-307 -1008h-129l-192 580q-20 57 -39 122.5t-35 122.5h-4q-16 -57 -35.5 -122.5t-38.5 -122.5 l-194 -580h-129z" />
<glyph unicode="x" horiz-adv-x="1187" d="M80 0l436 508l-424 500h172l330 -406l330 406h172l-424 -500l436 -508h-180l-334 414l-334 -414h-180z" />
<glyph unicode="y" horiz-adv-x="1118" d="M49 1008h158l418 -842h4l293 842h147l-412 -1155q-29 -78 -58.5 -128.5t-63 -80t-72.5 -42t-86 -12.5q-41 0 -77 7.5t-69 17.5l23 123q35 -10 64.5 -15.5t60.5 -5.5q55 0 89 43t69 140l30 92z" />
<glyph unicode="z" horiz-adv-x="1001" d="M121 0v127l545 752v4h-523v125h695v-127l-547 -752v-4h569v-125h-739z" />
<glyph unicode="{" horiz-adv-x="641" d="M90 549v104h29q74 0 104.5 38t30.5 130v334q0 178 70.5 254t226.5 76v-103q-55 0 -89 -14t-53.5 -43t-25.5 -72t-6 -98v-264q0 -66 -2 -112t-11.5 -79.5t-29 -56t-53.5 -41.5v-4q35 -16 54 -38.5t28.5 -56.5t11.5 -81.5t2 -110.5v-264q0 -55 6 -98t25.5 -72t53.5 -43 t89 -14v-103q-156 0 -226.5 76t-70.5 254v332q0 92 -30.5 131t-104.5 39h-29z" />
<glyph unicode="|" horiz-adv-x="546" d="M213 -410v1895h121v-1895h-121z" />
<glyph unicode="}" horiz-adv-x="641" d="M90 -180q55 0 89 14t53.5 43t25.5 72t6 98v264q0 63 2 110.5t11.5 81.5t29 56.5t53.5 38.5v4q-35 18 -54 41t-28.5 56.5t-11.5 79.5t-2 112v264q0 55 -6 98t-25.5 72t-53.5 43t-89 14v103q156 0 226.5 -76t70.5 -254v-334q0 -92 31 -130t106 -38h27v-104h-27 q-76 0 -106.5 -39t-30.5 -131v-332q0 -178 -70.5 -254t-226.5 -76v103z" />
<glyph unicode="~" horiz-adv-x="1136" d="M121 451q16 31 40.5 61.5t55.5 55t66.5 39t72.5 14.5q51 0 99.5 -17.5t94.5 -39t91 -39t88 -17.5q23 0 44.5 11t39.5 27.5t35 37.5l26 37l82 -64q-16 -31 -40.5 -61.5t-55.5 -54t-66.5 -39t-72.5 -15.5q-51 0 -99.5 17.5t-94.5 39t-91 39t-88 17.5q-23 0 -44 -11.5 t-39.5 -28t-35 -35.5t-26.5 -36z" />
<glyph unicode="&#xa1;" horiz-adv-x="462" d="M141 942q0 39 26 64.5t64 25.5q39 0 65 -25.5t26 -64.5t-26 -65.5t-65 -26.5t-64.5 26.5t-25.5 65.5zM156 -389h151l-26 1036h-99z" />
<glyph unicode="&#xa2;" d="M141 702q0 98 31 187.5t88 160t139 116.5t183 61v170h112v-166q102 -8 192.5 -52t155.5 -122l-98 -88q-47 59 -111.5 94t-138.5 43v-807q74 8 138.5 43t111.5 94l98 -90q-66 -78 -155.5 -121t-192.5 -51v-174h-112v178q-100 14 -182.5 60.5t-139.5 117t-88 159.5t-31 187 zM272 702q0 -74 20.5 -140t59.5 -119.5t97.5 -90.5t132.5 -49v799q-74 -12 -132.5 -49t-97.5 -90.5t-59.5 -120t-20.5 -140.5z" />
<glyph unicode="&#xa3;" d="M96 0v94l191 17v538h-189v115h189v139q0 98 23.5 183t72.5 147.5t126 99.5t183 37q104 0 198.5 -48t153.5 -138l-90 -88q-43 70 -109.5 111.5t-150.5 41.5q-76 0 -129 -28.5t-86 -76.5t-48 -110.5t-15 -130.5v-139h438v-115h-438v-532h671v-117h-991z" />
<glyph unicode="&#xa4;" horiz-adv-x="1224" d="M74 242l112 112q-53 68 -79.5 149t-26.5 167q0 98 33.5 188t99.5 162l-135 135l80 80l141 -139q66 47 143.5 71.5t159.5 24.5q176 0 316 -105l149 148l80 -80l-146 -145q59 -72 92 -159t33 -181q0 -82 -25.5 -161t-72.5 -144l123 -123l-80 -80l-119 119 q-72 -66 -162 -101t-188 -35q-92 0 -180 33t-160 94l-108 -110zM193 670q0 -86 32.5 -161t88 -130t130 -87t158.5 -32q86 0 161 32t130 87t88 130t33 161q0 84 -33 158.5t-88 130t-130 88t-161 32.5q-84 0 -158.5 -32.5t-130 -88t-88 -130t-32.5 -158.5z" />
<glyph unicode="&#xa5;" d="M45 1348h160l385 -570h4l385 570h160l-408 -584h375v-115h-449v-155h449v-113h-449v-381h-131v381h-448v113h448v155h-448v115h375z" />
<glyph unicode="&#xa6;" horiz-adv-x="546" d="M213 -283v656h121v-656h-121zM213 827v658h121v-658h-121z" />
<glyph unicode="&#xa7;" horiz-adv-x="1179" d="M141 651q0 88 43 155.5t121 108.5v5q-63 45 -99 104t-36 137q0 88 37 149.5t96 100.5t134 56.5t153 17.5q115 0 226.5 -36t205.5 -101l-72 -101q-78 55 -171 89t-189 34q-47 0 -100.5 -9t-97.5 -32.5t-72.5 -62.5t-28.5 -97q0 -59 31.5 -101t79 -69.5t101.5 -44 t101 -28.5q74 -18 150.5 -45t139 -71t103.5 -107.5t41 -151.5q0 -90 -42 -157.5t-122 -108.5v-4q63 -43 99.5 -103.5t36.5 -138.5q0 -88 -37 -149.5t-96.5 -100.5t-134 -56.5t-150.5 -17.5q-117 0 -228.5 36t-205.5 102l73 100q78 -55 171.5 -89t189.5 -34q47 0 99 9t96 33 t73 62.5t29 98.5q0 59 -32 100t-79 68.5t-102 44t-101 28.5q-74 18 -150.5 45t-139 71t-103.5 107.5t-41 153.5zM262 655q0 -90 54.5 -140t132 -81t161.5 -49t146 -43q72 23 117 75t45 130q0 88 -54.5 139t-131.5 82t-162 48.5t-146 41.5q-72 -23 -117 -74t-45 -129z" />
<glyph unicode="&#xa8;" horiz-adv-x="671" d="M96 1309q0 39 26 65.5t64 26.5q39 0 65 -27t26 -65q0 -39 -26 -66t-65 -27t-64.5 27t-25.5 66zM436 1309q0 39 26 65.5t64 26.5q39 0 65 -27t26 -65q0 -39 -26 -66t-65 -27t-64.5 27t-25.5 66z" />
<glyph unicode="&#xa9;" horiz-adv-x="1685" d="M100 600q0 154 58.5 290t159 236.5t236.5 158.5t290 58t289 -58t235 -158.5t158.5 -236.5t58.5 -290t-58.5 -289t-158.5 -235.5t-235.5 -158.5t-288.5 -58q-154 0 -290 58t-236.5 158.5t-159 235.5t-58.5 289zM184 600q0 -135 52.5 -256t141.5 -210t209 -141t257 -52 q135 0 256 52t210 141t141 210t52 256q0 137 -52 257t-141 209t-210 141.5t-256 52.5q-137 0 -257 -52.5t-209 -141.5t-141.5 -209t-52.5 -257zM438 600q0 88 31 166t86 135t131 90t166 33q92 0 175 -36t142 -105l-75 -68q-45 55 -107.5 84t-134.5 29q-70 0 -127 -25.5 t-99 -70t-64.5 -103.5t-22.5 -129q0 -68 22.5 -127t64.5 -103t99 -70t127 -26q72 0 136.5 30t107.5 85l78 -65q-59 -72 -144.5 -109t-177.5 -37q-90 0 -166 33t-131 90t-86 134t-31 165z" />
<glyph unicode="&#xaa;" horiz-adv-x="823" d="M100 893q0 66 25 112t65.5 74.5t95 42t113.5 13.5q53 0 108.5 -6.5t108.5 -14.5q0 106 -47 156.5t-157 50.5q-66 0 -126.5 -20.5t-113.5 -55.5l-51 88q68 33 140.5 54.5t148.5 21.5q143 0 223 -69.5t80 -217.5v-452h-80l-4 108h-6q-45 -63 -113 -95t-145 -32 q-111 0 -188 62.5t-77 179.5zM197 893q0 -39 15 -67.5t42 -47t60.5 -28t68.5 -9.5q98 0 165.5 61.5t67.5 164.5v59q-51 10 -101 16.5t-103 6.5q-39 0 -77 -7.5t-68.5 -26t-50 -48t-19.5 -74.5z" />
<glyph unicode="&#xab;" horiz-adv-x="876" d="M80 504l317 487l92 -49l-284 -438l284 -438l-92 -50zM367 504l317 487l92 -49l-284 -438l284 -438l-92 -50z" />
<glyph unicode="&#xac;" horiz-adv-x="1241" d="M100 719v125h1041v-574h-135v449h-906z" />
<glyph unicode="&#xad;" horiz-adv-x="702" d="M100 496v120h502v-120h-502z" />
<glyph unicode="&#xae;" horiz-adv-x="1685" d="M100 600q0 154 58.5 290t159 236.5t236.5 158.5t290 58t289 -58t235 -158.5t158.5 -236.5t58.5 -290t-58.5 -289t-158.5 -235.5t-235.5 -158.5t-288.5 -58q-154 0 -290 58t-236.5 158.5t-159 235.5t-58.5 289zM184 600q0 -135 52.5 -256t141.5 -210t209 -141t257 -52 q135 0 256 52t210 141t141 210t52 256q0 137 -52 257t-141 209t-210 141.5t-256 52.5q-137 0 -257 -52.5t-209 -141.5t-141.5 -209t-52.5 -257zM561 197v817h346q57 0 106.5 -15.5t86.5 -45t57.5 -75t20.5 -106.5q0 -84 -46.5 -143.5t-125.5 -81.5l204 -359h-118l-195 344 h-235v-335h-101zM662 629h245q72 0 121 32.5t49 110.5q0 80 -49 111.5t-121 31.5h-245v-286z" />
<glyph unicode="&#xaf;" horiz-adv-x="671" d="M59 1223v112h553v-112h-553z" />
<glyph unicode="&#xb0;" horiz-adv-x="821" d="M90 1104q0 68 24.5 126t67.5 101t102.5 66.5t127.5 23.5t126 -23.5t101 -66.5t67.5 -101.5t24.5 -125.5q0 -68 -24.5 -126t-67.5 -101t-101.5 -68t-125.5 -25q-68 0 -127.5 25t-102.5 68t-67.5 101t-24.5 126zM205 1104q0 -92 55.5 -151.5t151.5 -59.5q94 0 149 59.5 t55 151.5t-56 150.5t-148 58.5q-94 0 -150.5 -58.5t-56.5 -150.5z" />
<glyph unicode="&#xb1;" d="M137 0h910v121h-910v-121zM137 651v119h391v395h127v-395h392v-119h-392v-395h-127v395h-391z" />
<glyph unicode="&#xb2;" horiz-adv-x="724" d="M82 1493q16 102 88 165.5t188 63.5q129 0 199 -70.5t70 -170.5q0 -78 -47.5 -146.5t-114.5 -136.5l-207 -211v-4h363v-109h-533v101l285 293q66 66 101.5 114t35.5 101t-37 93t-115 40q-76 0 -112.5 -43t-46.5 -109z" />
<glyph unicode="&#xb3;" horiz-adv-x="757" d="M98 954l84 80q33 -31 82 -49t105 -18q86 0 128 36.5t42 102.5q0 63 -43 101t-142 38h-94v109h94q88 0 131 38t43 97q0 55 -38.5 90t-124.5 35q-53 0 -96.5 -16.5t-82.5 -47.5l-84 84q55 41 120 64.5t145 23.5q139 0 208.5 -65.5t69.5 -163.5q0 -59 -29.5 -107.5 t-83.5 -76.5v-4q66 -33 96.5 -87.5t30.5 -113.5q0 -111 -75.5 -178.5t-210.5 -67.5q-84 0 -156 26.5t-119 69.5z" />
<glyph unicode="&#xb4;" horiz-adv-x="671" d="M227 1210l244 285l107 -76l-275 -262z" />
<glyph unicode="&#xb5;" horiz-adv-x="1214" d="M172 -410v1418h135v-551q0 -72 14.5 -136.5t47 -113.5t88 -78t135.5 -29q78 0 140.5 31t105.5 83t66.5 119.5t23.5 141.5v533h135v-1008h-111l-8 160h-4q-66 -92 -162 -139.5t-207 -47.5q-72 0 -140.5 27t-119.5 80h-4v-490h-135z" />
<glyph unicode="&#xb6;" horiz-adv-x="1171" d="M90 991q0 94 34 170t93 128t139 80t170 28h473v-1680h-122v1567h-164v-1567h-121v869h-66q-92 0 -171 27.5t-138 79.5t-93 128t-34 170z" />
<glyph unicode="&#xb7;" horiz-adv-x="421" d="M120 504q0 39 26 65.5t64 26.5q39 0 65 -27t26 -65q0 -39 -26 -66t-65 -27t-64.5 27t-25.5 66z" />
<glyph unicode="&#xb8;" horiz-adv-x="671" d="M127 -350l35 63q39 -23 83 -36t89 -13t77.5 20.5t32.5 67.5t-36.5 65.5t-77.5 18.5t-72 -8l-57 33l78 139h96l-56 -100q17 2 33 2q23 0 45 -4q43 -4 80 -21.5t60.5 -48.5t23.5 -76t-18.5 -75.5t-49 -50t-68.5 -28t-77 -8.5q-57 0 -114.5 15.5t-106.5 44.5z" />
<glyph unicode="&#xb9;" horiz-adv-x="571" d="M78 1616l241 98h89v-840h-117v715l-178 -73z" />
<glyph unicode="&#xba;" horiz-adv-x="913" d="M90 1030q0 82 28.5 151.5t78 121t116 79t144.5 27.5t144.5 -27.5t115.5 -79t77.5 -121t28.5 -151.5t-28.5 -151.5t-77.5 -119.5t-115.5 -78t-144.5 -28t-144.5 28t-116 78t-78 119.5t-28.5 151.5zM186 1030q0 -63 20.5 -115.5t57.5 -90.5t86.5 -58.5t106.5 -20.5 t107 20.5t86 58.5t56.5 90.5t20.5 115.5t-20.5 116.5t-56.5 91.5t-86 58.5t-107 20.5t-106.5 -20.5t-86.5 -58.5t-57.5 -91t-20.5 -117z" />
<glyph unicode="&#xbb;" horiz-adv-x="876" d="M100 66l285 438l-285 438l93 49l317 -487l-317 -488zM387 66l285 438l-285 438l93 49l317 -487l-317 -488z" />
<glyph unicode="&#xbc;" horiz-adv-x="1685" d="M109 1305l34 -101l179 74v-715h116v840h-88zM455 2l608 1434l98 -41l-610 -1434zM887 279l10 -107h401v-172h117v172h94v109h-94v553h-123zM1034 281v4l260 356h4v-360h-264z" />
<glyph unicode="&#xbd;" horiz-adv-x="1685" d="M109 1305l34 -101l179 74v-715h116v840h-88zM457 2l608 1434l96 -41l-608 -1434zM1032 618l117 -28q10 68 49 110.5t111 42.5q63 0 107 -33.5t44 -101.5q0 -31 -13 -60.5t-33.5 -57t-45.5 -52.5l-45 -45l-285 -291v-102h533v109h-363v4l207 211q27 27 55.5 59.5t52 68 t39 74.5t15.5 80q0 57 -21.5 103.5t-57.5 77t-85 47t-104 16.5q-111 0 -184.5 -61.5t-92.5 -170.5z" />
<glyph unicode="&#xbe;" horiz-adv-x="1685" d="M94 643q55 -49 129 -72.5t146 -23.5q57 0 109 14t92 45t62.5 77t22.5 110q0 66 -33.5 119t-93.5 81v4q53 29 83 77.5t30 107.5q0 61 -22.5 104t-61.5 70.5t-89 41t-106 13.5q-74 0 -139 -20.5t-125 -67.5l84 -82q82 63 178 64q61 0 112.5 -28t51.5 -97q0 -57 -27.5 -86 t-68.5 -40.5t-88 -11.5h-84v-108h88q49 0 91 -11.5t71 -41t29 -86.5q0 -76 -50.5 -108t-119.5 -32q-49 0 -99.5 16.5t-87.5 51.5zM526 2l609 1434l98 -41l-610 -1434zM958 279l9 -107h403v-172h115v172h96v109h-96v553h-121zM1104 281v4l262 356h4v-360h-266z" />
<glyph unicode="&#xbf;" horiz-adv-x="1138" d="M141 -78q0 63 23.5 115.5t59.5 98.5t81 86t88 79q43 37 66.5 76t35 81t14.5 89t3 100h125v-18q0 -68 -5 -120t-20.5 -98t-46 -89t-80.5 -93q-31 -31 -67.5 -64.5t-68.5 -70.5t-52.5 -80t-20.5 -92q0 -59 28 -100t71 -65.5t96 -36t102 -11.5q123 0 204 62.5t112 181.5 l129 -37q-43 -160 -161 -246t-284 -86q-78 0 -154.5 19.5t-138 60.5t-100.5 104.5t-39 153.5zM483 942q0 39 26 65.5t64 26.5q39 0 65 -26.5t26 -65.5t-26 -65.5t-65 -26.5t-64.5 26.5t-25.5 65.5z" />
<glyph unicode="&#xc0;" horiz-adv-x="1439" d="M39 0h158l161 373h723l162 -373h158l-615 1397h-131zM416 506q78 180 152.5 359.5t150.5 361.5h4q76 -182 150.5 -361.5t150.5 -359.5h-608zM463 1808l106 76l246 -285l-78 -53z" />
<glyph unicode="&#xc1;" horiz-adv-x="1439" d="M39 0h158l161 373h723l162 -373h158l-615 1397h-131zM416 506q78 180 152.5 359t150.5 362h4q76 -182 150.5 -361.5t150.5 -359.5h-608zM627 1599l243 285l107 -76l-275 -262z" />
<glyph unicode="&#xc2;" horiz-adv-x="1439" d="M39 0l616 1397h131l615 -1397h-158l-162 373h-723l-161 -373h-158zM416 506h608q-76 180 -150.5 359t-150.5 362h-4q-76 -183 -150.5 -362t-152.5 -359zM438 1583l217 254h131l217 -254l-78 -53l-204 211l-207 -211z" />
<glyph unicode="&#xc3;" horiz-adv-x="1439" d="M39 0l616 1397h131l615 -1397h-158l-162 373h-723l-161 -373h-158zM387 1597q29 59 78 103.5t111 44.5q43 0 79.5 -13.5t71.5 -31t67.5 -30.5t67.5 -13t61.5 24.5t45.5 61.5l82 -45q-29 -66 -77.5 -107t-109.5 -41q-45 0 -82 13.5t-70.5 31t-66.5 30.5t-67 13 q-35 0 -63 -26.5t-46 -61.5zM416 506h608q-76 180 -150.5 359t-150.5 362h-4q-76 -183 -150.5 -362t-152.5 -359z" />
<glyph unicode="&#xc4;" horiz-adv-x="1439" d="M39 0l616 1397h131l615 -1397h-158l-162 373h-723l-161 -373h-158zM416 506h608q-76 180 -150.5 359t-150.5 362h-4q-76 -183 -150.5 -362t-152.5 -359zM465 1698q0 39 26 65.5t64 26.5q39 0 65 -27t26 -65q0 -39 -26 -66t-65 -27t-64.5 27t-25.5 66zM805 1698 q0 39 26 65.5t64 26.5q39 0 65 -27t26 -65q0 -39 -26 -66t-65 -27t-64.5 27t-25.5 66z" />
<glyph unicode="&#xc5;" horiz-adv-x="1439" d="M39 0l616 1397h131l615 -1397h-158l-162 373h-723l-161 -373h-158zM416 506h608q-76 180 -150.5 359t-150.5 362h-4q-76 -183 -150.5 -362t-152.5 -359zM487 1749q0 98 67 160.5t167 62.5t166.5 -62.5t66.5 -160.5q0 -96 -66.5 -158.5t-166.5 -62.5t-167 62.5t-67 158.5z M569 1749q0 -61 42 -104.5t110 -43.5t109.5 43t41.5 105q0 66 -43 106.5t-108 40.5q-66 0 -109 -41t-43 -106z" />
<glyph unicode="&#xc6;" horiz-adv-x="2228" d="M29 0l1071 1397h968v-133h-755l22 -486h676v-133h-670l25 -512h721v-133h-854l-19 373h-725l-282 -373h-178zM594 506h614l-34 774h-5q-145 -195 -287.5 -386.5t-287.5 -383.5v-4z" />
<glyph unicode="&#xc7;" horiz-adv-x="1476" d="M117 698q0 154 52 286t146.5 229.5t224.5 152.5t285 55q156 0 297.5 -59t243.5 -180l-104 -95q-82 100 -196 151.5t-241 51.5t-231.5 -46t-180 -126t-116.5 -188.5t-41 -231.5t41 -231.5t116.5 -188t180 -126t231.5 -46.5q129 0 245 53.5t196 157.5l106 -92 q-98 -123 -237.5 -184t-294.5 -66l-39 -69v-6q14 2 30 2q23 0 50 -4q41 -6 76.5 -22.5t59 -47.5t23.5 -76t-18 -75.5t-48 -50t-68 -28t-77 -8.5q-57 0 -114.5 15.5t-106.5 44.5l35 63q39 -23 82 -36t90 -13q43 0 77 20.5t34 67.5t-38 65.5t-77 18.5q-41 0 -74 -8l-55 33 l66 116q-141 14 -258 76t-200 159t-128 221t-45 265zM745 4h39v-45h-39v45z" />
<glyph unicode="&#xc8;" horiz-adv-x="1222" d="M182 0h899v133h-759v512h684v133h-684v486h741v133h-881v-1397zM377 1808l106 76l244 -285l-76 -53z" />
<glyph unicode="&#xc9;" horiz-adv-x="1222" d="M182 0v1397h881v-133h-741v-486h684v-133h-684v-512h759v-133h-899zM530 1599l244 285l107 -76l-275 -262z" />
<glyph unicode="&#xca;" horiz-adv-x="1222" d="M182 0v1397h881v-133h-741v-486h684v-133h-684v-512h759v-133h-899zM350 1583l217 254h131l217 -254l-78 -53l-204 211l-207 -211z" />
<glyph unicode="&#xcb;" horiz-adv-x="1222" d="M182 0v1397h881v-133h-741v-486h684v-133h-684v-512h759v-133h-899zM366 1698q0 39 26 65.5t64 26.5q39 0 65 -27t26 -65q0 -39 -26 -66t-65 -27t-64.5 27t-25.5 66zM706 1698q0 39 26 65.5t64 26.5q39 0 65 -27t26 -65q0 -39 -26 -66t-65 -27t-64.5 27t-25.5 66z" />
<glyph unicode="&#xcc;" horiz-adv-x="503" d="M-10 1808l106 76l244 -285l-76 -53zM182 0h140v1397h-140v-1397z" />
<glyph unicode="&#xcd;" horiz-adv-x="503" d="M168 1599l244 285l106 -76l-274 -262zM182 0h140v1397h-140v-1397z" />
<glyph unicode="&#xce;" horiz-adv-x="503" d="M-31 1583l217 254h131l217 -254l-78 -53l-204 211l-207 -211zM182 0v1397h140v-1397h-140z" />
<glyph unicode="&#xcf;" horiz-adv-x="503" d="M-2 1698q0 39 26 65.5t64 26.5q39 0 65 -27t26 -65q0 -39 -26 -66t-65 -27t-64.5 27t-25.5 66zM182 0v1397h140v-1397h-140zM338 1698q0 39 26 65.5t64 26.5q39 0 65 -27t26 -65q0 -39 -26 -66t-65 -27t-64.5 27t-25.5 66z" />
<glyph unicode="&#xd0;" horiz-adv-x="1425" d="M35 639v119h147v639h422q162 0 292 -48.5t222 -139.5t141.5 -220t49.5 -291t-49.5 -290.5t-141.5 -220t-222 -139.5t-292 -48h-422v639h-147zM322 133h276q268 0 418.5 147.5t150.5 417.5t-150.5 418t-418.5 148h-276v-506h401v-119h-401v-506z" />
<glyph unicode="&#xd1;" horiz-adv-x="1470" d="M182 0v1397h131l836 -1159h4q0 39 -1 87t-2 98t-1 99v90v785h139v-1397h-133l-833 1159h-5q0 -41 1 -88t2.5 -97t1.5 -100v-90v-784h-140zM401 1597q29 59 78 103.5t111 44.5q43 0 79.5 -13.5t71.5 -31t67.5 -30.5t67.5 -13t61.5 24.5t45.5 61.5l82 -45 q-29 -66 -77.5 -107t-109.5 -41q-45 0 -82 13.5t-70.5 31t-66.5 30.5t-67 13q-35 0 -63 -26.5t-46 -61.5z" />
<glyph unicode="&#xd2;" horiz-adv-x="1648" d="M117 698q0 -154 52 -285.5t146.5 -229t224.5 -154t285 -56.5q154 0 284 56.5t224 154t146.5 229.5t52.5 285q0 154 -52.5 286t-146.5 229.5t-224 152.5t-284 55q-156 0 -285.5 -55t-224 -152.5t-146.5 -229.5t-52 -286zM256 698q0 123 41 231.5t116.5 188.5t180 126 t231.5 46q125 0 229.5 -46t180.5 -126t117 -188.5t41 -231.5t-41 -231.5t-117 -188t-180.5 -126t-229.5 -46.5q-127 0 -231.5 46.5t-180 126t-116.5 188t-41 231.5zM559 1808l107 76l245 -285l-77 -53z" />
<glyph unicode="&#xd3;" horiz-adv-x="1648" d="M117 698q0 -154 52 -285.5t146.5 -229t224.5 -154t283 -56.5q156 0 286 56.5t224 154t146.5 229.5t52.5 285q0 154 -52.5 286t-146.5 229.5t-224 152.5t-286 55q-154 0 -283.5 -55t-224 -152.5t-146.5 -229.5t-52 -286zM256 698q0 123 41 231.5t116.5 188.5t179 126 t230.5 46t231.5 -46t180.5 -126t117 -188.5t41 -231.5t-41 -231.5t-117 -188t-180.5 -126t-231.5 -46.5t-230.5 46.5t-179 126t-116.5 188t-41 231.5zM739 1599l244 285l107 -76l-275 -262z" />
<glyph unicode="&#xd4;" horiz-adv-x="1648" d="M117 698q0 152 52 284t146.5 229.5t224 153.5t285.5 56q154 0 284 -56t224 -153.5t146.5 -229.5t52.5 -284t-52.5 -283.5t-146.5 -230t-224 -155t-284 -56.5q-156 0 -285.5 56.5t-224 155t-146.5 230.5t-52 283zM256 698q0 -123 41 -231.5t116.5 -188t180 -126 t231.5 -46.5q125 0 229.5 46.5t180.5 126t117 188t41 231.5t-41 231.5t-117 188.5t-180.5 126t-229.5 46q-127 0 -231.5 -46t-180 -126t-116.5 -188.5t-41 -231.5zM541 1583l217 254h131l217 -254l-78 -53l-204 211l-207 -211z" />
<glyph unicode="&#xd5;" horiz-adv-x="1648" d="M117 698q0 152 52 284t146.5 229.5t224 153.5t285.5 56q154 0 284 -56t224 -153.5t146.5 -229.5t52.5 -284t-52.5 -283.5t-146.5 -230t-224 -155t-284 -56.5q-156 0 -285.5 56.5t-224 155t-146.5 230.5t-52 283zM256 698q0 -123 41 -231.5t116.5 -188t180 -126 t231.5 -46.5q125 0 229.5 46.5t180.5 126t117 188t41 231.5t-41 231.5t-117 188.5t-180.5 126t-229.5 46q-127 0 -231.5 -46t-180 -126t-116.5 -188.5t-41 -231.5zM491 1597q29 59 78 103.5t111 44.5q43 0 79.5 -13.5t71.5 -31t67.5 -30.5t67.5 -13t61.5 24.5t45.5 61.5 l82 -45q-29 -66 -77.5 -107t-109.5 -41q-45 0 -82 13.5t-70.5 31t-66.5 30.5t-67 13q-35 0 -63 -26.5t-46 -61.5z" />
<glyph unicode="&#xd6;" horiz-adv-x="1648" d="M117 698q0 152 52 284t146.5 229.5t224 153.5t285.5 56q154 0 284 -56t224 -153.5t146.5 -229.5t52.5 -284t-52.5 -283.5t-146.5 -230t-224 -155t-284 -56.5q-156 0 -285.5 56.5t-224 155t-146.5 230.5t-52 283zM256 698q0 -123 41 -231.5t116.5 -188t180 -126 t231.5 -46.5q125 0 229.5 46.5t180.5 126t117 188t41 231.5t-41 231.5t-117 188.5t-180.5 126t-229.5 46q-127 0 -231.5 -46t-180 -126t-116.5 -188.5t-41 -231.5zM569 1698q0 39 26 65.5t64 26.5q39 0 65 -27t26 -65q0 -39 -26 -66t-65 -27t-64.5 27t-25.5 66zM909 1698 q0 39 26 65.5t64 26.5q39 0 65 -27t26 -65q0 -39 -26 -66t-65 -27t-64.5 27t-25.5 66z" />
<glyph unicode="&#xd7;" d="M141 195l361 360l-361 363l88 90l363 -363l362 363l88 -90l-360 -363l360 -360l-88 -91l-362 363l-363 -363z" />
<glyph unicode="&#xd8;" horiz-adv-x="1648" d="M117 698q0 154 52 286t146.5 229.5t224.5 152.5t285 55q125 0 243 -41t216 -123l158 164l82 -78l-160 -165q86 -100 127 -224.5t41 -255.5q0 -154 -52.5 -285.5t-146.5 -229t-224 -154t-284 -56.5q-127 0 -244.5 41t-215.5 125l-158 -166l-82 80l160 166 q-86 100 -127 224t-41 255zM256 698q0 -104 29.5 -201.5t93.5 -179.5l811 844q-78 66 -171 97.5t-194 31.5q-127 0 -231.5 -46t-180 -126t-116.5 -188.5t-41 -231.5zM459 236q78 -66 171 -98t195 -32q125 0 229.5 46.5t180.5 126t117 188t41 231.5q0 104 -30 201.5 t-93 179.5z" />
<glyph unicode="&#xd9;" horiz-adv-x="1396" d="M162 512v885h139v-877q0 -188 102.5 -301t294.5 -113q193 0 295.5 113t102.5 301v877h139v-885q0 -125 -38 -224.5t-107.5 -169t-169 -107.5t-222.5 -38t-222 38t-168.5 107.5t-107.5 169t-38 224.5zM463 1808l106 76l246 -285l-78 -53z" />
<glyph unicode="&#xda;" horiz-adv-x="1396" d="M162 512v885h139v-877q0 -188 102.5 -301t294.5 -113q193 0 295.5 113t102.5 301v877h139v-885q0 -125 -38 -224.5t-107.5 -169t-169 -107.5t-222.5 -38t-222 38t-168.5 107.5t-107.5 169t-38 224.5zM583 1599l244 285l107 -76l-275 -262z" />
<glyph unicode="&#xdb;" horiz-adv-x="1396" d="M162 512q0 -125 38 -224.5t107.5 -169t168.5 -107.5t222 -38t222.5 38t169 107.5t107.5 169t38 224.5v885h-139v-877q0 -188 -102.5 -301t-295.5 -113t-295 113t-102 301v877h-139v-885zM416 1583l219 254h129l217 -254l-76 -53l-207 211l-204 -211z" />
<glyph unicode="&#xdc;" horiz-adv-x="1396" d="M162 512q0 -125 38 -224.5t107.5 -169t168.5 -107.5t222 -38t222.5 38t169 107.5t107.5 169t38 224.5v885h-139v-877q0 -188 -102.5 -301t-295.5 -113t-295 113t-102 301v877h-139v-885zM444 1698q0 35 23.5 60.5t60.5 25.5q39 0 62.5 -25.5t23.5 -60.5t-23.5 -59.5 t-62.5 -24.5q-37 0 -60.5 24.5t-23.5 59.5zM784 1698q0 39 26 65.5t64 26.5q39 0 65 -26.5t26 -65.5t-26 -65.5t-65 -26.5t-64.5 26.5t-25.5 65.5z" />
<glyph unicode="&#xdd;" horiz-adv-x="1353" d="M49 1397l559 -779v-618h140v618l557 779h-170l-455 -647h-4l-455 647h-172zM541 1599l245 285l107 -76l-275 -262z" />
<glyph unicode="&#xde;" horiz-adv-x="1308" d="M182 0v1397h140v-283h421q111 0 196 -30.5t142.5 -86t87 -131.5t29.5 -168t-31.5 -167.5t-91 -131t-144.5 -86t-190 -30.5h-419v-283h-140zM322 416h419q160 0 238 76.5t78 205.5t-78 206t-238 77h-419v-565z" />
<glyph unicode="&#xdf;" horiz-adv-x="1243" d="M182 0v1092q0 94 29 171.5t83 132t131 84t173 29.5q80 0 155.5 -22.5t134 -67.5t94.5 -110.5t36 -153.5q0 -92 -47 -171t-129 -120v-4q70 -20 124 -60t91 -93.5t56.5 -118.5t19.5 -135q0 -106 -31 -194.5t-89.5 -151t-143.5 -97.5t-193 -35q-55 0 -110.5 5.5t-108.5 19.5 l35 127q37 -12 84 -18.5t86 -6.5q162 0 248.5 96.5t86.5 256.5q0 80 -27.5 141t-75.5 103t-113.5 63.5t-141.5 21.5h-100v129h98q49 0 93 17.5t78 49.5t54.5 75t20.5 92q0 61 -24.5 105t-64.5 73t-91.5 42t-106.5 13q-135 0 -207 -78.5t-72 -209.5v-1092h-135z" />
<glyph unicode="&#xe0;" horiz-adv-x="1118" d="M111 311q0 -82 28.5 -144.5t78.5 -105.5t116.5 -65.5t144.5 -22.5q111 0 207 46.5t158 138.5h4l8 -158h111v633q0 205 -112.5 303t-311.5 98q-106 0 -206.5 -30.5t-195.5 -77.5l68 -121q76 47 161 74.5t175 27.5q129 0 207.5 -59.5t78.5 -194.5v-32q-76 10 -151.5 18 t-151.5 8q-82 0 -157.5 -18.5t-133 -58.5t-92 -103.5t-34.5 -155.5zM246 311q0 63 26.5 105.5t69.5 67t96.5 34.5t106.5 10q72 0 143.5 -8t142.5 -22v-86q0 -72 -24.5 -129.5t-68.5 -98.5t-103 -63.5t-129 -22.5q-49 0 -96.5 12.5t-83 39t-58 66.5t-22.5 95zM291 1419 l106 76l246 -285l-78 -53z" />
<glyph unicode="&#xe1;" horiz-adv-x="1118" d="M111 311q0 92 33.5 155.5t92 103.5t133 58.5t158.5 18.5q76 0 152 -8t151 -18v32q0 135 -78.5 194.5t-207.5 59.5q-90 0 -175 -27.5t-161 -74.5l-68 121q94 47 195 77.5t207 30.5q201 0 312.5 -98t111.5 -303v-633h-111l-8 158h-4q-61 -94 -157.5 -139.5t-207.5 -45.5 q-78 0 -144.5 22.5t-116.5 65.5t-78.5 105.5t-28.5 144.5zM246 311q0 -55 22.5 -95t58 -66.5t83 -39t96.5 -12.5q70 0 129 22.5t103 63.5t68.5 98.5t24.5 129.5v86q-72 14 -143.5 22t-142.5 8q-53 0 -106.5 -10t-96.5 -34.5t-69.5 -66.5t-26.5 -106zM460 1210l244 285 l107 -76l-275 -262z" />
<glyph unicode="&#xe2;" horiz-adv-x="1118" d="M111 311q0 92 33.5 155.5t92 103.5t133 58.5t158.5 18.5q76 0 152 -8t151 -18v32q0 135 -78.5 194.5t-207.5 59.5q-90 0 -175 -27.5t-161 -74.5l-68 121q94 47 195 77.5t207 30.5q201 0 312.5 -98t111.5 -303v-633h-111l-8 158h-4q-61 -94 -157.5 -139.5t-207.5 -45.5 q-78 0 -144.5 22.5t-116.5 65.5t-78.5 105.5t-28.5 144.5zM246 311q0 -55 22.5 -95t58 -66.5t83 -39t96.5 -12.5q70 0 129 22.5t103 63.5t68.5 98.5t24.5 129.5v86q-72 14 -143.5 22t-142.5 8q-53 0 -106.5 -10t-96.5 -34.5t-69.5 -66.5t-26.5 -106zM270 1194l217 254h131 l217 -254l-78 -53l-204 211l-207 -211z" />
<glyph unicode="&#xe3;" horiz-adv-x="1118" d="M111 311q0 92 33.5 155.5t92 103.5t133 58.5t158.5 18.5q76 0 152 -8t151 -18v32q0 135 -78.5 194.5t-207.5 59.5q-90 0 -175 -27.5t-161 -74.5l-68 121q94 47 195 77.5t207 30.5q201 0 312.5 -98t111.5 -303v-633h-111l-8 158h-4q-61 -94 -157.5 -139.5t-207.5 -45.5 q-78 0 -144.5 22.5t-116.5 65.5t-78.5 105.5t-28.5 144.5zM211 1208q29 59 78 103.5t111 44.5q43 0 79.5 -13.5t71.5 -31t67.5 -30.5t67.5 -13t61.5 24.5t45.5 61.5l82 -45q-29 -66 -77.5 -107t-109.5 -41q-45 0 -82 13.5t-70.5 31t-66.5 30.5t-67 13q-35 0 -63 -26.5 t-46 -61.5zM246 311q0 -55 22.5 -95t58 -66.5t83 -39t96.5 -12.5q70 0 129 22.5t103 63.5t68.5 98.5t24.5 129.5v86q-72 14 -143.5 22t-142.5 8q-53 0 -106.5 -10t-96.5 -34.5t-69.5 -66.5t-26.5 -106z" />
<glyph unicode="&#xe4;" horiz-adv-x="1118" d="M111 311q0 92 33.5 155.5t92 103.5t133 58.5t158.5 18.5q76 0 152 -8t151 -18v32q0 135 -78.5 194.5t-207.5 59.5q-90 0 -175 -27.5t-161 -74.5l-68 121q94 47 195 77.5t207 30.5q201 0 312.5 -98t111.5 -303v-633h-111l-8 158h-4q-61 -94 -157.5 -139.5t-207.5 -45.5 q-78 0 -144.5 22.5t-116.5 65.5t-78.5 105.5t-28.5 144.5zM246 311q0 -55 22.5 -95t58 -66.5t83 -39t96.5 -12.5q70 0 129 22.5t103 63.5t68.5 98.5t24.5 129.5v86q-72 14 -143.5 22t-142.5 8q-53 0 -106.5 -10t-96.5 -34.5t-69.5 -66.5t-26.5 -106zM297 1309q0 39 26 65.5 t64 26.5q39 0 65 -27t26 -65q0 -39 -26 -66t-65 -27t-64.5 27t-25.5 66zM637 1309q0 39 26 65.5t64 26.5q39 0 65 -27t26 -65q0 -39 -26 -66t-65 -27t-64.5 27t-25.5 66z" />
<glyph unicode="&#xe5;" horiz-adv-x="1118" d="M111 311q0 92 33.5 155.5t92 103.5t133 58.5t158.5 18.5q76 0 152 -8t151 -18v32q0 135 -78.5 194.5t-207.5 59.5q-90 0 -175 -27.5t-161 -74.5l-68 121q94 47 195 77.5t207 30.5q201 0 312.5 -98t111.5 -303v-633h-111l-8 158h-4q-61 -94 -157.5 -139.5t-207.5 -45.5 q-78 0 -144.5 22.5t-116.5 65.5t-78.5 105.5t-28.5 144.5zM246 311q0 -55 22.5 -95t58 -66.5t83 -39t96.5 -12.5q70 0 129 22.5t103 63.5t68.5 98.5t24.5 129.5v86q-72 14 -143.5 22t-142.5 8q-53 0 -106.5 -10t-96.5 -34.5t-69.5 -66.5t-26.5 -106zM319 1362q0 49 18.5 91 t50.5 70.5t74 45t91 16.5t91 -16.5t74 -45t50 -70.5t18 -91t-18 -90t-50 -69.5t-74 -45t-91 -16.5t-91 16.5t-74 45t-50.5 69.5t-18.5 90zM401 1362q0 -66 43 -107t109 -41t109 41t43 107t-43.5 106.5t-108.5 40.5q-66 0 -109 -41t-43 -106z" />
<glyph unicode="&#xe6;" horiz-adv-x="1894" d="M111 311q0 92 33.5 156.5t92 104.5t133 58.5t158.5 18.5q76 0 152 -9t151 -19v32q0 135 -78.5 195.5t-207.5 60.5q-90 0 -175 -28.5t-161 -75.5l-68 121q94 47 194.5 77.5t207.5 30.5q59 0 116.5 -10t108.5 -33.5t91 -62.5t67 -99h4q66 100 166 151.5t219 51.5 q109 0 194.5 -37t146 -101.5t92.5 -153.5t32 -195v-47q0 -25 -2 -47h-807q8 -74 36.5 -138.5t75.5 -110.5t110.5 -73t141.5 -27q39 0 83 10.5t85 29t77 45t60 57.5l97 -92q-78 -88 -185.5 -133.5t-224.5 -45.5q-129 0 -236.5 58.5t-172.5 169.5h-5q-33 -57 -81 -100.5 t-104 -71t-119.5 -42t-129.5 -14.5q-78 0 -144.5 22.5t-116.5 65.5t-78.5 105.5t-28.5 144.5zM246 311q0 -55 22.5 -95t58 -66.5t83 -39t96.5 -12.5q70 0 129 22.5t103 63.5t68.5 99.5t24.5 130.5v84q-72 14 -143.5 23t-142.5 9q-53 0 -106.5 -10t-96.5 -35.5t-69.5 -67.5 t-26.5 -106zM971 573h671q-4 72 -27.5 132.5t-64.5 105.5t-99 69.5t-134 24.5t-136.5 -24.5t-104.5 -68.5t-70.5 -104.5t-34.5 -134.5z" />
<glyph unicode="&#xe7;" horiz-adv-x="1112" d="M111 504q0 111 37.5 207t105.5 167.5t162 112.5t207 41q111 0 214 -43t175 -129l-99 -92q-55 66 -129.5 100.5t-160.5 34.5t-156 -30.5t-119 -85t-75.5 -127t-26.5 -156.5t26.5 -157t75.5 -127t119 -85t156 -31q180 0 292 138l97 -90q-72 -84 -165 -128t-204 -49l-39 -69 v-6q15 2 31 2q23 0 49 -4q41 -6 76 -22.5t58.5 -47.5t23.5 -76t-18.5 -75.5t-48.5 -50t-67.5 -28t-76.5 -8.5q-57 0 -114.5 15.5t-106.5 44.5l34 63q39 -23 83 -36t89 -13q43 0 77 20.5t34 67.5t-37 65.5t-78 18.5t-71 -8l-58 33l64 114v5q-100 14 -181 60t-137.5 116.5 t-87 160t-30.5 187.5z" />
<glyph unicode="&#xe8;" horiz-adv-x="1173" d="M111 504q0 -109 34.5 -205t99 -169t157 -115t204.5 -42q117 0 224.5 45t185.5 134l-96 92q-53 -63 -138.5 -102.5t-167.5 -39.5q-78 0 -141 27t-111.5 73t-77 110.5t-36.5 138.5h807q2 23 3 47t1 47q0 106 -32 195t-92.5 153.5t-146.5 101.5t-194 37q-113 0 -203 -42 t-152.5 -114.5t-95 -169t-32.5 -202.5zM250 573q8 74 33.5 134.5t69.5 104.5t104.5 68.5t138.5 24.5q76 0 134 -24.5t99 -69.5t63.5 -105.5t29.5 -132.5h-672zM354 1419l107 76l246 -285l-78 -53z" />
<glyph unicode="&#xe9;" horiz-adv-x="1173" d="M111 504q0 106 32.5 202.5t95 169t152.5 114.5t203 42q109 0 194.5 -37t146 -101.5t92.5 -153.5t32 -195q0 -23 -1 -47.5t-3 -46.5h-807q8 -74 36.5 -138.5t77 -110.5t112 -73t140.5 -27q82 0 167 39t139 103l96 -92q-78 -88 -185.5 -133.5t-224.5 -45.5q-113 0 -205 42 t-156.5 115t-99 169t-34.5 205zM250 573h672q-6 72 -29 132.5t-64 105.5t-99 69.5t-134 24.5q-78 0 -138.5 -24.5t-104.5 -68.5t-69.5 -104.5t-33.5 -134.5zM485 1210l244 285l107 -76l-275 -262z" />
<glyph unicode="&#xea;" horiz-adv-x="1173" d="M111 504q0 106 32.5 202.5t95 169t152.5 114.5t203 42q109 0 194.5 -37t146 -101.5t92.5 -153.5t32 -195q0 -23 -1 -47.5t-3 -46.5h-807q8 -74 36.5 -138.5t77 -110.5t112 -73t140.5 -27q82 0 167 39t139 103l96 -92q-78 -88 -185.5 -133.5t-224.5 -45.5q-113 0 -205 42 t-156.5 115t-99 169t-34.5 205zM250 573h672q-6 72 -29 132.5t-64 105.5t-99 69.5t-134 24.5q-78 0 -138.5 -24.5t-104.5 -68.5t-69.5 -104.5t-33.5 -134.5zM313 1194l217 254h131l217 -254l-78 -53l-204 211l-207 -211z" />
<glyph unicode="&#xeb;" horiz-adv-x="1173" d="M111 504q0 106 32.5 202.5t95 169t152.5 114.5t203 42q109 0 194.5 -37t146 -101.5t92.5 -153.5t32 -195q0 -23 -1 -47.5t-3 -46.5h-807q8 -74 36.5 -138.5t77 -110.5t112 -73t140.5 -27q82 0 167 39t139 103l96 -92q-78 -88 -185.5 -133.5t-224.5 -45.5q-113 0 -205 42 t-156.5 115t-99 169t-34.5 205zM250 573h672q-6 72 -29 132.5t-64 105.5t-99 69.5t-134 24.5q-78 0 -138.5 -24.5t-104.5 -68.5t-69.5 -104.5t-33.5 -134.5zM348 1309q0 39 26 65.5t64 26.5q39 0 65 -27t26 -65q0 -39 -26 -66t-65 -27t-64.5 27t-25.5 66zM688 1309 q0 39 26 65.5t64 26.5q39 0 65 -27t26 -65q0 -39 -26 -66t-65 -27t-64.5 27t-25.5 66z" />
<glyph unicode="&#xec;" horiz-adv-x="481" d="M-25 1419l107 76l244 -285l-76 -53zM172 0h135v1008h-135v-1008z" />
<glyph unicode="&#xed;" horiz-adv-x="481" d="M161 1210l244 285l107 -76l-275 -262zM172 0v1008h135v-1008h-135z" />
<glyph unicode="&#xee;" horiz-adv-x="481" d="M-43 1194l217 254h131l217 -254l-78 -53l-204 211l-207 -211zM172 0v1008h135v-1008h-135z" />
<glyph unicode="&#xef;" horiz-adv-x="481" d="M-15 1309q0 39 26 65.5t64 26.5q39 0 65 -27t26 -65q0 -39 -26 -66t-65 -27t-64.5 27t-25.5 66zM172 0v1008h135v-1008h-135zM325 1309q0 39 26 65.5t64 26.5q39 0 65 -27t26 -65q0 -39 -26 -66t-65 -27t-64.5 27t-25.5 66z" />
<glyph unicode="&#xf0;" horiz-adv-x="1247" d="M111 504q0 115 38.5 212t106.5 167.5t160 109.5t198 39q80 0 153 -22.5t132 -63.5h4q-41 68 -94 132.5t-117 127.5l-315 -127l-37 92l270 111q-39 35 -80 67.5t-88 65.5l113 94q106 -80 197 -172l194 78l37 -92l-160 -66q156 -180 235 -373.5t79 -379.5q0 -115 -40 -212 t-108.5 -168t-163 -111t-202.5 -40q-109 0 -202 40t-162 111t-108.5 168t-39.5 212zM246 504q0 -90 28.5 -163t78.5 -126t120 -82t150 -29q82 0 150.5 29t119.5 82t79.5 126t28.5 163q0 88 -28.5 161.5t-79.5 127t-119.5 82t-150.5 28.5q-80 0 -150 -28.5t-120 -82 t-78.5 -127t-28.5 -161.5z" />
<glyph unicode="&#xf1;" horiz-adv-x="1214" d="M172 0v1008h111l8 -164h4q66 96 167 142t216 46q96 0 169 -34.5t121 -94t71.5 -139.5t23.5 -170v-594h-135v551q0 72 -14.5 136.5t-48.5 112.5t-88 76.5t-134 28.5t-142.5 -30.5t-105.5 -82t-65.5 -119t-22.5 -141.5v-532h-135zM297 1208q29 59 78 103.5t110 44.5 q43 0 80 -13.5t72 -31t67.5 -30.5t67.5 -13t61.5 24.5t45.5 61.5l82 -45q-29 -66 -77.5 -107t-109.5 -41q-45 0 -82 13.5t-70.5 31t-66.5 30.5t-68 13t-62.5 -26.5t-45.5 -61.5z" />
<glyph unicode="&#xf2;" horiz-adv-x="1247" d="M111 504q0 -111 37.5 -207t105.5 -168t162 -113t207 -41t207 41t162.5 113t106.5 168t38 207t-38 207t-106.5 167.5t-162.5 112.5t-207 41t-207 -41t-162 -112.5t-105.5 -168t-37.5 -206.5zM246 504q0 84 26.5 156.5t75.5 127t119 85t156 30.5t156.5 -30.5t119.5 -85 t75.5 -127t26.5 -156.5t-26.5 -157t-75.5 -127t-119.5 -85t-156.5 -31t-156 31t-119 85t-75.5 127t-26.5 157zM360 1419l107 76l246 -285l-78 -53z" />
<glyph unicode="&#xf3;" horiz-adv-x="1247" d="M111 504q0 -111 37.5 -207t105.5 -168t162 -113t207 -41t207 41t162.5 113t106.5 168t38 207t-38 207t-106.5 167.5t-162.5 112.5t-207 41t-207 -41t-162 -112.5t-105.5 -168t-37.5 -206.5zM246 504q0 84 26.5 156.5t75.5 127t119 85t156 30.5t156.5 -30.5t119.5 -85 t75.5 -127t26.5 -156.5t-26.5 -157t-75.5 -127t-119.5 -85t-156.5 -31t-156 31t-119 85t-75.5 127t-26.5 157zM535 1210l243 285l107 -76l-275 -262z" />
<glyph unicode="&#xf4;" horiz-adv-x="1247" d="M111 504q0 111 37.5 207t105.5 167.5t162 112.5t207 41t207 -41t162.5 -112.5t106.5 -168t38 -206.5q0 -111 -38 -207t-106.5 -168t-163 -113t-206.5 -41q-113 0 -207 41t-162 113t-105.5 168t-37.5 207zM246 504q0 -84 26.5 -157t75.5 -127t119 -85t156 -31t156.5 31 t119.5 85t75.5 127t26.5 157t-26.5 156.5t-75.5 127t-119.5 85t-156.5 30.5t-156 -30.5t-119 -85t-75.5 -127t-26.5 -156.5zM340 1194l217 254h131l217 -254l-78 -53l-204 211l-207 -211z" />
<glyph unicode="&#xf5;" horiz-adv-x="1247" d="M111 504q0 111 37.5 207t105.5 167.5t162 112.5t207 41t207 -41t162.5 -112.5t106.5 -168t38 -206.5q0 -111 -38 -207t-106.5 -168t-163 -113t-206.5 -41q-113 0 -207 41t-162 113t-105.5 168t-37.5 207zM246 504q0 -84 26.5 -157t75.5 -127t119 -85t156 -31t156.5 31 t119.5 85t75.5 127t26.5 157t-26.5 156.5t-75.5 127t-119.5 85t-156.5 30.5t-156 -30.5t-119 -85t-75.5 -127t-26.5 -156.5zM291 1208q29 59 78 103.5t111 44.5q43 0 79.5 -13.5t71.5 -31t67.5 -30.5t67.5 -13t61.5 24.5t45.5 61.5l82 -45q-29 -66 -77.5 -107t-109.5 -41 q-45 0 -82 13.5t-70.5 31t-66.5 30.5t-67 13q-35 0 -63 -26.5t-46 -61.5z" />
<glyph unicode="&#xf6;" horiz-adv-x="1247" d="M111 504q0 111 37.5 207t105.5 167.5t162 112.5t207 41t207 -41t162.5 -112.5t106.5 -168t38 -206.5q0 -111 -38 -207t-106.5 -168t-163 -113t-206.5 -41q-113 0 -207 41t-162 113t-105.5 168t-37.5 207zM246 504q0 -84 26.5 -157t75.5 -127t119 -85t156 -31t156.5 31 t119.5 85t75.5 127t26.5 157t-26.5 156.5t-75.5 127t-119.5 85t-156.5 30.5t-156 -30.5t-119 -85t-75.5 -127t-26.5 -156.5zM368 1309q0 39 26 65.5t64 26.5q39 0 65 -27t26 -65q0 -39 -26 -66t-65 -27t-64.5 27t-25.5 66zM708 1309q0 39 26 65.5t64 26.5q39 0 65 -27 t26 -65q0 -39 -26 -66t-65 -27t-64.5 27t-25.5 66z" />
<glyph unicode="&#xf7;" d="M137 496h910v120h-910v-120zM508 125q0 -35 23.5 -59.5t60.5 -24.5t60.5 24.5t23.5 59.5q0 37 -23.5 61.5t-60.5 24.5t-60.5 -24.5t-23.5 -61.5zM508 985q0 37 23.5 61.5t60.5 24.5t60.5 -24.5t23.5 -61.5q0 -35 -23.5 -59.5t-60.5 -24.5t-60.5 24.5t-23.5 59.5z" />
<glyph unicode="&#xf8;" horiz-adv-x="1247" d="M111 504q0 115 39.5 212t108.5 167.5t162 109.5t202 39q94 0 177 -29.5t148 -82.5l107 114l73 -69l-108 -117q55 -68 86 -155t31 -189q0 -115 -40 -212t-108.5 -168t-163 -111t-202.5 -40q-92 0 -175 31t-149 84l-106 -115l-74 70l108 117q-55 68 -85.5 154.5 t-30.5 189.5zM246 504q0 -145 73 -248l539 569q-96 78 -235 78q-80 0 -150 -28.5t-120 -82t-78.5 -127t-28.5 -161.5zM389 182q97 -78 234 -78q82 0 150.5 29t119.5 82t79.5 126t28.5 163q0 145 -73 248z" />
<glyph unicode="&#xf9;" horiz-adv-x="1214" d="M152 414q0 -90 23.5 -171t71.5 -140.5t120.5 -94.5t169.5 -35q115 0 216 47.5t167 143.5h4l8 -164h110v1008h-135v-533q0 -74 -23.5 -141.5t-66.5 -119.5t-105.5 -83t-140.5 -31q-80 0 -134 29t-88 78t-48 113.5t-14 136.5v551h-135v-594zM330 1419l106 76l244 -285 l-76 -53z" />
<glyph unicode="&#xfa;" horiz-adv-x="1214" d="M152 414v594h135v-551q0 -72 14 -136.5t48 -113.5t88.5 -78t133.5 -29q78 0 140.5 31t105.5 83t66.5 119.5t23.5 141.5v533h135v-1008h-110l-8 164h-4q-66 -96 -167.5 -143.5t-215.5 -47.5q-96 0 -169 35t-121 94.5t-71.5 140.5t-23.5 171zM524 1210l244 285l106 -76 l-274 -262z" />
<glyph unicode="&#xfb;" horiz-adv-x="1214" d="M152 414v594h135v-551q0 -72 14 -136.5t48 -113.5t88.5 -78t133.5 -29q78 0 140.5 31t105.5 83t66.5 119.5t23.5 141.5v533h135v-1008h-110l-8 164h-4q-66 -96 -167.5 -143.5t-215.5 -47.5q-96 0 -169 35t-121 94.5t-71.5 140.5t-23.5 171zM313 1194l217 254h132 l217 -254l-78 -53l-205 211l-207 -211z" />
<glyph unicode="&#xfc;" horiz-adv-x="1214" d="M152 414v594h135v-551q0 -72 14 -136.5t48 -113.5t88.5 -78t133.5 -29q78 0 140.5 31t105.5 83t66.5 119.5t23.5 141.5v533h135v-1008h-110l-8 164h-4q-66 -96 -167.5 -143.5t-215.5 -47.5q-96 0 -169 35t-121 94.5t-71.5 140.5t-23.5 171zM332 1309q0 39 25.5 65.5 t64.5 26.5t64.5 -26.5t25.5 -65.5t-25.5 -65.5t-64.5 -26.5t-64.5 26.5t-25.5 65.5zM672 1309q0 39 25.5 65.5t64.5 26.5t64.5 -26.5t25.5 -65.5t-25.5 -65.5t-64.5 -26.5t-64.5 26.5t-25.5 65.5z" />
<glyph unicode="&#xfd;" horiz-adv-x="1118" d="M49 1008h158l418 -842h4l293 842h147l-412 -1155q-18 -53 -41.5 -100.5t-55.5 -83.5t-77 -57.5t-106 -21.5q-37 0 -74 7.5t-72 17.5l23 123q31 -10 61.5 -15.5t63.5 -5.5q45 0 75.5 31t52 74t36 90t24.5 80zM485 1210l244 285l107 -76l-275 -262z" />
<glyph unicode="&#xfe;" horiz-adv-x="1306" d="M172 -410v1895h135v-633h4q68 86 167 134t218 48q104 0 195.5 -40t159 -110.5t106.5 -168t39 -211.5q0 -115 -39 -212t-106.5 -168t-158.5 -110t-196 -39q-119 0 -218 47.5t-167 133.5h-4v-566h-135zM305 504q0 -90 28.5 -163t79 -126t120 -82t151.5 -29q80 0 149.5 29 t120 82t79 126t28.5 163q0 88 -28.5 162.5t-79 127t-120 82t-149.5 29.5q-82 0 -151.5 -29.5t-120 -82t-79 -127t-28.5 -162.5z" />
<glyph unicode="&#xff;" horiz-adv-x="1118" d="M49 1008h158l418 -842h4l293 842h147l-412 -1155q-18 -53 -41.5 -100.5t-55.5 -83.5t-77 -57.5t-106 -21.5q-37 0 -74 7.5t-72 17.5l23 123q31 -10 61.5 -15.5t63.5 -5.5q45 0 75.5 31t52 74t36 90t24.5 80zM309 1309q0 39 25.5 65.5t64.5 26.5t64.5 -26.5t25.5 -65.5 t-25.5 -65.5t-64.5 -26.5t-64.5 26.5t-25.5 65.5zM649 1309q0 39 25.5 65.5t64.5 26.5t64.5 -26.5t25.5 -65.5t-25.5 -65.5t-64.5 -26.5t-64.5 26.5t-25.5 65.5z" />
<glyph unicode="&#x152;" horiz-adv-x="2498" d="M182 698q0 154 52.5 286t146.5 229.5t224 152.5t286 55q166 0 314.5 -69.5t248.5 -204.5h4v250h881v-133h-742v-486h684v-133h-684v-512h760v-133h-899v250h-4q-100 -135 -248.5 -206t-314.5 -71q-156 0 -286 56.5t-224 154t-146.5 229.5t-52.5 285zM322 698 q0 -123 40.5 -231.5t116.5 -188t180.5 -126t231.5 -46.5q125 0 229.5 46.5t180 126t116.5 188t41 231.5t-41 231.5t-116.5 188.5t-180 126t-229.5 46q-127 0 -231.5 -46t-180.5 -126t-116.5 -188.5t-40.5 -231.5z" />
<glyph unicode="&#x153;" horiz-adv-x="2064" d="M111 504q0 111 37.5 207t105.5 167.5t162 112.5t207 41q139 0 254.5 -63.5t185.5 -184.5h4q63 121 173 185.5t245 64.5q109 0 194.5 -36.5t146 -102.5t92.5 -155t32 -195q0 -23 -1 -47.5t-3 -46.5h-807q8 -74 36.5 -138.5t76.5 -110.5t111.5 -73t141.5 -27q39 0 83 10.5 t85 29t77 45t60 57.5l97 -92q-78 -88 -185.5 -132.5t-224.5 -44.5q-137 0 -249.5 64.5t-178.5 185.5h-4q-70 -121 -186.5 -185.5t-255.5 -64.5q-113 0 -207 41t-162 113t-105.5 168t-37.5 207zM246 504q0 -84 26.5 -157t75.5 -127t119 -85t156 -31t156.5 31t119.5 85 t75.5 127t26.5 157t-26.5 156.5t-75.5 127t-119.5 85t-156.5 30.5t-156 -30.5t-119 -85t-75.5 -127t-26.5 -156.5zM1141 573h671q-6 72 -28.5 133.5t-63.5 105.5t-99 69.5t-134 25.5q-78 0 -138.5 -24.5t-103.5 -69.5t-69.5 -105.5t-34.5 -134.5z" />
<glyph unicode="&#x178;" horiz-adv-x="1353" d="M49 1397h172l455 -647h4l455 647h170l-557 -779v-618h-140v618zM422 1698q0 39 26 65.5t64 26.5q39 0 65 -27t26 -65q0 -39 -26 -66t-65 -27t-64.5 27t-25.5 66zM762 1698q0 39 26 65.5t64 26.5q39 0 65 -27t26 -65q0 -39 -26 -66t-65 -27t-64.5 27t-25.5 66z" />
<glyph unicode="&#x2c6;" horiz-adv-x="671" d="M45 1194l217 254h131l217 -254l-78 -53l-204 211l-207 -211z" />
<glyph unicode="&#x2dc;" horiz-adv-x="671" d="M4 1208q29 59 78 103.5t111 44.5q43 0 79.5 -13.5t71.5 -31t67.5 -30.5t67.5 -13t61.5 24.5t45.5 61.5l82 -45q-29 -66 -77.5 -107t-109.5 -41q-45 0 -82 13.5t-70.5 31t-66.5 30.5t-67 13q-35 0 -63 -26.5t-46 -61.5z" />
<glyph unicode="&#x2000;" horiz-adv-x="986" vert-adv-y="0" />
<glyph unicode="&#x2001;" horiz-adv-x="1972" vert-adv-y="0" />
<glyph unicode="&#x2002;" horiz-adv-x="986" vert-adv-y="0" />
<glyph unicode="&#x2003;" horiz-adv-x="1972" vert-adv-y="0" />
<glyph unicode="&#x2004;" horiz-adv-x="657" vert-adv-y="0" />
<glyph unicode="&#x2005;" horiz-adv-x="493" vert-adv-y="0" />
<glyph unicode="&#x2006;" horiz-adv-x="328" vert-adv-y="0" />
<glyph unicode="&#x2007;" horiz-adv-x="328" vert-adv-y="0" />
<glyph unicode="&#x2008;" horiz-adv-x="246" vert-adv-y="0" />
<glyph unicode="&#x2009;" horiz-adv-x="394" vert-adv-y="0" />
<glyph unicode="&#x200a;" horiz-adv-x="109" vert-adv-y="0" />
<glyph unicode="&#x2010;" horiz-adv-x="702" d="M100 496v120h502v-120h-502z" />
<glyph unicode="&#x2011;" horiz-adv-x="702" d="M100 496v120h502v-120h-502z" />
<glyph unicode="&#x2012;" horiz-adv-x="702" d="M100 496v120h502v-120h-502z" />
<glyph unicode="&#x2013;" horiz-adv-x="1259" d="M100 440v121h1059v-121h-1059z" />
<glyph unicode="&#x2014;" horiz-adv-x="2238" d="M100 440v121h2038v-121h-2038z" />
<glyph unicode="&#x2018;" horiz-adv-x="399" d="M90 1057q29 109 63.5 216t79.5 212h97q-31 -106 -58.5 -213t-46.5 -215h-135z" />
<glyph unicode="&#x2019;" horiz-adv-x="399" d="M70 1057q33 104 59.5 210.5t44.5 217.5h135q-27 -111 -62.5 -217.5t-80.5 -210.5h-96z" />
<glyph unicode="&#x201a;" horiz-adv-x="409" d="M70 -297q33 104 59.5 210.5t44.5 217.5h135q-27 -111 -62.5 -217.5t-80.5 -210.5h-96z" />
<glyph unicode="&#x201c;" horiz-adv-x="628" d="M90 1057q29 109 63.5 216t79.5 212h97q-31 -106 -58.5 -213t-46.5 -215h-135zM319 1057q29 109 63.5 216t79.5 212h97q-31 -106 -58.5 -213t-46.5 -215h-135z" />
<glyph unicode="&#x201d;" horiz-adv-x="628" d="M70 1057q33 104 59.5 210.5t44.5 217.5h135q-27 -111 -62.5 -217.5t-80.5 -210.5h-96zM297 1057q33 104 59.5 210.5t44.5 217.5h138q-57 -223 -146 -428h-96z" />
<glyph unicode="&#x201e;" horiz-adv-x="638" d="M70 -297q33 104 59.5 210.5t44.5 217.5h135q-27 -111 -62.5 -217.5t-80.5 -210.5h-96zM297 -297q33 104 59.5 210.5t44.5 217.5h138q-57 -223 -146 -428h-96z" />
<glyph unicode="&#x2022;" horiz-adv-x="712" d="M121 698q0 49 18.5 92.5t51 75t74.5 50t91 18.5t92.5 -18.5t75 -50t50 -75t18.5 -92.5t-18.5 -92t-50 -74.5t-74.5 -50t-93 -18.5q-49 0 -91 18.5t-74.5 50t-51 74.5t-18.5 92z" />
<glyph unicode="&#x2026;" horiz-adv-x="1896" d="M171 66q0 39 26 65.5t64 26.5q39 0 65 -27t26 -65q0 -39 -26 -66t-65 -27t-64.5 27t-25.5 66zM857 66q0 39 26 65.5t64 26.5q39 0 65 -27t26 -65q0 -39 -26 -66t-65 -27t-64.5 27t-25.5 66zM1543 66q0 39 26 65.5t64 26.5q39 0 65 -27t26 -65q0 -39 -26 -66t-65 -27 t-64.5 27t-25.5 66z" />
<glyph unicode="&#x202f;" horiz-adv-x="394" vert-adv-y="0" />
<glyph unicode="&#x2039;" horiz-adv-x="589" d="M80 504l317 487l92 -49l-284 -438l284 -438l-92 -50z" />
<glyph unicode="&#x203a;" horiz-adv-x="589" d="M100 66l285 438l-285 438l93 49l317 -487l-317 -488z" />
<glyph unicode="&#x205f;" horiz-adv-x="493" vert-adv-y="0" />
<glyph unicode="&#x20ac;" d="M57 481l41 113h123q-2 20 -2 41v37v41q0 18 2 39h-164l41 112h138q20 106 65 199.5t114.5 161t163 106.5t207.5 39q78 0 159 -20.5t149 -59.5l-43 -121q-59 37 -127 58.5t-138 21.5q-88 0 -158.5 -29.5t-122.5 -82t-86 -122t-52 -151.5h575l-41 -112h-551q-2 -20 -2 -39 v-41v-37q0 -20 2 -41h496l-41 -113h-438q18 -82 52 -151.5t86 -121.5t122.5 -82t158.5 -30q70 0 137.5 21.5t127.5 58.5l43 -121q-68 -39 -149 -60.5t-159 -21.5q-115 0 -208 39t-162.5 107.5t-114.5 161t-65 200.5h-179z" />
<glyph unicode="&#x2122;" horiz-adv-x="1568" d="M90 1305v92h551v-92h-227v-639h-97v639h-227zM707 666l45 731h88l250 -408h4l252 408h88l45 -731h-101q-8 139 -17 276t-13 277h-5q-57 -106 -120.5 -206t-124.5 -202h-11q-63 102 -126.5 201.5t-118.5 206.5h-4q-4 -139 -13.5 -276.5t-17.5 -276.5h-100z" />
<glyph unicode="&#x25fc;" horiz-adv-x="1003" vert-adv-y="2007" d="M0 0v1004h1004v-1004h-1004z" />
</font>
</defs>
</svg>
