<?xml version="1.0" standalone="no"?>
<!DOCTYPE svg PUBLIC "-//W3C//DTD SVG 1.1//EN" "http://www.w3.org/Graphics/SVG/1.1/DTD/svg11.dtd" >
<svg xmlns="http://www.w3.org/2000/svg" xmlns:xlink="http://www.w3.org/1999/xlink" version="1.1">
<metadata></metadata>
<defs>
<font id="mirai-mediumuploaded_file" horiz-adv-x="1208" vert-adv-y="2048" >
<font-face units-per-em="2048" ascent="1612" descent="-436" />
<missing-glyph horiz-adv-x="423" />
<glyph unicode="&#xfb01;" horiz-adv-x="1226" d="M72 819v189h147v110q0 180 78 285.5t240 105.5q55 0 108 -9t100 -23l-45 -189q-33 10 -69.5 21.5t-75.5 11.5q-78 0 -104.5 -55.5t-26.5 -145.5v-112h637v-1008h-205v819h-432v-819h-205v819h-147zM840 1309q0 53 35.5 90t91.5 37q57 0 93 -37t36 -90t-36 -90t-93 -37 q-55 0 -91 37t-36 90z" />
<glyph unicode="&#xfb02;" horiz-adv-x="1224" d="M72 819v189h147v77q0 199 94 311.5t305 112.5q117 0 219.5 -17t223.5 -48v-1444h-205v1294q-59 12 -118.5 19.5t-112.5 7.5q-61 0 -101.5 -16.5t-62 -47t-29.5 -74.5t-8 -98v-77h295v-189h-295v-819h-205v819h-147z" />
<glyph unicode="&#xfb03;" horiz-adv-x="1843" d="M72 819v189h147v84q0 82 14.5 157.5t51.5 133t99 92t159 34.5q66 0 125 -9t114 -25l-41 -187q-47 14 -93 23.5t-91 9.5q-84 0 -108.5 -63.5t-24.5 -167.5v-82h412v110q0 180 78.5 285.5t238.5 105.5q57 0 110.5 -9t100.5 -23l-45 -189q-33 10 -70 21.5t-75 11.5 q-78 0 -106 -55.5t-28 -145.5v-112h639v-1008h-204v819h-435v-819h-204v819h-412v-819h-205v819h-147zM1456 1309q0 53 36 90t91 37q57 0 93 -37t36 -90t-36 -90t-93 -37q-55 0 -91 37t-36 90z" />
<glyph unicode="&#xfb04;" horiz-adv-x="1843" d="M72 819v189h147v84q0 82 14.5 157.5t51.5 133t99 92t159 34.5q66 0 125 -9t114 -25l-41 -187q-47 14 -93 23.5t-91 9.5q-84 0 -108.5 -63.5t-24.5 -167.5v-82h412v77q0 199 95 311.5t306 112.5q117 0 219.5 -17t222.5 -48v-1444h-204v1294q-61 12 -121 19.5t-111 7.5 q-61 0 -101 -16.5t-62.5 -47t-31 -74.5t-8.5 -98v-77h297v-189h-297v-819h-204v819h-412v-819h-205v819h-147z" />
<glyph horiz-adv-x="0" vert-adv-y="0" />
<glyph unicode="&#xd;" horiz-adv-x="0" vert-adv-y="0" />
<glyph horiz-adv-x="0" vert-adv-y="0" />
<glyph horiz-adv-x="0" vert-adv-y="0" />
<glyph unicode=" "  horiz-adv-x="423" />
<glyph unicode="&#x09;" horiz-adv-x="423" />
<glyph unicode="&#xa0;" horiz-adv-x="423" />
<glyph unicode="!" horiz-adv-x="522" d="M133 100q0 -53 36 -90t91 -37q57 0 93 37t36 90t-36 90t-93 37q-55 0 -91 -37t-36 -90zM150 1397h221l-33 -1000h-154z" />
<glyph unicode="&#x22;" horiz-adv-x="718" d="M102 1485h207l-30 -500h-146zM409 1485h207l-30 -500h-146z" />
<glyph unicode="#" horiz-adv-x="1472" d="M102 358l29 166h242l61 348h-241l30 166h240l63 359h185l-64 -359h309l62 359h184l-61 -359h239l-28 -166h-242l-61 -348h241l-30 -166h-240l-64 -358h-184l64 358h-310l-63 -358h-184l63 358h-240zM557 524h307l62 348h-308z" />
<glyph unicode="$" d="M121 180l115 158q68 -51 147.5 -83t171.5 -40v406q-225 51 -321.5 152t-96.5 237q0 70 26.5 132t79 110t130.5 80t182 38v113h133v-117q111 -10 214.5 -47t184.5 -94l-114 -158q-66 45 -135.5 73.5t-149.5 39.5v-394q217 -59 306 -153.5t89 -233.5q0 -66 -22.5 -128 t-69.5 -113.5t-121.5 -85t-181.5 -43.5v-115h-133v115q-121 8 -235.5 48t-198.5 103zM334 1014q0 -57 47 -104.5t174 -88.5v361q-115 -10 -168 -57.5t-53 -110.5zM688 217q102 16 150.5 65.5t48.5 110.5q0 59 -44 106.5t-155 84.5v-367z" />
<glyph unicode="%" horiz-adv-x="1724" d="M92 1016q0 195 81 300t233 105t233.5 -105.5t81.5 -299.5q0 -195 -82 -300.5t-233 -105.5q-152 0 -233 105.5t-81 300.5zM248 1016q0 -135 43 -197.5t115 -62.5t114.5 62.5t42.5 197.5q0 137 -43 198.5t-114 61.5q-72 0 -115 -61.5t-43 -198.5zM492 8l610 1436l131 -55 l-610 -1436zM1004 381q0 195 81.5 300t233.5 105t232.5 -105.5t80.5 -299.5q0 -195 -81 -301.5t-232 -106.5q-152 0 -233.5 106.5t-81.5 301.5zM1161 381q0 -137 43 -198.5t115 -61.5t115 61.5t43 198.5q0 135 -43 197.5t-115 62.5t-115 -62.5t-43 -197.5z" />
<glyph unicode="&#x26;" horiz-adv-x="1355" d="M102 373q0 49 11.5 98t41 98t79 100.5t126.5 104.5q-59 80 -94 158t-35 162q0 72 24 132t70 103t110.5 67.5t148.5 24.5q82 0 147.5 -25.5t111.5 -69.5t69.5 -102.5t23.5 -121.5q0 -117 -69.5 -207t-200.5 -172q78 -90 139 -157.5t123 -129.5h4q20 53 34.5 120t22.5 144 l199 -28q-14 -115 -41 -208t-68 -171q41 -37 86 -78t99 -88l-140 -154q-96 86 -168 156q-165 -156 -405 -156q-94 0 -176 29t-142.5 81t-95.5 126t-35 164zM307 367q0 -47 19.5 -83t53.5 -62.5t79 -40t96 -13.5q72 0 138.5 20.5t123.5 73.5q-86 84 -162.5 166t-165.5 188 q-94 -61 -138 -119.5t-44 -129.5zM436 1087q0 -25 4 -47t15.5 -45.5t31 -50t50.5 -63.5q100 59 147 105t47 108q0 55 -39.5 94t-107.5 39t-108 -39t-40 -101z" />
<glyph unicode="'" horiz-adv-x="411" d="M102 1485h207l-30 -500h-146z" />
<glyph unicode="(" horiz-adv-x="661" d="M154 602q0 256 69.5 487.5t200.5 432.5l156 -84q-117 -182 -179.5 -394.5t-62.5 -441.5t62.5 -442t179.5 -396l-156 -81q-131 199 -200.5 431t-69.5 488z" />
<glyph unicode=")" horiz-adv-x="661" d="M82 -236q119 182 180.5 395.5t61.5 442.5t-61.5 441t-180.5 395l156 84q131 -201 200.5 -432.5t69.5 -487.5t-69.5 -488.5t-200.5 -430.5z" />
<glyph unicode="*" horiz-adv-x="956" d="M82 942l258 131v4l-258 131l82 144l242 -158h4l-15 291h166l-16 -291h4l242 158l83 -144l-258 -131v-4l258 -131l-83 -143l-242 157h-4l16 -290h-166l15 290h-4l-242 -157z" />
<glyph unicode="+" d="M129 469v174h385v389h180v-389h385v-174h-385v-389h-180v389h-385z" />
<glyph unicode="," horiz-adv-x="385" d="M1 -299q39 129 70.5 262t48.5 238h205q-16 -59 -37 -126t-45.5 -133.5t-49 -129t-47.5 -111.5h-145z" />
<glyph unicode="-" horiz-adv-x="727" d="M92 469v174h543v-174h-543z" />
<glyph unicode="." horiz-adv-x="409" d="M92 100q0 53 36 90t91 37q57 0 93 -36.5t36 -90.5q0 -53 -36 -90t-93 -37q-55 0 -91 37t-36 90z" />
<glyph unicode="/" horiz-adv-x="813" d="M37 -74l612 1598l144 -54l-613 -1597z" />
<glyph unicode="0" d="M82 698q0 176 37 311.5t104.5 226.5t163.5 138t217 47q119 0 216.5 -47t165 -138t104 -226.5t36.5 -311.5t-36.5 -311t-104 -227t-165 -139.5t-216.5 -47.5q-121 0 -217 47.5t-163.5 139.5t-104.5 227t-37 311zM287 698q0 -268 80.5 -398t236.5 -130t237 130t81 398 t-81 398.5t-237 130.5t-236.5 -130t-80.5 -399z" />
<glyph unicode="1" d="M236 1235l405 172h162v-1407h-205v1186l-301 -127z" />
<glyph unicode="2" d="M156 1032q29 176 145.5 283.5t312.5 107.5q109 0 190 -33.5t135 -90t82 -132t28 -159.5q0 -63 -19.5 -121t-54.5 -113t-82 -110.5t-102 -112.5l-340 -361v-4h602v-186h-893v170l461 489q53 55 94 101.5t69.5 87.5t44 81t15.5 83q0 92 -58.5 154.5t-171.5 62.5 q-115 0 -173 -72t-74 -184z" />
<glyph unicode="3" d="M135 152l144 137q53 -57 131.5 -88t164.5 -31q137 0 215 60.5t78 158.5q0 100 -72.5 167t-230.5 67h-166v182h166q139 0 209 62.5t70 156.5q0 90 -66.5 147.5t-204.5 57.5q-88 0 -160.5 -30t-127.5 -83l-142 146q82 78 192.5 119.5t237.5 41.5q117 0 206 -30.5t149.5 -84 t90.5 -123t30 -149.5q0 -102 -49.5 -181t-139.5 -128v-4q111 -53 162 -142.5t51 -191.5q0 -199 -133 -307.5t-365 -108.5q-127 0 -244.5 46.5t-195.5 132.5z" />
<glyph unicode="4" d="M78 471l676 926h190v-920h186v-188h-186v-289h-205v289h-645zM317 477h422v578h-4l-418 -574v-4z" />
<glyph unicode="5" d="M141 160l146 137q47 -59 118.5 -94t159.5 -35q141 0 220 77t79 199q0 119 -78.5 186.5t-226.5 67.5q-76 0 -132 -9t-108 -23l-122 110l96 621h700v-189h-522l-53 -334h4q70 19 158 19q113 0 203.5 -32t154 -91t97.5 -142t34 -188q0 -98 -34 -183t-99.5 -148.5 t-160.5 -99.5t-216 -36q-133 0 -243.5 51.5t-174.5 135.5z" />
<glyph unicode="6" d="M102 438q0 76 20.5 146.5t72 172t137.5 252t219 388.5h235q-92 -164 -165.5 -288t-131.5 -222v-4q64 20 148 20q100 0 185 -36t148.5 -98t99.5 -147t36 -184q0 -98 -36 -183t-101.5 -147.5t-157.5 -98.5t-207 -36t-207 36t-157.5 98.5t-101.5 147.5t-36 183zM307 438 q0 -53 19.5 -101t57.5 -86t93 -60.5t127 -22.5t127 22.5t93 60.5t57.5 86t19.5 101t-19.5 102.5t-57.5 86.5t-93 59.5t-127 22.5t-127 -22.5t-93 -59.5t-57.5 -86t-19.5 -103z" />
<glyph unicode="7" d="M119 1208v189h911v-156l-483 -1241h-230l488 1208h-686z" />
<glyph unicode="8" d="M84 387q0 111 50 194t147 134v4q-72 53 -111 128t-39 171q0 88 35 161.5t97.5 128t149.5 84t191 29.5t191.5 -29.5t150 -84t97 -128t34.5 -161.5q0 -96 -39 -171t-110 -128v-4q96 -51 146 -134t50 -194q0 -92 -35.5 -168t-103 -130t-164 -85t-217.5 -31t-217 31 t-163.5 85t-103.5 130t-36 168zM289 391q0 -92 79.5 -157.5t235.5 -65.5t236 65.5t80 157.5t-80 156.5t-236 64.5t-235.5 -64.5t-79.5 -156.5zM334 1016q0 -96 73.5 -153.5t196.5 -57.5t196.5 57.5t73.5 153.5t-73.5 153.5t-196.5 57.5t-196.5 -57.5t-73.5 -153.5z" />
<glyph unicode="9" d="M102 958q0 98 36 183.5t101.5 147t157.5 97t207 35.5t207 -35.5t157.5 -97t101.5 -146.5t36 -184q0 -76 -20.5 -146.5t-71.5 -171.5t-138.5 -251.5t-218.5 -388.5h-235q92 164 166 288t131 222v4q-63 -20 -148 -20q-100 0 -186 35.5t-148.5 98t-98.5 147.5t-36 183z M307 958q0 -53 19.5 -102t57.5 -86t93 -59.5t127 -22.5t127 22.5t93 59.5t57.5 86t19.5 102q0 51 -19.5 100.5t-57.5 86.5t-93 59.5t-127 22.5t-127 -22.5t-93 -59.5t-57.5 -86t-19.5 -101z" />
<glyph unicode=":" horiz-adv-x="481" d="M112 100q0 53 36 90t91 37q57 0 93 -36.5t36 -90.5q0 -53 -36 -90t-93 -37q-55 0 -91 37t-36 90zM112 907q0 53 36 90t91 37q57 0 93 -36.5t36 -90.5q0 -53 -36 -90t-93 -37q-55 0 -91 37t-36 90z" />
<glyph unicode=";" horiz-adv-x="491" d="M33 -297h145q23 49 47.5 111.5t49 128t45 132t36.5 126.5h-204q-16 -102 -48 -235.5t-71 -262.5zM123 907q0 53 36 89t93 36q55 0 91 -35.5t36 -89.5q0 -53 -36 -90t-91 -37q-57 0 -93 37t-36 90z" />
<glyph unicode="&#x3c;" d="M109 463v186l915 443l76 -158l-789 -377v-4l789 -375l-76 -158z" />
<glyph unicode="=" d="M129 213v174h950v-174h-950zM129 725v174h950v-174h-950z" />
<glyph unicode="&#x3e;" d="M109 178l788 375v4l-788 377l75 158l916 -443v-186l-916 -443z" />
<glyph unicode="?" horiz-adv-x="1165" d="M133 1087q45 158 162 246t303 88q111 0 196 -27.5t142 -75.5t87 -111.5t30 -135.5q0 -55 -19.5 -101t-54.5 -89t-82 -86t-104 -95q-33 -31 -53.5 -58.5t-33 -62t-17.5 -77.5t-7 -105h-168q0 80 4 139.5t18.5 107.5t41 87t69.5 78q45 43 83 76t63.5 62.5t40 59t14.5 66.5 q0 70 -64.5 115t-185.5 45q-104 0 -175 -49t-93 -154zM471 100q0 53 36 90t91 37q57 0 93 -36.5t36 -90.5q0 -53 -36 -90t-93 -37q-55 0 -91 37t-36 90z" />
<glyph unicode="@" horiz-adv-x="1888" d="M113 600q0 180 62.5 337t174 271.5t264 180t334.5 65.5t335 -59.5t262.5 -164t170 -247.5t60.5 -311q0 -133 -32 -230.5t-86 -160t-123 -92t-142 -29.5q-74 0 -139.5 33.5t-106.5 99.5h-4q-53 -63 -125 -98t-158 -35q-82 0 -149.5 32.5t-115.5 91t-73 138.5 q-20 66 -20 139q0 20 2 39q6 96 40 177t88 139.5t125.5 91t153.5 32.5q86 0 155 -35.5t116 -101.5h4l26 117h168q-33 -178 -51 -283.5t-26 -161.5q-10 -66 -17 -88q-4 -20 -4 -38q0 -51 31 -84q41 -43 104 -43q98 0 150.5 96t52.5 254q0 143 -48 261t-137 199.5t-213 127 t-274 45.5t-274.5 -49.5t-214.5 -141.5t-140.5 -222t-50.5 -292q0 -158 47 -288t135.5 -223t213 -144t280.5 -51q143 0 277.5 44t246.5 125l91 -120q-117 -90 -279 -142.5t-336 -52.5q-193 0 -346.5 67.5t-261 184.5t-165.5 271.5t-58 328.5zM694 561q0 -96 45 -151 q54 -66 146 -66q90 0 155.5 65.5t75.5 190.5q2 20 2 39q0 98 -45 154q-53 66 -145 65q-90 0 -155.5 -65.5t-76.5 -192.5q-2 -20 -2 -39z" />
<glyph unicode="A" horiz-adv-x="1466" d="M31 0l608 1397h186l611 -1397h-238l-135 315h-662l-135 -315h-235zM487 516h492q-63 152 -123.5 302.5t-120.5 301.5h-4q-59 -151 -119.5 -301.5t-124.5 -302.5z" />
<glyph unicode="B" horiz-adv-x="1345" d="M174 0v1397h553q217 0 341 -98.5t124 -272.5q0 -109 -47 -186.5t-135 -122.5q111 -43 172 -127t61 -213q0 -180 -124 -278.5t-341 -98.5h-600h-4zM385 201h383q127 0 194.5 52t67.5 148t-63.5 148.5t-198.5 52.5h-383v-401zM385 803h336q129 0 193.5 54t64.5 142 q0 86 -60.5 141.5t-197.5 55.5h-336v-393z" />
<glyph unicode="C" horiz-adv-x="1474" d="M109 698q0 158 55 291t151.5 229.5t227.5 149.5t282 53q166 0 306.5 -60.5t238.5 -174.5l-160 -142q-68 84 -167 131.5t-218 47.5q-109 0 -201 -38t-159.5 -107.5t-106.5 -166t-39 -213.5t39 -214t106.5 -165.5t160 -107.5t200.5 -39q123 0 223.5 50t168.5 136l161 -139 q-98 -117 -241.5 -181.5t-311.5 -64.5q-152 0 -282.5 54.5t-227 150.5t-151.5 229.5t-55 290.5z" />
<glyph unicode="D" horiz-adv-x="1449" d="M174 0v1397h442q166 0 300.5 -48.5t228.5 -138.5t145 -219t51 -293t-51 -293t-145 -219t-228.5 -138t-300.5 -48h-442zM385 201h223q252 0 386 127.5t134 369.5t-134 370t-386 128h-223v-995z" />
<glyph unicode="E" horiz-adv-x="1247" d="M174 0v1397h922v-201h-711v-389h653v-201h-653v-405h729v-201h-940z" />
<glyph unicode="F" horiz-adv-x="1185" d="M174 0v1397h909v-201h-698v-414h641v-200h-641v-582h-211z" />
<glyph unicode="G" horiz-adv-x="1533" d="M109 698q0 158 55 291t151.5 229.5t227.5 149.5t282 53q166 0 306.5 -60.5t238.5 -174.5l-160 -142q-68 84 -167 131.5t-218 47.5q-109 0 -201 -38t-159.5 -107.5t-106.5 -166t-39 -213.5t39 -214t106.5 -165.5t160 -107.5t200.5 -39q84 0 171 17.5t173 54.5v325h-329 v201h540v-637q-49 -31 -110.5 -59.5t-132 -51t-149.5 -36t-163 -13.5q-152 0 -282.5 54.5t-227 150.5t-151.5 229.5t-55 290.5z" />
<glyph unicode="H" horiz-adv-x="1474" d="M174 0v1397h211v-570h705v570h210v-1397h-210v627h-705v-627h-211z" />
<glyph unicode="I" horiz-adv-x="559" d="M174 0v1397h211v-1397h-211z" />
<glyph unicode="J" horiz-adv-x="1128" d="M41 246l174 121q45 -88 121 -139.5t178 -51.5q63 0 110.5 22.5t78 61.5t46 91t15.5 114v932h211v-932q0 -111 -30 -201t-88 -154.5t-145 -99.5t-200 -35q-70 0 -141.5 17.5t-135 51.5t-114.5 85t-80 117z" />
<glyph unicode="K" horiz-adv-x="1374" d="M174 0v1397h211v-641h4l633 641h289l-639 -631l661 -766h-282l-527 635l-139 -121v-514h-211z" />
<glyph unicode="L" horiz-adv-x="1146" d="M174 0v1397h211v-1196h700v-201h-911z" />
<glyph unicode="M" horiz-adv-x="1828" d="M154 0l86 1397h196l477 -776h5l477 776h194l86 -1397h-213l-43 729q-6 88 -9 164t-7 139h-4q-43 -78 -72 -130t-47 -85q-23 -37 -35 -59l-319 -520h-21l-321 520q-12 23 -35 59q-18 33 -48 85t-71 130h-4q-4 -63 -7 -139t-7 -164l-43 -729h-215z" />
<glyph unicode="N" horiz-adv-x="1495" d="M174 0v1397h186l750 -1024h4q-2 78 -3 167t-1 167v690h211v-1397h-186l-752 1024h-4q4 -78 5 -167t1 -167v-690h-211z" />
<glyph unicode="O" horiz-adv-x="1648" d="M109 698q0 158 55 291t151.5 229.5t227.5 149.5t282 53q152 0 282 -53t226.5 -149.5t151.5 -229.5t55 -291t-55 -291t-151.5 -229t-226.5 -150.5t-282 -54.5t-282.5 54.5t-227 150.5t-151.5 229.5t-55 290.5zM319 698q0 -117 39 -214t106.5 -165.5t160 -107.5t200.5 -39 q106 0 198.5 39t160 107.5t106.5 165.5t39 214t-39 213.5t-106.5 166t-159.5 107.5t-199 38q-109 0 -201 -38t-159.5 -107.5t-106.5 -166t-39 -213.5z" />
<glyph unicode="P" horiz-adv-x="1333" d="M174 0v1397h2h582q115 0 203 -32t148 -90t91 -138t31 -174q0 -96 -31 -176t-91 -138.5t-148.5 -90.5t-202.5 -32h-373v-526h-211zM385 727h371q139 0 200.5 67t61.5 169q0 100 -61.5 166.5t-200.5 66.5h-371v-469z" />
<glyph unicode="Q" horiz-adv-x="1648" d="M109 698q0 158 55 291t151.5 229.5t226.5 149.5t281 53q152 0 283 -53t227.5 -149.5t151.5 -229.5t55 -291q0 -217 -99.5 -381.5t-264.5 -255.5l288 -311l-159 -133l-322 373q-82 -16 -160 -17q-152 0 -281.5 54.5t-226 150.5t-151.5 229.5t-55 290.5zM319 698 q0 -117 39 -214t106.5 -165.5t160 -107.5t198.5 -39t199.5 39t161 107.5t106.5 165.5t39 214t-39 213.5t-106.5 166t-160.5 107.5t-200 38q-106 0 -198.5 -38t-160 -107.5t-106.5 -166t-39 -213.5z" />
<glyph unicode="R" horiz-adv-x="1384" d="M174 0v1397h612q113 0 201 -31t148.5 -86t92.5 -133t32 -172q0 -152 -76 -255.5t-217 -144.5l327 -575h-252l-297 551h-360v-551h-211zM385 752h399q135 0 199 60t64 163q0 100 -63.5 160.5t-199.5 60.5h-399v-444z" />
<glyph unicode="S" horiz-adv-x="1245" d="M102 141l123 170q84 -63 185.5 -100t218.5 -37q76 0 132 16.5t93 43t55.5 62.5t18.5 75q0 80 -76 138t-272 101q-246 55 -352.5 165t-106.5 259q0 80 31.5 149.5t95 123t158 84t219.5 30.5q141 0 280 -42t238 -113l-123 -172q-86 61 -182.5 94t-212.5 33 q-154 0 -223.5 -53.5t-69.5 -129.5q0 -37 15 -68.5t54 -61t102.5 -55.5t160.5 -48q131 -31 221 -73t146 -95t82 -117.5t26 -142.5t-28 -150.5t-89 -129t-158.5 -90.5t-234.5 -34q-72 0 -143.5 12.5t-140.5 34t-131 52t-112 69.5z" />
<glyph unicode="T" horiz-adv-x="1181" d="M51 1196v201h1079v-201h-434v-1196h-211v1196h-434z" />
<glyph unicode="U" horiz-adv-x="1423" d="M154 518v879h211v-871q0 -90 26.5 -155.5t72.5 -109.5t109.5 -65.5t137.5 -21.5t138 21.5t110.5 65.5t73 109.5t26.5 155.5v871h211v-879q0 -133 -41 -234.5t-116 -170t-177 -104.5t-225 -36t-225.5 36t-176 104.5t-114.5 170t-41 234.5z" />
<glyph unicode="V" horiz-adv-x="1486" d="M41 1397h235l211 -494q23 -53 57 -134t68.5 -169t69.5 -174t59 -150h4q25 63 60 149.5t69.5 174.5t67.5 169t55 134l211 494h238l-610 -1397h-187z" />
<glyph unicode="W" horiz-adv-x="1959" vert-adv-y="2019" d="M31 1397h227l184 -633q10 -37 19.5 -75l22 -88t27.5 -119.5t36 -170.5h4q20 80 36.5 144.5t30.5 111.5q14 53 29 97l240 733h186l240 -733q12 -37 26 -91q12 -45 29.5 -110.5t40.5 -151.5h4q23 115 43.5 199t34.5 141q16 68 29 113l182 633h227l-422 -1397h-184l-242 741 q-10 29 -24 82q-12 43 -30.5 114t-43.5 175h-4q-27 -104 -44 -175t-30 -114q-14 -53 -24 -82l-242 -741h-186z" />
<glyph unicode="X" horiz-adv-x="1519" d="M51 0l578 717q-31 37 -70 85t-83 103.5t-91 112.5t-90 112q-102 127 -215 267h270l410 -518l409 518h271q-113 -139 -215 -267q-43 -55 -90.5 -112t-91.5 -112.5t-83.5 -103.5t-68.5 -85l577 -717h-274l-434 551l-434 -551h-275z" />
<glyph unicode="Y" horiz-adv-x="1378" d="M41 1397h254l393 -615h4l391 615h254l-542 -805v-592h-211v592z" />
<glyph unicode="Z" horiz-adv-x="1284" d="M113 0v186l741 1006v4h-709v201h985v-187l-741 -1005v-4h772v-201h-1048z" />
<glyph unicode="[" horiz-adv-x="630" d="M154 -283v1768h395v-166h-211v-1436h211v-166h-395z" />
<glyph unicode="\" horiz-adv-x="829" d="M37 1470l143 54l613 -1598l-144 -53z" />
<glyph unicode="]" horiz-adv-x="630" d="M82 -117h211v1436h-211v166h395v-1768h-395v166z" />
<glyph unicode="^" d="M106 698l406 699h184l406 -699l-184 -86l-183 334q-45 84 -76.5 143.5t-52.5 98.5h-4q-20 -39 -52 -98.5t-77 -143.5l-182 -334z" />
<glyph unicode="_" horiz-adv-x="1368" d="M113 -115h1142v-133h-1142v133z" />
<glyph unicode="`" horiz-adv-x="655" d="M47 1407l141 98l256 -288l-100 -72z" />
<glyph unicode="a" horiz-adv-x="1142" d="M102 311q0 162 112 249t316 87q66 0 132.5 -6t132.5 -16v28q0 193 -242 193q-80 0 -162 -19.5t-162 -70.5l-96 170q94 47 201.5 77.5t216.5 30.5q231 0 339.5 -112.5t108.5 -305.5v-616h-172l-8 121h-4q-57 -68 -141 -108t-195 -40q-92 0 -161.5 27t-117.5 73t-73 107.5 t-25 130.5zM307 311q0 -41 17.5 -70.5t46 -48t66.5 -27.5t81 -9q49 0 98.5 15t89 46t64.5 79t25 114v26q-68 14 -124.5 21.5t-113.5 7.5q-109 0 -179.5 -33t-70.5 -121z" />
<glyph unicode="b" horiz-adv-x="1306" d="M164 0v1485h205v-588h4q66 66 152 101.5t186 35.5q104 0 195 -40t156.5 -110.5t103.5 -168t38 -211.5q0 -115 -38 -212t-103.5 -168t-156.5 -110t-195 -39q-111 0 -203 42t-160 118h-4l-8 -135h-172zM367 504q0 -74 23.5 -135.5t65.5 -105.5t100 -68.5t126 -24.5 q70 0 128 24.5t100 68.5t65.5 105.5t23.5 135.5t-23.5 136t-65.5 106.5t-100 69t-128 24.5q-68 0 -126 -24.5t-100 -69t-65.5 -106.5t-23.5 -136z" />
<glyph unicode="c" horiz-adv-x="1110" d="M102 504q0 115 40 212t110 167.5t165 109.5t206 39q121 0 220 -45t171 -125l-148 -139q-41 55 -103.5 86t-139.5 31q-68 0 -126.5 -24.5t-100.5 -69t-65.5 -106.5t-23.5 -136t23.5 -135.5t65.5 -105.5t100.5 -68.5t126.5 -24.5q80 0 142 30.5t103 86.5l150 -137 q-72 -84 -172.5 -129.5t-222.5 -45.5q-111 0 -206 39t-165 110t-110 168t-40 212z" />
<glyph unicode="d" horiz-adv-x="1306" d="M102 504q0 115 38 212t103.5 167.5t157 110.5t195.5 40q100 0 186 -35.5t152 -101.5h4v588h205v-1485h-172l-8 135h-5q-68 -76 -159.5 -118t-202.5 -42q-104 0 -195.5 39t-157 110t-103.5 168t-38 212zM307 504q0 -74 23.5 -135.5t65.5 -105.5t100.5 -68.5t126.5 -24.5 q70 0 128 24.5t100 68.5t65.5 105.5t23.5 135.5t-23.5 136t-65.5 106.5t-100.5 69t-127.5 24.5q-68 0 -126.5 -24.5t-100.5 -69t-65.5 -106.5t-23.5 -136z" />
<glyph unicode="e" horiz-adv-x="1173" d="M102 502q0 115 36 212t100.5 167.5t154.5 109.5t199 39q106 0 195.5 -36t153 -102.5t95.5 -160.5q29 -84 29 -184v-27v-28q0 -14 -1 -33t-1 -41h-750q23 -127 104 -191.5t197 -64.5q76 0 145.5 32.5t117.5 92.5l147 -140q-72 -82 -179.5 -129t-234.5 -47q-111 0 -204 40 t-160.5 111t-105.5 168t-38 212zM315 598h537q-16 127 -82.5 185.5t-175.5 58.5q-117 0 -187.5 -63.5t-91.5 -180.5z" />
<glyph unicode="f" horiz-adv-x="782" d="M72 819v189h147v110q0 180 78 285.5t240 105.5q51 0 107 -8t108 -20l-39 -191q-41 14 -81 22.5t-75 8.5q-76 0 -104.5 -58.5t-28.5 -142.5v-112h305v-189h-305v-819h-205v819h-147z" />
<glyph unicode="g" horiz-adv-x="1196" d="M102 -88q0 66 41 124t105 83v4q-33 31 -52.5 69.5t-19.5 86.5q0 47 22.5 91t75.5 79v4q-102 96 -102 235q0 74 29.5 137.5t87 109.5t137.5 72.5t182 26.5q59 0 111.5 -10t97.5 -27l160 160l127 -129l-137 -129q80 -90 80 -211q0 -74 -31 -137.5t-87.5 -109.5t-138 -72.5 t-182.5 -26.5q-57 0 -107 8t-93 25q-29 -16 -37.5 -36t-8.5 -36q0 -29 20.5 -51.5t61.5 -24.5q12 -2 54.5 -4t142.5 -8q473 -24 473 -303q0 -141 -129 -230.5t-377 -89.5q-244 0 -375 87.5t-131 232.5zM307 -88q0 -78 81 -115t220 -37q147 0 227 38t80 114q0 72 -79.5 95.5 t-227.5 31.5l-194 10q-8 2 -14.5 2t-12.5 2q-43 -29 -61.5 -66.5t-18.5 -74.5zM377 688q0 -41 18.5 -72.5t50 -52t73.5 -31t89 -10.5q96 0 165 41t69 125q0 41 -18.5 72t-50.5 51t-74 30.5t-91 10.5q-96 0 -163.5 -41t-67.5 -123z" />
<glyph unicode="h" horiz-adv-x="1239" d="M164 0v1485h205v-584h4q68 66 154 98.5t178 32.5q78 0 148.5 -26.5t124.5 -81t86 -138.5t32 -198v-588h-205v528q0 86 -18.5 146.5t-51.5 97.5t-78 53.5t-96 16.5q-63 0 -114.5 -25.5t-88 -68.5t-56 -101.5t-19.5 -124.5v-522h-205z" />
<glyph unicode="i" horiz-adv-x="534" d="M147 1309q0 49 33 83.5t86 34.5t87 -34.5t34 -83.5q0 -47 -34 -82t-87 -35t-86 35t-33 82zM164 0h205v1008h-205v-1008z" />
<glyph unicode="j" horiz-adv-x="610" d="M-92 -381q51 -12 106.5 -20.5t108.5 -8.5q160 0 238.5 101.5t78.5 281.5v1035h-204v-1026q0 -92 -30 -146.5t-104 -54.5q-35 0 -80 7t-79 15zM217 1309q0 49 34 83.5t87 34.5t86 -34.5t33 -83.5q0 -47 -33 -82t-86 -35t-87 35t-34 82z" />
<glyph unicode="k" horiz-adv-x="1148" d="M164 0v1485h205v-948h4l461 471h253l-444 -443l475 -565h-264l-348 440l-137 -123v-317h-205z" />
<glyph unicode="l" horiz-adv-x="532" d="M164 0v1485h205v-1485h-205z" />
<glyph unicode="m" horiz-adv-x="1796" d="M164 0v1008h172l8 -113h4q59 70 140 103.5t167 33.5q94 0 172 -43t125 -135h4q61 90 151.5 134t188.5 44q74 0 138.5 -26.5t112.5 -81t77 -138.5t29 -198v-588h-205v528q0 170 -56.5 242t-148.5 72q-115 0 -174 -86t-59 -224v-532h-205v528q0 170 -56.5 242t-146.5 72 q-115 0 -174 -86t-59 -224v-532h-205z" />
<glyph unicode="n" horiz-adv-x="1239" d="M164 0v1008h172l8 -131h4q70 78 164.5 116.5t192.5 38.5q78 0 148.5 -26.5t124.5 -81t86 -138.5t32 -198v-588h-205v528q0 86 -18.5 146.5t-51.5 97.5t-78 53.5t-96 16.5q-63 0 -114.5 -25.5t-88 -68.5t-56 -101.5t-19.5 -124.5v-522h-205z" />
<glyph unicode="o" horiz-adv-x="1247" d="M102 504q0 115 40 212t110 167.5t165 109.5t206 39t207 -39t165.5 -109.5t109.5 -168t40 -211.5q0 -115 -40 -212t-109.5 -168t-166 -110t-206.5 -39q-111 0 -206 39t-165 110t-110 168t-40 212zM307 504q0 -74 23.5 -135.5t65.5 -105.5t100.5 -68.5t126.5 -24.5 q70 0 128 24.5t100 68.5t65.5 105.5t23.5 135.5t-23.5 135t-65.5 105t-100.5 69t-127.5 25q-68 0 -126.5 -25t-100.5 -69t-65.5 -105t-23.5 -135z" />
<glyph unicode="p" horiz-adv-x="1306" d="M164 -410v1418h172l8 -136h4q68 76 160 119t203 43q104 0 195 -40t156.5 -110.5t103.5 -168t38 -211.5q0 -115 -38 -212t-103.5 -168t-156.5 -110t-195 -39q-100 0 -186.5 35t-151.5 101h-4v-521h-205zM367 504q0 -74 23.5 -135.5t65.5 -105.5t100 -68.5t126 -24.5 q70 0 128 24.5t100 68.5t65.5 105.5t23.5 135.5t-23.5 135t-65.5 105t-100 69t-128 25q-68 0 -126 -25t-100 -69t-65.5 -105t-23.5 -135z" />
<glyph unicode="q" horiz-adv-x="1306" d="M102 504q0 115 38 212t103.5 167.5t157 110.5t195.5 40q111 0 203 -43t159 -119h5l8 136h172v-1418h-205v521h-4q-66 -66 -152 -101t-186 -35q-104 0 -195.5 39t-157 110t-103.5 168t-38 212zM307 504q0 -74 23.5 -135.5t65.5 -105.5t100.5 -68.5t128.5 -24.5 q68 0 126 24.5t100 68.5t65.5 105.5t23.5 135.5t-23.5 135t-65.5 105t-100.5 69t-125.5 25q-70 0 -128.5 -25t-100.5 -69t-65.5 -105t-23.5 -135z" />
<glyph unicode="r" horiz-adv-x="802" d="M164 0v1008h172l10 -140h4q93 164 273 164q37 0 73.5 -6t65.5 -14l-41 -213q-35 10 -78 21t-82 11q-98 0 -145 -87t-47 -234v-510h-205z" />
<glyph unicode="s" horiz-adv-x="1001" d="M92 102l115 162q55 -47 134 -75.5t157 -28.5q104 0 150 36.5t46 79.5q0 53 -50 88t-183 66q-340 80 -340 318q0 59 25.5 111t73.5 90t118 60.5t160 22.5q117 0 220 -30.5t175 -79.5l-115 -164q-55 41 -126.5 65.5t-149.5 24.5q-88 0 -132 -31t-44 -72q0 -53 54 -82.5 t159 -54.5q100 -25 169.5 -58.5t111.5 -76.5t60.5 -93t18.5 -106q0 -61 -25.5 -115.5t-77 -95t-126 -65.5t-172.5 -25q-53 0 -112.5 10.5t-115 27t-102.5 40t-76 51.5z" />
<glyph unicode="t" horiz-adv-x="817" d="M66 819v189h167v340h205v-340h285v-189h-285v-538q0 -61 21.5 -88t66.5 -27q37 0 88.5 7t98.5 20l32 -187q-57 -14 -122.5 -23.5t-120.5 -9.5q-123 0 -196 66.5t-73 212.5v567h-167z" />
<glyph unicode="u" horiz-adv-x="1239" d="M143 420v588h205v-529q0 -86 18.5 -146.5t51.5 -97t77 -53t97 -16.5q63 0 114.5 25.5t88 68.5t56 101.5t19.5 123.5v523h205v-1008h-172l-8 131h-4q-70 -78 -164 -117t-192 -39q-78 0 -149 27t-125 81t-86 138t-32 199z" />
<glyph unicode="v" horiz-adv-x="1134" d="M41 1008h229l146 -344q14 -37 34.5 -92.5t41 -115t40 -117.5t33.5 -103h4q14 45 34 103t40.5 117.5t39.5 115t36 92.5l145 344h230l-437 -1008h-182z" />
<glyph unicode="w" horiz-adv-x="1554" d="M51 1008h223l99 -367q23 -82 44 -167t38 -157h4q20 70 44.5 152t51.5 160l131 379h182l131 -379q29 -78 52.5 -160t44.5 -152h4q18 72 38.5 157t43.5 167l100 367h221l-301 -1008h-182l-170 492q-16 49 -34.5 111.5t-35.5 121.5h-4q-16 -59 -35.5 -121.5t-35.5 -111.5 l-170 -492h-183z" />
<glyph unicode="x" horiz-adv-x="1212" d="M72 0l417 510l-405 498h256l264 -344h4l264 344h256l-405 -498l418 -510h-267l-266 358h-4l-266 -358h-266z" />
<glyph unicode="y" horiz-adv-x="1144" d="M41 1008h244l342 -742h4l248 742h225l-402 -1131q-31 -88 -65.5 -143.5t-73.5 -87t-83 -44t-95 -12.5q-43 0 -83 8.5t-77 18.5l35 184q35 -10 63.5 -14t63.5 -4q47 0 78 39t53 104l27 80z" />
<glyph unicode="z" horiz-adv-x="1026" d="M113 0v182l489 633v4h-467v189h735v-183l-491 -632v-5h514v-188h-780z" />
<glyph unicode="{" horiz-adv-x="712" d="M82 524v152h39q74 0 112.5 50t38.5 142v252q0 88 13.5 157t52.5 115t108.5 69.5t184.5 23.5v-152q-55 0 -89 -11t-53.5 -35.5t-25.5 -63.5t-6 -97v-235q0 -66 -7.5 -112t-22.5 -79.5t-40 -56t-59 -41.5v-4q37 -16 61.5 -38.5t39.5 -56.5t21.5 -80t6.5 -112v-235 q0 -57 6 -96t25.5 -64t53 -36t89.5 -11v-152q-115 0 -184.5 23.5t-108.5 70t-52.5 115t-13.5 156.5v252q0 92 -38.5 141t-112.5 49h-39z" />
<glyph unicode="|" horiz-adv-x="593" d="M205 -410v1895h184v-1895h-184z" />
<glyph unicode="}" horiz-adv-x="702" d="M82 -131q55 0 89 11t53.5 36t25.5 63.5t6 96.5v235q0 66 6 112t21.5 80t40 56.5t61.5 38.5v4q-35 18 -59.5 41t-40 56.5t-22.5 79.5t-7 112v235q0 57 -6 96.5t-25.5 64t-53.5 35.5t-89 11v152q113 0 183.5 -23.5t109.5 -69.5t52 -115t13 -157v-252q0 -92 39 -142t113 -50 h39v-152h-39q-74 0 -113 -49t-39 -141v-252q0 -88 -13 -156.5t-52 -115t-109.5 -70t-183.5 -23.5v152z" />
<glyph unicode="~" horiz-adv-x="1120" d="M113 451q41 78 111.5 134t156.5 58q47 0 96 -18.5t97.5 -40t93.5 -39t84 -17.5q45 0 82.5 37t62.5 78l111 -86q-41 -76 -111 -133t-156 -57q-49 0 -98 17t-97 38.5t-93 39t-84 17.5q-45 0 -82 -35.5t-64 -76.5z" />
<glyph unicode="&#xa1;" horiz-adv-x="522" d="M133 907q0 53 36 89t91 36q57 0 93 -36t36 -89t-36 -90t-93 -37q-55 0 -91 37t-36 90zM150 -389h221l-33 999h-154z" />
<glyph unicode="&#xa2;" d="M147 698q0 104 33 193.5t90.5 157t137 112.5t174.5 60v176h133v-170q104 -10 192 -53.5t154 -114.5l-143 -135q-39 45 -90.5 74.5t-112.5 39.5v-680q61 10 112.5 40t90.5 75l143 -135q-66 -72 -154 -115t-192 -53v-170h-133v176q-94 14 -174 59.5t-137.5 113t-90.5 156.5 t-33 193zM344 698q0 -127 65.5 -215t172.5 -116v663q-106 -29 -172 -117t-66 -215z" />
<glyph unicode="&#xa3;" d="M109 0v145l167 19v475h-165v133h165v123q0 106 27 194.5t80 151t133 96t189 33.5q61 0 117.5 -15.5t104.5 -42t86 -60t62 -70.5l-133 -129q-35 49 -91 90t-142 41q-127 0 -181.5 -78t-54.5 -211v-123h393v-133h-393v-465h627v-174h-991z" />
<glyph unicode="&#xa4;" d="M61 248l129 131q-53 66 -81.5 146.5t-28.5 172.5t28.5 173t81.5 147l-129 131l93 92l131 -129q66 53 146.5 82t172.5 29t173 -29t147 -82l131 129l92 -92l-129 -131q53 -66 81.5 -147t28.5 -173t-28.5 -173t-81.5 -146l129 -131l-92 -92l-131 129q-66 -53 -147 -82 t-173 -29t-173 28.5t-146 82.5l-131 -129zM248 698q0 -74 27.5 -138t76.5 -113.5t113.5 -77t138.5 -27.5t138.5 27.5t113.5 77t77 114t28 137.5q0 74 -28 138.5t-77 113.5t-113.5 77t-138.5 28t-138.5 -28t-113.5 -77t-76.5 -113.5t-27.5 -138.5z" />
<glyph unicode="&#xa5;" d="M43 1348h231l328 -517h4l328 517h231l-383 -572v-4h330v-133h-410v-147h410v-132h-410v-360h-196v360h-410v132h410v147h-410v133h330v4z" />
<glyph unicode="&#xa6;" horiz-adv-x="593" d="M205 -283v656h184v-656h-184zM205 827v658h184v-658h-184z" />
<glyph unicode="&#xa7;" horiz-adv-x="1200" d="M133 635q0 80 36 147.5t114 112.5v4q-63 51 -92 113.5t-29 134.5q0 70 27.5 131t83 107.5t137.5 73t190 26.5q121 0 239.5 -37t209.5 -100l-105 -148q-76 53 -160 83t-184 30q-133 0 -193.5 -48t-60.5 -114q0 -31 13.5 -60.5t45 -55t87 -49t139.5 -44.5 q231 -55 333.5 -144t102.5 -233q0 -80 -36 -147.5t-113 -112.5v-4q63 -49 91.5 -111.5t28.5 -136.5q0 -70 -27.5 -131t-83 -107t-137 -73t-190.5 -27q-121 0 -239.5 37t-210.5 101l106 147q76 -53 160 -83t184 -30q133 0 193.5 48.5t60.5 113.5q0 31 -13.5 60.5t-45 55 t-87 49.5t-139.5 44q-231 55 -333.5 144.5t-102.5 232.5zM315 641q0 -37 16.5 -68.5t54.5 -58.5t100.5 -50.5t152.5 -43.5q27 -4 49.5 -11.5t44.5 -13.5q78 20 114 65.5t36 98.5q0 76 -71 128t-251 93q-47 10 -94 25q-78 -20 -115 -65.5t-37 -98.5z" />
<glyph unicode="&#xa8;" horiz-adv-x="655" d="M12 1308q0 53 36 90t91 37q57 0 93 -36.5t36 -90.5q0 -53 -36 -90t-93 -37q-55 0 -91 37t-36 90zM403 1308q0 53 36 90t91 37q57 0 93 -36.5t36 -90.5q0 -53 -36 -90t-93 -37q-55 0 -91 37t-36 90z" />
<glyph unicode="&#xa9;" horiz-adv-x="1669" d="M92 600q0 154 58.5 290t159 236.5t236.5 158.5t290 58t289 -58t235 -158.5t158.5 -236.5t58.5 -290t-58.5 -289t-158.5 -235.5t-235.5 -158.5t-288.5 -58q-154 0 -290 58t-236.5 158.5t-159 235.5t-58.5 289zM195 600q0 -133 50 -248.5t137 -203t204 -137.5t250 -50 q131 0 247.5 50t203.5 137.5t137.5 203t50.5 248.5t-50.5 250t-137.5 204t-203.5 137t-247.5 50q-133 0 -250 -50t-204 -137t-137 -204t-50 -250zM426 600q0 90 31.5 168t88 134t132.5 89t166 33q98 0 180 -36t139 -101l-102 -92q-82 100 -217 100q-61 0 -113.5 -21.5 t-89.5 -61.5t-58.5 -94t-21.5 -118q0 -63 21.5 -117.5t58.5 -93.5t89.5 -61.5t113.5 -22.5q139 0 221 105l104 -88q-59 -70 -142 -107t-183 -37q-90 0 -166 32t-132.5 89t-88 134t-31.5 167z" />
<glyph unicode="&#xaa;" horiz-adv-x="837" d="M92 893q0 117 80 179.5t227 62.5q47 0 94.5 -4.5t94.5 -12.5v21q0 137 -174 137q-55 0 -114.5 -14.5t-117.5 -49.5l-69 121q68 35 145.5 56.5t155.5 21.5q166 0 243.5 -80t77.5 -219v-440h-125l-4 84h-4q-41 -47 -102.5 -75t-139.5 -28q-129 0 -198.5 70t-69.5 170z M240 893q0 -57 45 -84t104 -27q35 0 71 10.5t64.5 33t46 57.5t17.5 82v16q-49 10 -89 15t-81 5q-78 0 -128 -22.5t-50 -85.5z" />
<glyph unicode="&#xab;" horiz-adv-x="987" d="M72 504l321 493l139 -75l-272 -418l272 -418l-139 -76zM434 504l321 493l139 -75l-272 -418l272 -418l-139 -76z" />
<glyph unicode="&#xac;" horiz-adv-x="1269" d="M92 672v188h1086v-608h-197v420h-889z" />
<glyph unicode="&#xad;" horiz-adv-x="727" d="M92 469v174h543v-174h-543z" />
<glyph unicode="&#xae;" horiz-adv-x="1669" d="M92 600q0 154 58.5 290t159 236.5t236.5 158.5t290 58t289 -58t235 -158.5t158.5 -236.5t58.5 -290t-58.5 -289t-158.5 -235.5t-235.5 -158.5t-288.5 -58q-154 0 -290 58t-236.5 158.5t-159 235.5t-58.5 289zM195 600q0 -133 50 -248.5t137 -203t204 -137.5t250 -50 q131 0 247.5 50t203.5 137.5t137.5 203t50.5 248.5t-50.5 250t-137.5 204t-203.5 137t-247.5 50q-133 0 -250 -50t-204 -137t-137 -204t-50 -250zM537 197v817h358q131 0 206 -67.5t75 -184.5q0 -86 -44.5 -146.5t-121.5 -87.5l194 -340h-162l-174 324h-196v-315h-135z M672 643h223q143 0 143 119q0 121 -143 121h-223v-240z" />
<glyph unicode="&#xaf;" horiz-adv-x="655" d="M39 1223v133h577v-133h-577z" />
<glyph unicode="&#xb0;" horiz-adv-x="813" d="M82 1100q0 68 24.5 126t67.5 102t102.5 68.5t131.5 24.5q70 0 129 -24.5t102 -68.5t67.5 -102.5t24.5 -125.5q0 -68 -24.5 -127.5t-67.5 -103.5t-102.5 -69.5t-128.5 -25.5q-72 0 -131.5 25.5t-102.5 69.5t-67.5 103.5t-24.5 127.5zM215 1102q0 -86 51.5 -141.5 t141.5 -55.5q88 0 140 55.5t52 141.5t-52 141t-140 55q-90 0 -141.5 -55t-51.5 -141z" />
<glyph unicode="&#xb1;" d="M129 0v174h950v-174h-950zM129 709v174h385v389h180v-389h385v-174h-385v-389h-180v389h-385z" />
<glyph unicode="&#xb2;" horiz-adv-x="729" d="M74 1489q23 115 98.5 174t194.5 59q127 0 199.5 -71.5t72.5 -182.5q0 -72 -41 -138t-106 -130l-179 -180v-4q31 2 66 3t72 1h182v-146h-553v132l278 278q63 66 93 103.5t30 82.5q0 47 -29.5 75t-84.5 28q-111 0 -131 -125z" />
<glyph unicode="&#xb3;" horiz-adv-x="761" d="M90 958l115 107q29 -29 67.5 -44t96.5 -15q72 0 108.5 29.5t36.5 82.5q0 41 -31.5 75t-122.5 34h-102v147h104q72 0 105 30t33 75t-36 71.5t-104 26.5q-49 0 -85.5 -15.5t-67.5 -39.5l-113 110q119 90 275 90q141 0 214.5 -68.5t73.5 -168.5q0 -117 -96 -176v-4 q59 -35 85 -86.5t26 -104.5q0 -113 -76 -184.5t-227 -71.5q-80 0 -157 26.5t-122 73.5z" />
<glyph unicode="&#xb4;" horiz-adv-x="655" d="M211 1217l256 288l141 -98l-297 -262z" />
<glyph unicode="&#xb5;" horiz-adv-x="1239" d="M164 -410v1418h205v-529q0 -86 18.5 -146.5t51 -97t76.5 -53t97 -16.5q63 0 114.5 25.5t88.5 68.5t56.5 101.5t19.5 123.5v523h205v-1008h-172l-9 125h-4q-66 -76 -151.5 -114t-177.5 -38q-119 0 -209 66h-4v-449h-205z" />
<glyph unicode="&#xb6;" horiz-adv-x="1216" d="M82 991q0 98 35 173t95 127t139 79t167 27h535v-1680h-185v1514h-166v-1514h-184v869q-88 0 -167 26.5t-139 78.5t-95 128t-35 172z" />
<glyph unicode="&#xb7;" horiz-adv-x="481" d="M112 503q0 53 36 90t91 37q57 0 93 -36.5t36 -90.5q0 -53 -36 -90t-93 -37q-55 0 -91 37t-36 90z" />
<glyph unicode="&#xb8;" horiz-adv-x="655" d="M123 -352l43 82q33 -20 76 -33.5t90 -13.5q45 0 70.5 19t25.5 56q0 29 -23.5 49.5t-74.5 20.5q-20 0 -37 -2t-27 -6l-67 41l77 139h121l-49 -86v-6q2 0 4 2q117 0 173.5 -45.5t56.5 -108.5q0 -72 -56.5 -119t-173.5 -47q-59 0 -120.5 15.5t-108.5 42.5z" />
<glyph unicode="&#xb9;" horiz-adv-x="604" d="M70 1612l254 102h120v-840h-157v670l-170 -65z" />
<glyph unicode="&#xba;" horiz-adv-x="909" d="M82 1032q0 82 28.5 151.5t79 120t118 79t147.5 28.5t148.5 -28.5t117.5 -79t77.5 -120t28.5 -151.5q0 -84 -28.5 -152.5t-77.5 -119.5t-117.5 -79t-148.5 -28t-147.5 28t-118 79t-79 119.5t-28.5 152.5zM229 1032q0 -109 64 -174t162 -65t162.5 65.5t64.5 173.5 q0 106 -64.5 173t-162.5 67t-162 -66.5t-64 -173.5z" />
<glyph unicode="&#xbb;" horiz-adv-x="987" d="M92 86l273 418l-273 418l139 75l322 -493l-322 -494zM454 86l273 418l-273 418l139 75l322 -493l-322 -494z" />
<glyph unicode="&#xbc;" horiz-adv-x="1724" d="M90 1300l254 102h120v-840h-157v670l-170 -65zM450 8l610 1436l132 -55l-611 -1436zM895 291l393 545h156v-541h94v-143h-94v-150h-158v150h-381zM1071 295h215v291h-4l-211 -287v-4z" />
<glyph unicode="&#xbd;" horiz-adv-x="1724" d="M90 1300l254 102h120v-840h-157v670l-170 -65zM450 8l610 1436l132 -55l-611 -1436zM1053 615q23 115 98.5 174t194.5 59q127 0 199.5 -71.5t72.5 -182.5q0 -72 -41 -138t-106 -130l-179 -180v-4q31 2 66 3t72 1h182v-146h-553v132l278 278q63 66 93 103.5t30 82.5 q0 47 -29.5 75t-84.5 28q-111 0 -131 -125z" />
<glyph unicode="&#xbe;" horiz-adv-x="1724" d="M94 647l115 107q29 -29 67.5 -44t96.5 -15q72 0 108.5 29.5t36.5 82.5q0 41 -31.5 75t-122.5 34h-102v147h104q72 0 105 30t33 75t-36 71.5t-104 26.5q-49 0 -85.5 -15.5t-67.5 -39.5l-113 110q119 90 275 90q141 0 214.5 -68.5t73.5 -168.5q0 -117 -96 -176v-4 q59 -35 85 -86.5t26 -104.5q0 -113 -76 -184.5t-227 -71.5q-80 0 -157 26.5t-122 73.5zM536 8l610 1436l132 -55l-611 -1436zM981 291l393 545h156v-541h94v-143h-94v-150h-158v150h-381zM1157 295h215v291h-4l-211 -287v-4z" />
<glyph unicode="&#xbf;" horiz-adv-x="1165" d="M133 -63q0 55 19.5 101t53.5 89t81 86t104 94q33 31 54.5 58.5t34 62.5t16.5 78t6 104h170q0 -80 -4 -139t-19.5 -107.5t-42 -87t-69.5 -77.5q-47 -43 -83 -76t-62.5 -62.5t-40 -59.5t-13.5 -67q0 -70 64.5 -114.5t183.5 -44.5q106 0 175.5 49t92.5 153l199 -57 q-45 -158 -163 -247t-304 -89q-111 0 -196 28t-142.5 76t-86 112.5t-28.5 136.5zM459 907q0 53 35.5 90t91.5 37q57 0 93 -36.5t36 -90.5q0 -53 -36 -90t-93 -37q-55 0 -91 37t-36 90z" />
<glyph unicode="&#xc0;" horiz-adv-x="1466" d="M31 0h235l135 315h662l135 -315h238l-611 1397h-186zM473 1796l141 98l256 -288l-100 -72zM487 516q63 152 124 302t120 302h4q59 -152 119.5 -302t124.5 -302h-492z" />
<glyph unicode="&#xc1;" horiz-adv-x="1466" d="M31 0l608 1397h186l611 -1397h-238l-135 315h-662l-135 -315h-235zM487 516h492q-63 152 -123.5 302.5t-120.5 301.5h-4q-59 -151 -119.5 -301.5t-124.5 -302.5zM627 1606l256 288l141 -98l-297 -262z" />
<glyph unicode="&#xc2;" horiz-adv-x="1466" d="M31 0l608 1397h186l611 -1397h-238l-135 315h-662l-135 -315h-235zM422 1599l230 258h164l229 -258l-102 -69l-209 200l-209 -200zM487 516h492q-63 152 -123.5 302.5t-120.5 301.5h-4q-59 -151 -119.5 -301.5t-124.5 -302.5z" />
<glyph unicode="&#xc3;" horiz-adv-x="1466" d="M31 0l608 1397h186l611 -1397h-238l-135 315h-662l-135 -315h-235zM377 1614q29 70 84.5 119t126.5 49q41 0 80 -14.5t75 -31t69.5 -30.5t66.5 -14q35 0 59.5 25.5t42.5 62.5l109 -60q-29 -72 -84 -120t-127 -48q-45 0 -83 14.5t-72.5 31t-67.5 30.5t-66 14 q-35 0 -60.5 -26.5t-43.5 -61.5zM487 516h492q-63 152 -123.5 302.5t-120.5 301.5h-4q-59 -151 -119.5 -301.5t-124.5 -302.5z" />
<glyph unicode="&#xc4;" horiz-adv-x="1466" d="M31 0l608 1397h186l611 -1397h-238l-135 315h-662l-135 -315h-235zM418 1697q0 53 36 90t91 37q57 0 93 -36.5t36 -90.5q0 -53 -36 -90t-93 -37q-55 0 -91 37t-36 90zM487 516h492q-63 152 -123.5 302.5t-120.5 301.5h-4q-59 -151 -119.5 -301.5t-124.5 -302.5zM807 1697 q0 53 36 90t91 37q57 0 93 -36.5t36 -90.5q0 -53 -36 -90t-93 -37q-55 0 -91 37t-36 90z" />
<glyph unicode="&#xc5;" horiz-adv-x="1466" d="M31 0l608 1397h186l611 -1397h-238l-135 315h-662l-135 -315h-235zM487 516h492q-63 152 -123.5 302.5t-120.5 301.5h-4q-59 -151 -119.5 -301.5t-124.5 -302.5zM490 1749q0 49 18.5 92t51 74t77 48t97.5 17q51 0 96 -17t78 -48t51 -74t18 -92t-18 -91t-50 -73t-77 -48 t-98 -17t-98.5 17t-77 48t-50 73t-18.5 91zM592 1749q0 -59 39.5 -97t102.5 -38t102 38t39 97t-39 98t-102 39t-102.5 -39t-39.5 -98z" />
<glyph unicode="&#xc6;" horiz-adv-x="2217" d="M20 0l992 1397h1054v-201h-718l16 -389h645v-201h-637l19 -405h694v-201h-686h-211l-12 315h-672l-223 -315h-261zM643 516h522l-28 703h-4q-51 -74 -118 -169.5t-135.5 -192.5t-131 -187t-105.5 -154z" />
<glyph unicode="&#xc7;" horiz-adv-x="1474" d="M109 698q0 158 55 291t151.5 229.5t227.5 149.5t282 53q166 0 306.5 -60.5t238.5 -174.5l-160 -142q-68 84 -167 131.5t-218 47.5q-109 0 -201 -38t-159.5 -107.5t-106.5 -166t-39 -213.5t39 -214t106.5 -165.5t160 -107.5t200.5 -39q123 0 223.5 50t168.5 136l161 -139 q-94 -113 -229 -176t-295 -68l-35 -61v-6q2 0 4 2q117 0 172.5 -45t55.5 -109q0 -72 -55.5 -119t-172.5 -47q-59 0 -120.5 15.5t-108.5 42.5l43 82q33 -20 75 -33.5t91 -13.5q45 0 70.5 19t25.5 56q0 29 -23.5 49.5t-74.5 20.5q-20 0 -36.5 -2t-27.5 -6l-67 41l65 119 q-135 14 -249.5 73.5t-198.5 153.5t-131 219t-47 272z" />
<glyph unicode="&#xc8;" horiz-adv-x="1247" d="M174 0v1397h922v-201h-711v-389h653v-201h-653v-405h729v-201h-940zM412 1796l141 98l256 -288l-100 -72z" />
<glyph unicode="&#xc9;" horiz-adv-x="1247" d="M174 0h940v201h-729v405h653v201h-653v389h711v201h-922v-1397zM565 1606l256 288l142 -98l-297 -262z" />
<glyph unicode="&#xca;" horiz-adv-x="1247" d="M174 0h940v201h-729v405h653v201h-653v389h711v201h-922v-1397zM340 1599l229 259h164l228 -259l-101 -69l-209 201l-209 -201z" />
<glyph unicode="&#xcb;" horiz-adv-x="1247" d="M174 0h940v201h-729v405h653v201h-653v389h711v201h-922v-1397zM336 1698q0 49 34 84t87 35t85.5 -35t32.5 -84q0 -47 -32.5 -82t-85.5 -35t-87 35t-34 82zM725 1698q0 53 36 90t91 37q57 0 93 -37t36 -90t-36 -90t-93 -37q-55 0 -91 37t-36 90z" />
<glyph unicode="&#xcc;" horiz-adv-x="559" d="M8 1796l141 98l256 -288l-100 -72zM174 0v1397h211v-1397h-211z" />
<glyph unicode="&#xcd;" horiz-adv-x="559" d="M154 1606l258 288l139 -98l-297 -262zM174 0h211v1397h-211v-1397z" />
<glyph unicode="&#xce;" horiz-adv-x="559" d="M-31 1599l230 259h161l230 -259l-101 -69l-208 201l-211 -201zM174 0h211v1397h-211v-1397z" />
<glyph unicode="&#xcf;" horiz-adv-x="559" d="M-35 1698q0 49 33 84t86 35t87 -35t34 -84q0 -47 -34 -82t-87 -35t-86 35t-33 82zM174 0h211v1397h-211v-1397zM354 1698q0 53 36 90t91 37q57 0 93 -37t36 -90t-35.5 -90t-93.5 -37q-55 0 -91 37t-36 90z" />
<glyph unicode="&#xd0;" horiz-adv-x="1449" d="M35 610v176h139v611h442q162 0 296.5 -47t229.5 -136.5t147 -219.5t52 -296t-52 -296t-147 -219t-229.5 -136t-296.5 -47h-442v610h-139zM385 201h223q244 0 382 123.5t138 373.5t-138 374t-382 124h-223v-410h356v-176h-356v-409z" />
<glyph unicode="&#xd1;" horiz-adv-x="1495" d="M174 0v1397h186l750 -1024h4q-2 78 -3 167t-1 167v690h211v-1397h-186l-752 1024h-4q4 -78 5 -167t1 -167v-690h-211zM377 1614q29 70 84.5 119t126.5 49q41 0 80 -14.5t75 -31t69.5 -30.5t66.5 -14q35 0 59.5 25.5t42.5 62.5l109 -60q-29 -72 -84 -120t-127 -48 q-45 0 -83 14.5t-72.5 31t-67.5 30.5t-66 14q-35 0 -60.5 -26.5t-43.5 -61.5z" />
<glyph unicode="&#xd2;" horiz-adv-x="1648" d="M109 698q0 158 55 291t151.5 229.5t227.5 149.5t282 53q152 0 282 -53t226.5 -149.5t151.5 -229.5t55 -291t-55 -291t-151.5 -229t-226.5 -150.5t-282 -54.5t-282.5 54.5t-227 150.5t-151.5 229.5t-55 290.5zM319 698q0 -117 39 -214t106.5 -165.5t160 -107.5t200.5 -39 q106 0 198.5 39t160 107.5t106.5 165.5t39 214t-39 213.5t-106.5 166t-159.5 107.5t-199 38q-109 0 -201 -38t-159.5 -107.5t-106.5 -166t-39 -213.5zM553 1796l141 98l256 -288l-100 -72z" />
<glyph unicode="&#xd3;" horiz-adv-x="1648" d="M109 698q0 -158 55 -291t151.5 -229t227.5 -150.5t282 -54.5q152 0 282 54.5t226.5 150.5t151.5 229t55 291t-55 291t-151.5 229.5t-226.5 149.5t-282 53t-282.5 -53t-227 -149.5t-151.5 -229.5t-55 -291zM319 698q0 117 39 213.5t106.5 166t160 107.5t200.5 38 q106 0 198.5 -38t160 -107.5t106.5 -166t39 -213.5t-39 -214t-106.5 -165.5t-159.5 -107.5t-199 -39q-109 0 -201 39t-159.5 107.5t-106.5 166t-39 213.5zM692 1606l256 288l142 -98l-297 -262z" />
<glyph unicode="&#xd4;" horiz-adv-x="1648" d="M109 698q0 -158 55 -291t151.5 -229t227.5 -150.5t282 -54.5q152 0 282 54.5t226.5 150.5t151.5 229t55 291t-55 291t-151.5 229.5t-226.5 149.5t-282 53t-282.5 -53t-227 -149.5t-151.5 -229.5t-55 -291zM319 698q0 117 39 213.5t106.5 166t160 107.5t200.5 38 q106 0 198.5 -38t160 -107.5t106.5 -166t39 -213.5t-39 -214t-106.5 -165.5t-159.5 -107.5t-199 -39q-109 0 -201 39t-159.5 107.5t-106.5 166t-39 213.5zM514 1599l229 259h164l230 -259l-103 -69l-209 201l-209 -201z" />
<glyph unicode="&#xd5;" horiz-adv-x="1648" d="M109 698q0 -158 55 -291t151.5 -229t227.5 -150.5t282 -54.5q152 0 282 54.5t226.5 150.5t151.5 229t55 291t-55 291t-151.5 229.5t-226.5 149.5t-282 53t-282.5 -53t-227 -149.5t-151.5 -229.5t-55 -291zM319 698q0 117 39 213.5t106.5 166t160 107.5t200.5 38 q106 0 198.5 -38t160 -107.5t106.5 -166t39 -213.5t-39 -214t-106.5 -165.5t-159.5 -107.5t-199 -39q-109 0 -201 39t-159.5 107.5t-106.5 166t-39 213.5zM469 1614q29 70 84 119t127 49q41 0 80 -14.5t74.5 -31t69.5 -30.5t67 -14q35 0 59.5 25.5t42.5 62.5l109 -60 q-29 -72 -84 -120t-127 -48q-45 0 -83 14.5t-73 31t-67.5 30.5t-65.5 14q-35 0 -60.5 -26.5t-43.5 -61.5z" />
<glyph unicode="&#xd6;" horiz-adv-x="1648" d="M109 698q0 -158 55 -291t151.5 -229t227.5 -150.5t282 -54.5q152 0 282 54.5t226.5 150.5t151.5 229t55 291t-55 291t-151.5 229.5t-226.5 149.5t-282 53t-282.5 -53t-227 -149.5t-151.5 -229.5t-55 -291zM319 698q0 117 39 213.5t106.5 166t160 107.5t200.5 38 q106 0 198.5 -38t160 -107.5t106.5 -166t39 -213.5t-39 -214t-106.5 -165.5t-159.5 -107.5t-199 -39q-109 0 -201 39t-159.5 107.5t-106.5 166t-39 213.5zM510 1698q0 53 36 90t91 37q57 0 93 -37t36 -90t-36 -90t-93 -37q-55 0 -91 37t-36 90zM899 1698q0 53 36 90t91 37 q57 0 93 -37t36 -90t-36 -90t-93 -37q-55 0 -91 37t-36 90z" />
<glyph unicode="&#xd7;" d="M135 211l346 344l-346 346l125 123l344 -344l344 344l125 -123l-346 -346l346 -344l-125 -123l-344 344l-344 -344z" />
<glyph unicode="&#xd8;" horiz-adv-x="1648" d="M109 698q0 154 53 287t148.5 230.5t226.5 152.5t286 55q127 0 244 -40t215 -119l156 159l94 -94l-156 -158q84 -100 124 -222t40 -251q0 -154 -53 -286.5t-148.5 -229t-227.5 -152t-288 -55.5q-125 0 -241.5 39t-214.5 119l-156 -160l-94 95l155 157q-84 100 -123.5 222 t-39.5 251zM319 698q0 -86 24 -169t75 -154l723 743q-68 53 -150 80t-168 27q-113 0 -206 -41t-158.5 -112t-102.5 -167t-37 -207zM508 279q68 -53 148.5 -79t166.5 -26q113 0 207 40t159.5 110.5t102.5 167t37 206.5q0 86 -23.5 169t-74.5 155z" />
<glyph unicode="&#xd9;" horiz-adv-x="1423" d="M154 518v879h211v-871q0 -90 26.5 -155.5t72.5 -109.5t109.5 -65.5t137.5 -21.5t138 21.5t110.5 65.5t73 109.5t26.5 155.5v871h211v-879q0 -133 -41 -234.5t-116 -170t-177 -104.5t-225 -36t-225.5 36t-176 104.5t-114.5 170t-41 234.5zM475 1796l141 98l256 -288 l-100 -72z" />
<glyph unicode="&#xda;" horiz-adv-x="1423" d="M154 518q0 -133 41 -234.5t114.5 -170t176 -104.5t225.5 -36t225 36t177 104.5t116 170t41 234.5v879h-211v-871q0 -90 -26.5 -155.5t-73 -109.5t-111 -65.5t-137.5 -21.5q-74 0 -137.5 21.5t-109.5 65.5t-72.5 109.5t-26.5 155.5v871h-211v-879zM627 1606l256 288 l141 -98l-297 -262z" />
<glyph unicode="&#xdb;" horiz-adv-x="1423" d="M154 518q0 -133 41 -234.5t114.5 -170t176 -104.5t225.5 -36t225 36t177 104.5t116 170t41 234.5v879h-211v-871q0 -90 -26.5 -155.5t-73 -109.5t-111 -65.5t-137.5 -21.5q-74 0 -137.5 21.5t-109.5 65.5t-72.5 109.5t-26.5 155.5v871h-211v-879zM401 1599l228 259h164 l229 -259l-102 -69l-209 201l-209 -201z" />
<glyph unicode="&#xdc;" horiz-adv-x="1423" d="M154 518q0 -133 41 -234.5t114.5 -170t176 -104.5t225.5 -36t225 36t177 104.5t116 170t41 234.5v879h-211v-871q0 -90 -26.5 -155.5t-73 -109.5t-111 -65.5t-137.5 -21.5q-74 0 -137.5 21.5t-109.5 65.5t-72.5 109.5t-26.5 155.5v871h-211v-879zM397 1698q0 49 33 84 t86 35t87 -35t34 -84q0 -47 -34 -82t-87 -35t-86 35t-33 82zM786 1698q0 53 36 90t91 37q57 0 93 -37t36 -90t-35.5 -90t-93.5 -37q-55 0 -91 37t-36 90z" />
<glyph unicode="&#xdd;" horiz-adv-x="1378" d="M41 1397l543 -805v-592h211v592l542 805h-254l-391 -615h-4l-393 615h-254zM553 1606l258 288l141 -98l-297 -262z" />
<glyph unicode="&#xde;" horiz-adv-x="1333" d="M174 0v1397h211v-264h373q115 0 203 -32t148 -89.5t91 -137.5t31 -176t-31 -176t-91 -137t-148.5 -89t-202.5 -32h-373v-264h-211zM385 465h371q139 0 200.5 66.5t61.5 166.5t-61.5 167t-200.5 67h-371v-467z" />
<glyph unicode="&#xdf;" horiz-adv-x="1273" d="M164 0v1075q0 98 31.5 179t90 137.5t140.5 87t184 30.5q94 0 177 -24.5t142.5 -71.5t94.5 -113.5t35 -152.5q0 -96 -50.5 -168t-115.5 -113v-4q135 -51 206.5 -154.5t71.5 -238.5q0 -111 -32.5 -203t-94 -156.5t-146.5 -100.5t-189 -36q-82 0 -135.5 8.5t-94.5 18.5 l56 190q29 -8 65.5 -14t79.5 -6q135 0 211 73.5t76 223.5q0 131 -81 212t-218 81h-107v180h72q98 0 159.5 52t61.5 138q0 92 -65.5 138.5t-178.5 46.5q-104 0 -172.5 -58.5t-68.5 -175.5v-1081h-205z" />
<glyph unicode="&#xe0;" horiz-adv-x="1142" d="M102 311q0 -70 25 -131t73 -107t117.5 -73t161.5 -27q111 0 195 40t141 108h6l6 -121h172v616q0 193 -108.5 305.5t-339.5 112.5q-109 0 -216.5 -30.5t-201.5 -77.5l96 -170q80 51 162 70.5t162 19.5q242 0 242 -193v-28q-66 10 -132.5 16t-132.5 6q-205 0 -316.5 -87 t-111.5 -249zM307 311q0 88 71 121t179 33q57 0 113.5 -7t124.5 -22v-26q0 -66 -25 -114t-64.5 -79t-89 -46t-98.5 -15q-43 0 -81 9t-66.5 27.5t-46 48t-17.5 70.5zM315 1407l142 98l256 -288l-101 -72z" />
<glyph unicode="&#xe1;" horiz-adv-x="1142" d="M102 311q0 162 112 249t316 87q66 0 132.5 -6t132.5 -16v28q0 193 -242 193q-80 0 -162 -19.5t-162 -70.5l-96 170q94 47 201.5 77.5t216.5 30.5q231 0 339.5 -112.5t108.5 -305.5v-616h-172l-8 121h-4q-57 -68 -141 -108t-195 -40q-92 0 -161.5 27t-117.5 73t-73 107.5 t-25 130.5zM307 311q0 -41 17.5 -70.5t46 -48t66.5 -27.5t81 -9q49 0 98.5 15t89 46t64.5 79t25 114v26q-68 14 -124.5 21.5t-113.5 7.5q-109 0 -179.5 -33t-70.5 -121zM414 1217l256 288l141 -98l-297 -262z" />
<glyph unicode="&#xe2;" horiz-adv-x="1142" d="M102 311q0 162 112 249t316 87q66 0 132.5 -6t132.5 -16v28q0 193 -242 193q-80 0 -162 -19.5t-162 -70.5l-96 170q94 47 201.5 77.5t216.5 30.5q231 0 339.5 -112.5t108.5 -305.5v-616h-172l-8 121h-4q-57 -68 -141 -108t-195 -40q-92 0 -161.5 27t-117.5 73t-73 107.5 t-25 130.5zM245 1210l230 258h164l229 -258l-102 -69l-209 200l-209 -200zM307 311q0 -41 17.5 -70.5t46 -48t66.5 -27.5t81 -9q49 0 98.5 15t89 46t64.5 79t25 114v26q-68 14 -124.5 21.5t-113.5 7.5q-109 0 -179.5 -33t-70.5 -121z" />
<glyph unicode="&#xe3;" horiz-adv-x="1142" d="M102 311q0 162 112 249t316 87q66 0 132.5 -6t132.5 -16v28q0 193 -242 193q-80 0 -162 -19.5t-162 -70.5l-96 170q94 47 201.5 77.5t216.5 30.5q231 0 339.5 -112.5t108.5 -305.5v-616h-172l-8 121h-4q-57 -68 -141 -108t-195 -40q-92 0 -161.5 27t-117.5 73t-73 107.5 t-25 130.5zM202 1225q29 70 84.5 119t126.5 49q41 0 80 -14.5t75 -31t69.5 -30.5t66.5 -14q35 0 59.5 25.5t42.5 62.5l109 -60q-29 -72 -84 -120t-127 -48q-45 0 -83 14.5t-72.5 31t-67.5 30.5t-66 14q-35 0 -60.5 -26.5t-43.5 -61.5zM307 311q0 -41 17.5 -70.5t46 -48 t66.5 -27.5t81 -9q49 0 98.5 15t89 46t64.5 79t25 114v26q-68 14 -124.5 21.5t-113.5 7.5q-109 0 -179.5 -33t-70.5 -121z" />
<glyph unicode="&#xe4;" horiz-adv-x="1142" d="M102 311q0 162 112 249t316 87q66 0 132.5 -6t132.5 -16v28q0 193 -242 193q-80 0 -162 -19.5t-162 -70.5l-96 170q94 47 201.5 77.5t216.5 30.5q231 0 339.5 -112.5t108.5 -305.5v-616h-172l-8 121h-4q-57 -68 -141 -108t-195 -40q-92 0 -161.5 27t-117.5 73t-73 107.5 t-25 130.5zM254 1308q0 53 36 90t91 37q57 0 93 -36.5t36 -90.5q0 -53 -36 -90t-93 -37q-55 0 -91 37t-36 90zM307 311q0 -41 17.5 -70.5t46 -48t66.5 -27.5t81 -9q49 0 98.5 15t89 46t64.5 79t25 114v26q-68 14 -124.5 21.5t-113.5 7.5q-109 0 -179.5 -33t-70.5 -121z M643 1308q0 53 36 90t91 37q57 0 93 -36.5t36 -90.5q0 -53 -36 -90t-93 -37q-55 0 -91 37t-36 90z" />
<glyph unicode="&#xe5;" horiz-adv-x="1142" d="M102 311q0 162 112 249t316 87q66 0 132.5 -6t132.5 -16v28q0 193 -242 193q-80 0 -162 -19.5t-162 -70.5l-96 170q94 47 201.5 77.5t216.5 30.5q231 0 339.5 -112.5t108.5 -305.5v-616h-172l-8 121h-4q-57 -68 -141 -108t-195 -40q-92 0 -161.5 27t-117.5 73t-73 107.5 t-25 130.5zM307 311q0 -41 17.5 -70.5t46 -48t66.5 -27.5t81 -9q49 0 98.5 15t89 46t64.5 79t25 114v26q-68 14 -124.5 21.5t-113.5 7.5q-109 0 -179.5 -33t-70.5 -121zM313 1362q0 49 18.5 92t51 74t77 48t97.5 17q51 0 96 -17t78 -48t51 -74t18 -92t-18 -91t-50 -73 t-77 -48t-98 -17t-98.5 17t-77 48t-50 73t-18.5 91zM415 1362q0 -59 39.5 -97t102.5 -38t102 38t39 97t-39 98t-102 39t-102.5 -39t-39.5 -98z" />
<glyph unicode="&#xe6;" horiz-adv-x="1869" d="M106 311q0 162 112 250t317 88q66 0 132 -7t132 -17v28q0 193 -242 193q-80 0 -162 -19.5t-162 -70.5l-96 170q94 47 201.5 77.5t216.5 30.5q139 0 230.5 -41t142.5 -119h4q63 76 153.5 117t202.5 41q106 0 195.5 -35.5t153 -102.5t96.5 -161q31 -84 30 -186v-25v-28 q0 -14 -1 -33t-3 -41h-747q23 -127 102.5 -191.5t196.5 -64.5q78 0 146.5 32.5t115.5 92.5l147 -139q-72 -82 -179 -129.5t-234 -47.5q-123 0 -223.5 50.5t-168.5 138.5h-4q-72 -96 -183.5 -142.5t-244.5 -46.5q-92 0 -161.5 27t-117.5 73t-73 107.5t-25 130.5zM311 311 q0 -41 17.5 -70.5t46 -48t66.5 -27.5t81 -9q49 0 98.5 15t89.5 46t64.5 79t24.5 114v26q-68 12 -124.5 21.5t-113.5 9.5q-111 0 -180.5 -34t-69.5 -122zM1012 600h536q-16 127 -82.5 185.5t-175.5 58.5q-117 0 -187.5 -63.5t-90.5 -180.5z" />
<glyph unicode="&#xe7;" horiz-adv-x="1110" d="M102 504q0 115 40 212t110 167.5t165 109.5t206 39q121 0 220 -45t171 -125l-148 -139q-86 115 -243 115q-68 0 -126.5 -25t-100.5 -69t-65.5 -105t-23.5 -135t23.5 -135.5t65.5 -105.5t100.5 -68.5t126.5 -24.5q80 0 142 30.5t103 86.5l150 -137q-66 -76 -154 -120 t-194 -55l-35 -61v-6l2 2q117 0 173 -45.5t56 -108.5q0 -72 -56 -119t-173 -47q-59 0 -120.5 15.5t-108.5 42.5l43 82q33 -20 75.5 -33.5t89.5 -13.5q45 0 72 19t27 56q0 29 -24.5 49.5t-76.5 20.5q-20 0 -36.5 -2t-26.5 -6l-68 41l64 114v5q-96 12 -178 56t-141.5 113.5 t-92.5 159.5t-33 195z" />
<glyph unicode="&#xe8;" horiz-adv-x="1173" d="M102 502q0 -115 38 -212t105.5 -168t161 -111t203.5 -40q127 0 234.5 47.5t179.5 128.5l-147 140q-47 -59 -117 -92t-146 -33q-117 0 -197.5 64.5t-103.5 191.5h750q0 23 1 41t1 33v28v27q0 100 -29 184q-33 94 -96 160.5t-152.5 102.5t-195.5 36q-109 0 -199 -39 t-154.5 -109.5t-100.5 -168t-36 -211.5zM315 598q20 117 91 180.5t188 63.5q109 0 175.5 -58.5t82.5 -185.5h-537zM330 1407l141 98l256 -288l-100 -72z" />
<glyph unicode="&#xe9;" horiz-adv-x="1173" d="M102 502q0 115 36 212t100.5 167.5t154.5 109.5t199 39q106 0 195.5 -36t153 -102.5t95.5 -160.5q29 -84 29 -184v-27v-28q0 -14 -1 -33t-1 -41h-750q23 -127 104 -191.5t197 -64.5q76 0 145.5 32.5t117.5 92.5l147 -140q-72 -82 -179.5 -129t-234.5 -47q-111 0 -204 40 t-160.5 111t-105.5 168t-38 212zM315 598h537q-16 127 -82.5 185.5t-175.5 58.5q-117 0 -187.5 -63.5t-91.5 -180.5zM447 1217l256 288l141 -98l-297 -262z" />
<glyph unicode="&#xea;" horiz-adv-x="1173" d="M102 502q0 115 36 212t100.5 167.5t154.5 109.5t199 39q106 0 195.5 -36t153 -102.5t95.5 -160.5q29 -84 29 -184v-27v-28q0 -14 -1 -33t-1 -41h-750q23 -127 104 -191.5t197 -64.5q76 0 145.5 32.5t117.5 92.5l147 -140q-72 -82 -179.5 -129t-234.5 -47q-111 0 -204 40 t-160.5 111t-105.5 168t-38 212zM282 1210l230 258h164l229 -258l-102 -69l-209 200l-209 -200zM315 598h537q-16 127 -82.5 185.5t-175.5 58.5q-117 0 -187.5 -63.5t-91.5 -180.5z" />
<glyph unicode="&#xeb;" horiz-adv-x="1173" d="M102 502q0 115 36 212t100.5 167.5t154.5 109.5t199 39q106 0 195.5 -36t153 -102.5t95.5 -160.5q29 -84 29 -184v-27v-28q0 -14 -1 -33t-1 -41h-750q23 -127 104 -191.5t197 -64.5q76 0 145.5 32.5t117.5 92.5l147 -140q-72 -82 -179.5 -129t-234.5 -47q-111 0 -204 40 t-160.5 111t-105.5 168t-38 212zM276 1308q0 53 36 90t91 37q57 0 93 -36.5t36 -90.5q0 -53 -36 -90t-93 -37q-55 0 -91 37t-36 90zM315 598h537q-16 127 -82.5 185.5t-175.5 58.5q-117 0 -187.5 -63.5t-91.5 -180.5zM668 1308q0 53 36 90t91 37q57 0 93 -36.5t36 -90.5 q0 -53 -36 -90t-93 -37q-55 0 -91 37t-36 90z" />
<glyph unicode="&#xec;" horiz-adv-x="534" d="M8 1407l142 98l256 -288l-101 -72zM164 0h205v1008h-205v-1008z" />
<glyph unicode="&#xed;" horiz-adv-x="534" d="M141 1217l256 288l141 -98l-297 -262zM164 0v1008h205v-1008h-205z" />
<glyph unicode="&#xee;" horiz-adv-x="534" d="M-45 1210l230 258h164l229 -258l-102 -69l-209 200l-209 -200zM164 0v1008h205v-1008h-205z" />
<glyph unicode="&#xef;" horiz-adv-x="534" d="M-47 1308q0 53 36 90t91 37q57 0 93 -36.5t36 -90.5q0 -53 -36 -90t-93 -37q-55 0 -91 37t-36 90zM164 0v1008h205v-1008h-205zM342 1308q0 53 36 90t91 37q57 0 93 -36.5t36 -90.5q0 -53 -36 -90t-93 -37q-55 0 -91 37t-36 90z" />
<glyph unicode="&#xf0;" horiz-adv-x="1247" d="M102 504q0 115 39 212t106.5 167.5t161 109.5t201.5 39q98 0 185 -31v5q-33 43 -71 87t-81 85l-276 -113l-45 113l223 90q-35 29 -70 56.5t-72 55.5l162 129q47 -37 93.5 -76.5t86.5 -82.5l191 80l45 -113l-150 -62q147 -174 230.5 -366t83.5 -385q0 -115 -40 -212 t-109.5 -168t-166 -111t-206.5 -40q-111 0 -206 40t-165 111t-110 168t-40 212zM307 504q0 -74 23.5 -136.5t65.5 -106.5t100.5 -68.5t126.5 -24.5q70 0 128 24.5t100 68.5t65.5 106.5t23.5 136.5t-23.5 135t-65.5 105t-100.5 69t-127.5 25q-68 0 -126.5 -25t-100.5 -69 t-65.5 -105t-23.5 -135z" />
<glyph unicode="&#xf1;" horiz-adv-x="1239" d="M164 0v1008h172l8 -131h4q70 78 164.5 116.5t192.5 38.5q78 0 148.5 -26.5t124.5 -81t86 -138.5t32 -198v-588h-205v528q0 86 -18.5 146.5t-51.5 97.5t-78 53.5t-96 16.5q-63 0 -114.5 -25.5t-88 -68.5t-56 -101.5t-19.5 -124.5v-522h-205zM284 1225q29 70 84.5 119 t126.5 49q41 0 80 -14.5t75 -31t69.5 -30.5t66.5 -14q35 0 59.5 25.5t42.5 62.5l109 -60q-29 -72 -84 -120t-127 -48q-45 0 -83 14.5t-72.5 31t-67.5 30.5t-66 14q-35 0 -60.5 -26.5t-43.5 -61.5z" />
<glyph unicode="&#xf2;" horiz-adv-x="1247" d="M102 504q0 -115 40 -212t110 -168t165 -110t206 -39t207 39t165.5 110t109.5 168t40 212t-40 212t-109.5 167.5t-165.5 109.5t-207 39t-206 -39t-165 -109.5t-110 -168t-40 -211.5zM365 504q0 59 22.5 112.5t61 92.5t92 61.5t112.5 22.5t111.5 -22.5t91.5 -61.5 t61.5 -92.5t22.5 -112.5t-22.5 -112.5t-61.5 -92.5t-91 -61.5t-112 -22.5q-59 0 -112.5 22.5t-92 61.5t-61 92t-22.5 113zM369 1407l139 98l258 -288l-100 -72z" />
<glyph unicode="&#xf3;" horiz-adv-x="1247" d="M102 504q0 115 40 212t110 167.5t165 109.5t206 39t207 -39t165.5 -109.5t109.5 -168t40 -211.5q0 -115 -40 -212t-109.5 -168t-166 -110t-206.5 -39q-111 0 -206 39t-165 110t-110 168t-40 212zM307 504q0 -74 23.5 -135.5t65.5 -105.5t100.5 -68.5t126.5 -24.5 q70 0 128 24.5t100 68.5t65.5 105.5t23.5 135.5t-23.5 135t-65.5 105t-100.5 69t-127.5 25q-68 0 -126.5 -25t-100.5 -69t-65.5 -105t-23.5 -135zM467 1217l256 288l141 -98l-297 -262z" />
<glyph unicode="&#xf4;" horiz-adv-x="1247" d="M102 504q0 115 40 212t110 167.5t165 109.5t206 39t207 -39t165.5 -109.5t109.5 -168t40 -211.5q0 -115 -40 -212t-109.5 -168t-166 -110t-206.5 -39q-111 0 -206 39t-165 110t-110 168t-40 212zM307 504q0 -74 23.5 -135.5t65.5 -105.5t100.5 -68.5t126.5 -24.5 q70 0 128 24.5t100 68.5t65.5 105.5t23.5 135.5t-23.5 135t-65.5 105t-100.5 69t-127.5 25q-68 0 -126.5 -25t-100.5 -69t-65.5 -105t-23.5 -135zM311 1210l230 258h164l229 -258l-102 -69l-209 200l-209 -200z" />
<glyph unicode="&#xf5;" horiz-adv-x="1247" d="M102 504q0 115 40 212t110 167.5t165 109.5t206 39t207 -39t165.5 -109.5t109.5 -168t40 -211.5q0 -115 -40 -212t-109.5 -168t-166 -110t-206.5 -39q-111 0 -206 39t-165 110t-110 168t-40 212zM268 1225q29 70 84.5 119t126.5 49q41 0 80 -14.5t75 -31t69.5 -30.5 t66.5 -14q35 0 59.5 25.5t42.5 62.5l109 -60q-29 -72 -84 -120t-127 -48q-45 0 -83 14.5t-72.5 31t-67.5 30.5t-66 14q-35 0 -60.5 -26.5t-43.5 -61.5zM307 504q0 -74 23.5 -135.5t65.5 -105.5t100.5 -68.5t126.5 -24.5q70 0 128 24.5t100 68.5t65.5 105.5t23.5 135.5 t-23.5 135t-65.5 105t-100.5 69t-127.5 25q-68 0 -126.5 -25t-100.5 -69t-65.5 -105t-23.5 -135z" />
<glyph unicode="&#xf6;" horiz-adv-x="1247" d="M102 504q0 115 40 212t110 167.5t165 109.5t206 39t207 -39t165.5 -109.5t109.5 -168t40 -211.5q0 -115 -40 -212t-109.5 -168t-166 -110t-206.5 -39q-111 0 -206 39t-165 110t-110 168t-40 212zM307 504q0 -74 23.5 -135.5t65.5 -105.5t100.5 -68.5t126.5 -24.5 q70 0 128 24.5t100 68.5t65.5 105.5t23.5 135.5t-23.5 135t-65.5 105t-100.5 69t-127.5 25q-68 0 -126.5 -25t-100.5 -69t-65.5 -105t-23.5 -135zM309 1308q0 53 36 90t91 37q57 0 93 -36.5t36 -90.5q0 -53 -36 -90t-93 -37q-55 0 -91 37t-36 90zM698 1308q0 53 36 90t91 37 q57 0 93 -36.5t36 -90.5q0 -53 -36 -90t-93 -37q-55 0 -91 37t-36 90z" />
<glyph unicode="&#xf7;" d="M129 469h950v174h-950v-174zM485 92q0 -49 33 -84t86 -35t86 35t33 84t-33 83t-86 34t-86 -34t-33 -83zM485 1020q0 49 33 83t86 34t86 -34t33 -83t-33 -83t-86 -34t-86 34t-33 83z" />
<glyph unicode="&#xf8;" horiz-adv-x="1247" d="M102 504q0 115 40 212t110 167.5t165 109.5t206 39q188 0 323 -104l103 106l86 -84l-103 -108q53 -66 83 -152t30 -186q0 -115 -40 -212t-109.5 -168t-166 -111t-206.5 -40q-92 0 -174 28t-148 79l-102 -107l-86 84l102 107q-53 68 -83 153.5t-30 186.5zM307 504 q0 -55 13.5 -103.5t35.5 -87.5l451 469q-74 55 -184 56q-68 0 -126.5 -25t-100.5 -69t-65.5 -105t-23.5 -135zM440 225q77 -57 183 -57q70 0 128 24.5t100 68.5t65.5 106.5t23.5 136.5q0 55 -13.5 102t-35.5 88z" />
<glyph unicode="&#xf9;" horiz-adv-x="1239" d="M143 420q0 -115 32 -199t86 -138t125 -81t149 -27q98 0 192 39t164 117h4l8 -131h172v1008h-205v-523q0 -66 -19.5 -124t-56 -101t-88 -68.5t-114.5 -25.5q-53 0 -97 16.5t-77 53t-51.5 97t-18.5 146.5v529h-205v-588zM317 1407l140 98l258 -288l-101 -72z" />
<glyph unicode="&#xfa;" horiz-adv-x="1239" d="M143 420v588h205v-529q0 -86 18.5 -146.5t51.5 -97t77 -53t97 -16.5q63 0 114.5 25.5t88 68.5t56 101.5t19.5 123.5v523h205v-1008h-172l-8 131h-4q-70 -78 -164 -117t-192 -39q-78 0 -149 27t-125 81t-86 138t-32 199zM467 1217l256 288l141 -98l-297 -262z" />
<glyph unicode="&#xfb;" horiz-adv-x="1239" d="M143 420v588h205v-529q0 -86 18.5 -146.5t51.5 -97t77 -53t97 -16.5q63 0 114.5 25.5t88 68.5t56 101.5t19.5 123.5v523h205v-1008h-172l-8 131h-4q-70 -78 -164 -117t-192 -39q-78 0 -149 27t-125 81t-86 138t-32 199zM299 1210l230 258h164l229 -258l-102 -69l-209 200 l-209 -200z" />
<glyph unicode="&#xfc;" horiz-adv-x="1239" d="M143 420v588h205v-529q0 -86 18.5 -146.5t51.5 -97t77 -53t97 -16.5q63 0 114.5 25.5t88 68.5t56 101.5t19.5 123.5v523h205v-1008h-172l-8 131h-4q-70 -78 -164 -117t-192 -39q-78 0 -149 27t-125 81t-86 138t-32 199zM291 1308q0 53 36 90t91 37q57 0 93 -36.5 t36 -90.5q0 -53 -36 -90t-93 -37q-55 0 -91 37t-36 90zM680 1308q0 53 36 90t91 37q57 0 93 -36.5t36 -90.5q0 -53 -36 -90t-93 -37q-55 0 -91 37t-36 90z" />
<glyph unicode="&#xfd;" horiz-adv-x="1144" d="M41 1008h244l342 -742h4l248 742h225l-402 -1131q-31 -88 -65.5 -143.5t-73.5 -87t-83 -44t-95 -12.5q-43 0 -83 8.5t-77 18.5l35 184q35 -10 63.5 -14t63.5 -4q47 0 78 39t53 104l27 80zM467 1217l256 288l141 -98l-297 -262z" />
<glyph unicode="&#xfe;" horiz-adv-x="1306" d="M156 -410v1895h204v-588h5q66 66 151.5 101.5t185.5 35.5q104 0 195.5 -40t157 -110.5t103.5 -168t38 -211.5q0 -115 -38 -212t-103.5 -168t-156.5 -110t-196 -39q-100 0 -186 35t-151 101h-5v-521h-204zM358 504q0 -74 24 -135.5t65.5 -105.5t100 -68.5t126.5 -24.5 q70 0 128 24.5t100 68.5t65.5 105.5t23.5 135.5t-23.5 136t-65.5 106.5t-100.5 69t-127.5 24.5q-68 0 -126.5 -24.5t-100 -69t-65.5 -106.5t-24 -136z" />
<glyph unicode="&#xff;" horiz-adv-x="1144" d="M41 1008h244l342 -742h4l248 742h225l-402 -1131q-31 -88 -65.5 -143.5t-73.5 -87t-83 -44t-95 -12.5q-43 0 -83 8.5t-77 18.5l35 184q35 -10 63.5 -14t63.5 -4q47 0 78 39t53 104l27 80zM276 1308q0 53 36 90t91 37q57 0 93 -36.5t36 -90.5q0 -53 -36 -90t-93 -37 q-55 0 -91 37t-36 90zM665 1308q0 53 36 90t91 37q57 0 93 -36.5t36 -90.5q0 -53 -36 -90t-93 -37q-55 0 -91 37t-36 90z" />
<glyph unicode="&#x152;" horiz-adv-x="2402" d="M109 698q0 158 54 291t149.5 229.5t225.5 149.5t279 53q154 0 283 -54t225 -153h4v183h922v-201h-711v-389h653v-201h-653v-405h729v-201h-940v182h-4q-96 -98 -225 -153.5t-283 -55.5q-150 0 -279.5 54.5t-225 150.5t-149.5 229.5t-54 290.5zM319 698q0 -117 39 -213 t106.5 -165.5t159.5 -107.5t201 -38q106 0 198.5 38t160 107.5t106.5 166t39 212.5q0 117 -39 213.5t-106.5 166t-159.5 107.5t-199 38q-109 0 -201 -38t-159.5 -107.5t-106.5 -166t-39 -213.5z" />
<glyph unicode="&#x153;" horiz-adv-x="2011" d="M102 504q0 115 39 212t108.5 167.5t163 109.5t203.5 39q135 0 243 -55t175 -154h4q63 98 165 154.5t233 56.5q104 0 192 -35.5t150.5 -103.5t95.5 -162q29 -84 29 -184v-27v-28q0 -14 -1 -33t-1 -41h-750q23 -127 103.5 -191.5t197.5 -64.5q76 0 145.5 32.5t116.5 92.5 l148 -139q-72 -82 -178.5 -128.5t-231.5 -46.5q-131 0 -237.5 56.5t-172.5 158.5h-4q-70 -102 -178 -158.5t-244 -56.5q-111 0 -204 39t-162.5 110t-108.5 168t-39 212zM307 504q0 -74 23.5 -135.5t65.5 -105.5t100.5 -68.5t126.5 -24.5q70 0 128 24.5t100 68.5t65.5 105.5 t23.5 135.5t-23.5 135t-65.5 105t-100.5 69t-127.5 25q-68 0 -126.5 -25t-100.5 -69t-65.5 -105t-23.5 -135zM1153 600h537q-16 127 -82.5 185.5t-175.5 58.5q-117 0 -187.5 -63.5t-91.5 -180.5z" />
<glyph unicode="&#x178;" horiz-adv-x="1378" d="M41 1397h254l393 -615h4l391 615h254l-542 -805v-592h-211v592zM375 1697q0 53 36 90t91 37q57 0 93 -36.5t36 -90.5q0 -53 -36 -90t-93 -37q-55 0 -91 37t-36 90zM764 1697q0 53 36 90t91 37q57 0 93 -36.5t36 -90.5q0 -53 -36 -90t-93 -37q-55 0 -91 37t-36 90z" />
<glyph unicode="&#x2c6;" horiz-adv-x="655" d="M16 1210l230 258h164l229 -258l-102 -69l-209 200l-209 -200z" />
<glyph unicode="&#x2dc;" horiz-adv-x="655" d="M-29 1225q29 70 84.5 119t126.5 49q41 0 80 -14.5t75 -31t69.5 -30.5t66.5 -14q35 0 59.5 25.5t42.5 62.5l109 -60q-29 -72 -84 -120t-127 -48q-45 0 -83 14.5t-72.5 31t-67.5 30.5t-66 14q-35 0 -60.5 -26.5t-43.5 -61.5z" />
<glyph unicode="&#x2000;" horiz-adv-x="990" vert-adv-y="0" />
<glyph unicode="&#x2001;" horiz-adv-x="1980" vert-adv-y="0" />
<glyph unicode="&#x2002;" horiz-adv-x="990" vert-adv-y="0" />
<glyph unicode="&#x2003;" horiz-adv-x="1980" vert-adv-y="0" />
<glyph unicode="&#x2004;" horiz-adv-x="660" vert-adv-y="0" />
<glyph unicode="&#x2005;" horiz-adv-x="495" vert-adv-y="0" />
<glyph unicode="&#x2006;" horiz-adv-x="330" vert-adv-y="0" />
<glyph unicode="&#x2007;" horiz-adv-x="330" vert-adv-y="0" />
<glyph unicode="&#x2008;" horiz-adv-x="247" vert-adv-y="0" />
<glyph unicode="&#x2009;" horiz-adv-x="396" vert-adv-y="0" />
<glyph unicode="&#x200a;" horiz-adv-x="110" vert-adv-y="0" />
<glyph unicode="&#x2010;" horiz-adv-x="727" d="M92 469v174h543v-174h-543z" />
<glyph unicode="&#x2011;" horiz-adv-x="727" d="M92 469v174h543v-174h-543z" />
<glyph unicode="&#x2012;" horiz-adv-x="727" d="M92 469v174h543v-174h-543z" />
<glyph unicode="&#x2013;" horiz-adv-x="1243" d="M92 412v176h1059v-176h-1059z" />
<glyph unicode="&#x2014;" horiz-adv-x="2211" d="M82 412v176h2038v-176h-2038z" />
<glyph unicode="&#x2018;" horiz-adv-x="466" d="M82 985q16 57 37.5 125t45 134.5t48.5 129t47 111.5h146q-37 -129 -69 -262t-48 -238h-207z" />
<glyph unicode="&#x2019;" horiz-adv-x="487" d="M82 985q39 129 70.5 262t48.5 238h205q-16 -59 -37 -126t-45.5 -133.5t-49 -129t-47.5 -111.5h-145z" />
<glyph unicode="&#x201a;" horiz-adv-x="477" d="M62 -299q39 129 70.5 262t48.5 238h205q-16 -59 -37 -126t-45.5 -133.5t-49 -129t-47.5 -111.5h-145z" />
<glyph unicode="&#x201c;" horiz-adv-x="776" d="M82 985q16 57 37.5 125t45 134.5t48.5 129t47 111.5h146q-37 -129 -69 -262t-48 -238h-207zM389 985q16 57 37.5 125t45 134.5t48.5 129t47 111.5h146q-37 -129 -69 -262t-48 -238h-207z" />
<glyph unicode="&#x201d;" horiz-adv-x="776" d="M62 985q39 129 70.5 262t48.5 238h205q-16 -59 -37 -126t-45.5 -133.5t-49 -129t-47.5 -111.5h-145zM371 985q39 129 70.5 262t48.5 238h205q-16 -59 -37 -126t-45.5 -133.5t-49 -129t-47.5 -111.5h-145z" />
<glyph unicode="&#x201e;" horiz-adv-x="786" d="M62 -299q39 129 70.5 262t48.5 238h205q-16 -59 -37 -126t-45.5 -133.5t-49 -129t-47.5 -111.5h-145zM371 -299q39 129 70.5 262t48.5 238h205q-16 -59 -37 -126t-45.5 -133.5t-49 -129t-47.5 -111.5h-145z" />
<glyph unicode="&#x2022;" horiz-adv-x="800" d="M113 698q0 59 22.5 112.5t61.5 92.5t92 61.5t112 22.5t111.5 -22.5t91.5 -61.5t61.5 -92.5t22.5 -112.5t-22.5 -112.5t-61.5 -92t-91 -61t-112 -22.5q-59 0 -112 22.5t-92 61t-61.5 92t-22.5 112.5z" />
<glyph unicode="&#x2026;" horiz-adv-x="1955" d="M164 100q0 53 36 90t91 37q57 0 93 -36.5t36 -90.5q0 -53 -36 -90t-93 -37q-55 0 -91 37t-36 90zM850 100q0 53 36 90t91 37q57 0 93 -36.5t36 -90.5q0 -53 -36 -90t-93 -37q-55 0 -91 37t-36 90zM1536 100q0 53 36 90t91 37q57 0 93 -36.5t36 -90.5q0 -53 -36 -90 t-93 -37q-55 0 -91 37t-36 90z" />
<glyph unicode="&#x202f;" horiz-adv-x="396" vert-adv-y="0" />
<glyph unicode="&#x2039;" horiz-adv-x="624" d="M72 504l321 493l139 -75l-272 -418l272 -418l-139 -76z" />
<glyph unicode="&#x203a;" horiz-adv-x="624" d="M92 86l273 418l-273 418l139 75l322 -493l-322 -494z" />
<glyph unicode="&#x205f;" horiz-adv-x="495" vert-adv-y="0" />
<glyph unicode="&#x20ac;" d="M61 467l48 133h133q-2 16 -2 35v37v39q0 18 2 34h-181l48 134h149q25 115 74 206t121.5 154.5t165 97t202.5 33.5q94 0 178 -25.5t148 -66.5l-64 -178q-59 39 -120.5 61.5t-141.5 22.5q-147 0 -238 -79t-126 -226h547l-48 -134h-520q0 -16 -1 -34.5t-1 -38.5q0 -18 1 -37 t1 -35h469l-49 -133h-399q35 -147 126 -226t238 -79q80 0 141.5 22.5t120.5 61.5l64 -178q-63 -41 -147.5 -68t-178.5 -27q-111 0 -203 34t-164.5 98.5t-121.5 155.5t-74 206h-197z" />
<glyph unicode="&#x2122;" horiz-adv-x="1615" d="M82 1257v140h580v-140h-218v-591h-145v591h-217zM727 666l45 731h129l227 -367h5l225 367h129l47 -731h-156l-12 208q-4 72 -5 137.5t-3 123.5h-4q-16 -33 -37 -69t-47 -77l-135 -221h-11l-135 221q-27 41 -47 77t-37 69h-4q0 -57 -2 -123t-6 -138l-12 -208h-154z" />
<glyph unicode="&#x25fc;" horiz-adv-x="1003" vert-adv-y="2007" d="M0 0v1004h1004v-1004h-1004z" />
</font>
</defs>
</svg>
